<svg xmlns="http://www.w3.org/2000/svg" xmlns:xlink="http://www.w3.org/1999/xlink" width="295" height="271" viewBox="0 0 295 271">
  <defs>
    <clipPath id="clip-path">
      <rect id="Rectángulo_415651" data-name="Rectángulo 415651" width="295" height="247" transform="translate(1125 1149)" fill="#fff" stroke="#707070" stroke-width="1" opacity="0.83"/>
    </clipPath>
  </defs>
  <g id="Grupo_1182691" data-name="Grupo 1182691" transform="translate(-1125 -1149)">
    <g id="Enmascarar_grupo_1098827" data-name="Enmascarar grupo 1098827" clip-path="url(#clip-path)">
      <g id="Grupo_1182684" data-name="Grupo 1182684">
        <path id="Trazado_1042193" data-name="Trazado 1042193" d="M789.314,384.345c-34.459,51-91.15,54.684-100.761,55.109-47.811,2.116-113.7-24.06-137.736-93.947-21.735-63.19,1.729-130.184,38.824-169,39.216-41.035,101.821-59.1,154.376-28.866,65.838,37.875,77.6,129.51,66.557,184.221C804.7,360.976,792.3,379.926,789.314,384.345Z" transform="translate(596.163 1027.428)" fill="#ffe1b9" opacity="0.6"/>
        <g id="Grupo_1182683" data-name="Grupo 1182683" transform="translate(1138.635 1153.168)">
          <path id="Trazado_1042748" data-name="Trazado 1042748" d="M1116.962,283.981c-12.021.006-12.7-17.342-9.981-25.166,0,0-15.647-10.2-6.123-29.593s23.811-1.02,25.852,3.4,20.749-16.667,31.294-15.647,10.885,12.246,13.266,12.246,17.974-4.082,27.015,2.041,2.565,12.245,4.442,15.306,15.824,6.463,5.619,17.008c0,0,17.008-1.7,18.708,6.8s-4.082,11.905-3.4,14.967,15.307,20.742-15.306,26.528c0,0-.893,46.6-39.394,28.236S1116.962,283.981,1116.962,283.981Z" transform="translate(-985.473 -216.941)" fill="#a56a42"/>
          <path id="Trazado_1042749" data-name="Trazado 1042749" d="M1031.265,480.653l8.744,87.206h52.234c-5.74-15.172-21.855-57.535-26.858-68.37-6.123-13.266-18.028-14.286-18.028-14.286C1043.351,483.3,1037.514,481.808,1031.265,480.653Z" transform="translate(-810.879 -325.635)" fill="#3bad96"/>
          <path id="Trazado_1042750" data-name="Trazado 1042750" d="M1264.434,568.256h67.187V481.617a121.6,121.6,0,0,0-13.2,3.7,37.3,37.3,0,0,0-19.792,15.93C1293.138,510.65,1273.334,550.341,1264.434,568.256Z" transform="translate(-1187.32 -326.033)" fill="#3bad96"/>
          <path id="Trazado_1042751" data-name="Trazado 1042751" d="M1107.621,565.229h110.846V482.572c-4-1.906-9.843-3.395-16.093-4.55a283.536,283.536,0,0,0-32.265-3.614,167.073,167.073,0,0,0-43.823,4.181,121.586,121.586,0,0,0-13.2,3.7l-3.132,47.5-.844,12.891Z" transform="translate(-981.987 -323.005)" fill="#3bad96"/>
          <path id="Trazado_1042752" data-name="Trazado 1042752" d="M1392.35,486.723l.128,5.768,1.736,76.888h37.409c-4.2-12.522-20.062-60.129-24.207-78.348-.772-3.38-1.141-5.747-.949-6.689Z" transform="translate(-1362.515 -327.156)" fill="#ffaf82"/>
          <path id="Trazado_1042754" data-name="Trazado 1042754" d="M1064.593,605.777c-14.51.319-25.581,17.081-10.793,37.112a2.749,2.749,0,0,0,4.935-1.428,15.743,15.743,0,0,0-.266-4.391s3.742,4.252,6.123-.17c0,0,1.531,3.742,5.782.51,0,0,1.7,4.762,6.633,1.871s9.694-19.049,4.762-27.042S1064.593,605.777,1064.593,605.777Z" transform="translate(-811.617 -377.159)" fill="#ffaf82"/>
          <path id="Trazado_1042755" data-name="Trazado 1042755" d="M1060.87,648.425a1.063,1.063,0,0,0,.9-.494c4.524-7.134,4.912-16.628,4.927-17.028a1.063,1.063,0,0,0-2.124-.076c0,.093-.387,9.327-4.6,15.967a1.062,1.062,0,0,0,.329,1.467A1.036,1.036,0,0,0,1060.87,648.425Z" transform="translate(-802.11 -387.11)" fill="#fe976a"/>
          <path id="Trazado_1042756" data-name="Trazado 1042756" d="M1076.92,646.125a1.063,1.063,0,0,0,1.041-.855,62.432,62.432,0,0,0,.743-18.893,1.063,1.063,0,0,0-2.106.294,61.449,61.449,0,0,1-.722,18.183,1.063,1.063,0,0,0,.834,1.251A1.1,1.1,0,0,0,1076.92,646.125Z" transform="translate(-823.944 -385.321)" fill="#fe976a"/>
          <path id="Trazado_1042757" data-name="Trazado 1042757" d="M1090.918,646.653a1.063,1.063,0,0,0,.95-1.538c-2.71-5.42-1.1-17.458-1.088-17.578a1.063,1.063,0,0,0-2.107-.289c-.071.52-1.711,12.81,1.293,18.818A1.056,1.056,0,0,0,1090.918,646.653Z" transform="translate(-844.062 -385.679)" fill="#fe976a"/>
          <g id="Grupo_1182511" data-name="Grupo 1182511" transform="translate(127.121 206.784)">
            <path id="Trazado_1042758" data-name="Trazado 1042758" d="M1107.623,581.607a325.258,325.258,0,0,0,72,8.327,251.434,251.434,0,0,0,37.36-2.622V574.35c-16.937,2.672-56.826,6.392-108.515-5.634Z" transform="translate(-1107.623 -568.716)" fill="#0091cc"/>
          </g>
          <path id="Trazado_1042759" data-name="Trazado 1042759" d="M1160.859,399.6v47.77s2.162,13.266,17.128,12.246a17.917,17.917,0,0,0,17.008-14.626V399.606h-34.136Z" transform="translate(-989.809 -292.23)" fill="#ffaf82"/>
          <path id="Trazado_1042760" data-name="Trazado 1042760" d="M1160.86,399.6v44.319c20.452-.865,29.168-17.78,34.135-33.76V399.6Z" transform="translate(-989.81 -292.23)" fill="#fe976a"/>
          <path id="Trazado_1042761" data-name="Trazado 1042761" d="M1161.237,276.457c-15.307,26.787-21.429,94.137,21.429,94.137s55.1-35.206,45.155-75.768S1161.237,276.457,1161.237,276.457Z" transform="translate(-1019.361 -238.974)" fill="#ffaf82"/>
          <path id="Trazado_1042762" data-name="Trazado 1042762" d="M1118.725,380.5c4.381,13.519,28.4,9.578,29.846-5.6,1.406-14.725-15.354-21.008-26.362-11.319S1118.725,380.5,1118.725,380.5Z" transform="translate(-917.226 -275.467)" fill="#ffaf82"/>
          <path id="Trazado_1042763" data-name="Trazado 1042763" d="M1137.543,384.5a1.063,1.063,0,0,0,.855-1.694c-.043-.058-4.333-6-2.02-10.443a1.063,1.063,0,1,0-1.886-.981c-2.927,5.626,1.984,12.4,2.195,12.687A1.054,1.054,0,0,0,1137.543,384.5Z" transform="translate(-917.375 -280.36)" fill="#fe976a"/>
          <path id="Trazado_1042764" data-name="Trazado 1042764" d="M1144.312,383.376a14.414,14.414,0,0,0,4.579-.662,1.063,1.063,0,1,0-.685-2.012c-3.643,1.241-8.79-.012-8.841-.025a1.063,1.063,0,0,0-.514,2.063A24.91,24.91,0,0,0,1144.312,383.376Z" transform="translate(-931.015 -284.415)" fill="#fe976a"/>
          <path id="Trazado_1042765" data-name="Trazado 1042765" d="M1233.562,405.3a21.861,21.861,0,0,0,10.693-3.221,1.063,1.063,0,0,0-1.176-1.771c-.476.315-11.707,7.573-19.069-2.09a1.063,1.063,0,1,0-1.691,1.288A13.614,13.614,0,0,0,1233.562,405.3Z" transform="translate(-1075.545 -291.485)" fill="#6a2810"/>
          <path id="Trazado_1042766" data-name="Trazado 1042766" d="M1191.578,380.241a6.714,6.714,0,0,0,3.1-.786,5,5,0,0,0,2.89-4.309,5.662,5.662,0,0,0-2.43-4.863,3.045,3.045,0,0,0-3.116-.192,1.063,1.063,0,1,0,1,1.876.9.9,0,0,1,.985.116,3.542,3.542,0,0,1,1.437,2.976,2.881,2.881,0,0,1-1.745,2.51,4.023,4.023,0,0,1-4.975-.689,6.1,6.1,0,0,1-.733-7.223,5.6,5.6,0,0,1,5.419-3.29,5.24,5.24,0,0,1,4.565,3.472,1.063,1.063,0,1,0,2.006-.7,7.366,7.366,0,0,0-6.412-4.887,7.734,7.734,0,0,0-7.455,4.414,8.212,8.212,0,0,0,1.1,9.716A6.1,6.1,0,0,0,1191.578,380.241Z" transform="translate(-1009.055 -277.647)" fill="#fe976a"/>
          <path id="Trazado_1042767" data-name="Trazado 1042767" d="M1269.072,369.008a6.708,6.708,0,0,0,3.1-.786,5,5,0,0,0,2.89-4.309,5.665,5.665,0,0,0-2.431-4.863,3.045,3.045,0,0,0-3.115-.192,1.063,1.063,0,1,0,1,1.876.9.9,0,0,1,.985.116,3.543,3.543,0,0,1,1.437,2.976,2.882,2.882,0,0,1-1.745,2.51,4.025,4.025,0,0,1-4.976-.689,6.1,6.1,0,0,1-.733-7.224,5.6,5.6,0,0,1,5.419-3.289,5.24,5.24,0,0,1,4.565,3.472,1.063,1.063,0,0,0,2.006-.7,7.366,7.366,0,0,0-6.411-4.887,7.73,7.73,0,0,0-7.457,4.413,8.213,8.213,0,0,0,1.1,9.717A6.092,6.092,0,0,0,1269.072,369.008Z" transform="translate(-1132.099 -273.018)" fill="#fe976a"/>
          <path id="Trazado_1042768" data-name="Trazado 1042768" d="M1251.54,369.9a1.063,1.063,0,0,0,.6-1.938l-8.4-5.784,8.672-12.56a1.063,1.063,0,0,0-1.75-1.207l-9.277,13.436a1.062,1.062,0,0,0,.272,1.479l9.276,6.387A1.073,1.073,0,0,0,1251.54,369.9Z" transform="translate(-1094.645 -270.94)" fill="#6a2810"/>
          <path id="Trazado_1042769" data-name="Trazado 1042769" d="M1197.782,342.916c0,2.859,1.15,4.467,2.568,4.467s2.568-1.609,2.568-4.467-1.15-4.392-2.568-4.392S1197.782,340.057,1197.782,342.916Z" transform="translate(-1019.437 -267.054)" fill="#6a2810"/>
          <path id="Trazado_1042770" data-name="Trazado 1042770" d="M1256.862,335.38c0,2.859,1.15,4.467,2.568,4.467s2.568-1.609,2.568-4.467-1.15-4.392-2.568-4.392S1256.862,332.521,1256.862,335.38Z" transform="translate(-1113.246 -263.948)" fill="#6a2810"/>
          <path id="Trazado_1042771" data-name="Trazado 1042771" d="M1135.961,283.528c8.307-10.932,13.553-6.123,17.263,0s8.472,1.306,13.914-3.259,15.481-3.2,14.373,3.6,4.757,9.524,12.88,4.422,17.647,6.123,12.885,11.565-5.414,15.207,5.286,17.128,13.11-7.774,12.075-22.145-4.717-40.9-41.823-43.284-44.7,13.606-46.854,19.388S1135.961,283.528,1135.961,283.528Z" transform="translate(-1004.472 -231.108)" fill="#a56a42"/>
          <path id="Trazado_1042772" data-name="Trazado 1042772" d="M1142.676,282.779c3.21-3.6,5.907-4.646,8.2-4.2,2.725.533,4.889,3.156,6.67,6.11,1.49,2.455,3.156,3.061,4.97,2.616h.006c2.5-.614,5.274-3.21,8.268-5.718a11.444,11.444,0,0,1,8.18-2.488c3.4.324,6.083,2.32,5.5,5.914-.742,4.559,1.808,7.189,6.076,6.656a15.629,15.629,0,0,0,6.184-2.448,7.686,7.686,0,0,1,5.186-1.167c5.9.789,10.6,8.146,7.074,12.172-4.531,5.179-5.152,14.472,5.031,16.3a12.205,12.205,0,0,0,3.365.182c7.324-.661,8.989-9.239,8.126-21.256-.985-13.676-4.491-38.924-39.8-41.19q-3.2-.2-6.1-.223h-.1c-28.242.418-34.473,13.629-36.361,18.673A19.428,19.428,0,0,0,1142.676,282.779Z" transform="translate(-1009.577 -232.231)" fill="#fe976a"/>
          <path id="Trazado_1042773" data-name="Trazado 1042773" d="M1139.093,281.527c.248,1.24.489,2.006.489,2.006,3.111-4.1,5.8-5.981,8.128-6.42,3.9-.723,6.817,2.594,9.134,6.42a5.584,5.584,0,0,0,3.1,2.749h.007c3.132.886,6.789-2.629,10.814-6.009a11.93,11.93,0,0,1,6.47-2.615c4.479-.411,8.631,1.708,7.9,6.215-.645,3.975,1.084,6.555,4.259,6.995,2.261.319,5.244-.454,8.624-2.572a8.333,8.333,0,0,1,3.324-1.226c7.107-.949,13.677,8.086,9.56,12.791-4.762,5.442-5.414,15.208,5.286,17.128.489.085.957.149,1.41.192,7.7-.694,9.446-9.709,8.539-22.336-1.035-14.371-4.72-40.9-41.824-43.284q-3.358-.212-6.413-.234h-.106c-29.678.439-36.226,14.322-38.21,19.622C1138.152,274.788,1138.623,279.075,1139.093,281.527Z" transform="translate(-1008.098 -231.113)" fill="#a56a42"/>
          <path id="Trazado_1042774" data-name="Trazado 1042774" d="M1425.395,450.761c3.408,6.293,13.783,9.864,18.035,10.2s10.318,2.374,10.375,4.932l.128,5.768,14.938-1.46c-.772-3.38-1.141-5.747-.949-6.69,0,0,.17-5.782,4.592-12.926s.51-13.776-2.892-10.715-3.4,9.524-7.313,10.034-11.565-2.381-18.028-7.483-11.225-12.075-14.116-6.633c0,0-6.293-.851-4.422,6.293C1425.736,442.087,1421.985,444.468,1425.395,450.761Z" transform="translate(-1423.963 -306.331)" fill="#ffaf82"/>
          <path id="Trazado_1042775" data-name="Trazado 1042775" d="M1486.7,452.806a1.063,1.063,0,0,0,.3-2.083c-14.654-4.348-16.244-14.337-16.257-14.438a1.063,1.063,0,0,0-2.1.3c.067.465,1.811,11.444,17.757,16.175A1.1,1.1,0,0,0,1486.7,452.806Z" transform="translate(-1463.499 -306.972)" fill="#fe976a"/>
          <path id="Trazado_1042776" data-name="Trazado 1042776" d="M1495.184,459.94a1.063,1.063,0,0,0,.129-2.118c-10.3-1.268-14.762-11.014-14.805-11.112a1.063,1.063,0,0,0-1.943.862c.2.446,4.968,10.942,16.489,12.36A1.18,1.18,0,0,0,1495.184,459.94Z" transform="translate(-1477.764 -311.385)" fill="#fe976a"/>
          <path id="Trazado_1042777" data-name="Trazado 1042777" d="M1106.875,597.483a1.063,1.063,0,0,0,1.063-1.063V551.011a1.063,1.063,0,1,0-2.125,0V596.42A1.062,1.062,0,0,0,1106.875,597.483Z" transform="translate(-870.394 -354.197)" fill="#6a2810"/>
          <path id="Trazado_1042778" data-name="Trazado 1042778" d="M1289.671,593.158a1.063,1.063,0,0,0,1.06-.993l3.4-51.577a1.063,1.063,0,0,0-2.122-.141l-3.4,51.577a1.064,1.064,0,0,0,.991,1.131Z" transform="translate(-1164.037 -349.872)" fill="#6a2810"/>
        </g>
        <g id="Grupo_1182448" data-name="Grupo 1182448" transform="translate(1153.051 1218)">
          <path id="Trazado_1042423" data-name="Trazado 1042423" d="M62.536,242.911l4.925-6.083a21.46,21.46,0,0,0,5.236,4.14,10.29,10.29,0,0,0,5.05,1.258l-1.629-14.6q-7.849-.779-11.849-3.809a11.95,11.95,0,0,1-4.625-8.631,12.092,12.092,0,0,1,2.916-9.858q3.569-3.993,10.5-5.136l-.516-4.634,4.234-.474.516,4.633a21.208,21.208,0,0,1,7.926,1.31,22.981,22.981,0,0,1,7.016,4.348l-4.768,6.268a15.84,15.84,0,0,0-4.505-3.632,9.892,9.892,0,0,0-4.859-1.061l1.478,13.267q8.666,1.16,12.662,4.291t4.668,9.164a12.732,12.732,0,0,1-3.107,10.42q-3.8,4.22-10.979,5.19l.756,6.765-4.234.471-.753-6.768a20.429,20.429,0,0,1-16.055-6.842Zm12.651-23.65L73.829,207.1a9.287,9.287,0,0,0-5.247,2.274,5.723,5.723,0,0,0,.753,8.286A12.488,12.488,0,0,0,75.187,219.261Zm6.819,22.725a8.743,8.743,0,0,0,5.427-2.174,5.6,5.6,0,0,0,1.387-4.8,6.371,6.371,0,0,0-2.28-4.571,11.871,11.871,0,0,0-6.037-1.926Z" transform="translate(-59.541 -195.086)" fill="#ff9d1c"/>
        </g>
        <g id="Grupo_1182447" data-name="Grupo 1182447" transform="translate(1197.058 1285.738)">
          <path id="Trazado_1042415" data-name="Trazado 1042415" d="M406.723,271.446h2.794a2.881,2.881,0,0,0,2.039-4.918l-2.015-2.015a2.888,2.888,0,0,1,0-4.072l.657-.651a2.876,2.876,0,0,1,4.072,0l1.978,1.972a2.88,2.88,0,0,0,4.918-2.033v-2.849A2.882,2.882,0,0,1,424.052,254h.919a2.881,2.881,0,0,1,2.879,2.879v2.8a2.884,2.884,0,0,0,4.924,2.033l2.009-2.009a2.884,2.884,0,0,1,4.079,0l.652.652a2.884,2.884,0,0,1,0,4.079l-1.978,1.972a2.885,2.885,0,0,0,2.039,4.925h2.843a2.881,2.881,0,0,1,2.879,2.879v.926a2.881,2.881,0,0,1-2.879,2.879h-2.794a2.881,2.881,0,0,0-2.039,4.918l2.009,2.015a2.876,2.876,0,0,1,0,4.072l-.651.652a2.877,2.877,0,0,1-4.072,0L432.89,287.7a2.88,2.88,0,0,0-4.918,2.033v2.849a2.882,2.882,0,0,1-2.886,2.879h-.919a2.883,2.883,0,0,1-2.886-2.879v-2.8a2.88,2.88,0,0,0-4.918-2.033l-2.009,2.009a2.884,2.884,0,0,1-4.079,0l-.651-.652a2.884,2.884,0,0,1,0-4.079l1.978-1.972a2.885,2.885,0,0,0-2.039-4.924h-2.842a2.883,2.883,0,0,1-2.886-2.879v-.925A2.884,2.884,0,0,1,406.723,271.446Zm17.847,10.646a7.363,7.363,0,1,0-7.359-7.359A7.361,7.361,0,0,0,424.57,282.092Z" transform="translate(-403.836 -253.999)" fill="#7b776f"/>
          <path id="Trazado_1042416" data-name="Trazado 1042416" d="M422.679,276.307a3.459,3.459,0,1,0,3.459-3.462A3.46,3.46,0,0,0,422.679,276.307Z" transform="translate(-405.405 -255.575)" fill="#7b776f"/>
        </g>
        <g id="Grupo_1182467" data-name="Grupo 1182467" transform="translate(1387.238 1285.738)">
          <path id="Trazado_1042415-2" data-name="Trazado 1042415" d="M405.943,266.733h2.039a2.1,2.1,0,0,0,1.488-3.59L408,261.672a2.108,2.108,0,0,1,0-2.972l.48-.475a2.1,2.1,0,0,1,2.972,0l1.444,1.439a2.1,2.1,0,0,0,3.59-1.484V256.1a2.1,2.1,0,0,1,2.106-2.1h.671a2.1,2.1,0,0,1,2.1,2.1v2.044a2.1,2.1,0,0,0,3.594,1.484l1.466-1.466a2.105,2.105,0,0,1,2.977,0l.476.476a2.105,2.105,0,0,1,0,2.977l-1.444,1.439a2.106,2.106,0,0,0,1.488,3.594h2.075a2.1,2.1,0,0,1,2.1,2.1v.676a2.1,2.1,0,0,1-2.1,2.1h-2.039a2.1,2.1,0,0,0-1.488,3.59l1.466,1.471a2.1,2.1,0,0,1,0,2.972l-.475.476a2.1,2.1,0,0,1-2.972,0l-1.444-1.439a2.1,2.1,0,0,0-3.59,1.484v2.079a2.1,2.1,0,0,1-2.106,2.1h-.671a2.1,2.1,0,0,1-2.106-2.1v-2.044a2.1,2.1,0,0,0-3.59-1.484l-1.466,1.466a2.105,2.105,0,0,1-2.977,0l-.475-.476a2.105,2.105,0,0,1,0-2.977l1.444-1.439a2.106,2.106,0,0,0-1.488-3.594h-2.075a2.1,2.1,0,0,1-2.106-2.1v-.675A2.1,2.1,0,0,1,405.943,266.733Zm13.026,7.77a5.374,5.374,0,1,0-5.371-5.371A5.372,5.372,0,0,0,418.969,274.5Z" transform="translate(-403.836 -253.999)" fill="#7b776f"/>
          <path id="Trazado_1042416-2" data-name="Trazado 1042416" d="M422.679,275.372a2.525,2.525,0,1,0,2.525-2.527A2.526,2.526,0,0,0,422.679,275.372Z" transform="translate(-410.071 -260.24)" fill="#7b776f"/>
        </g>
      </g>
    </g>
    <g id="Grupo_1182690" data-name="Grupo 1182690" transform="translate(2393 -501.565)">
      <path id="Trazado_1043257" data-name="Trazado 1043257" d="M1064.593,605.777c-14.51.319-25.581,17.081-10.793,37.112a2.749,2.749,0,0,0,4.935-1.428,15.743,15.743,0,0,0-.266-4.391s3.742,4.252,6.123-.17c0,0,1.531,3.742,5.782.51,0,0,1.7,4.762,6.633,1.871s9.694-19.049,4.762-27.042S1064.593,605.777,1064.593,605.777Z" transform="translate(-2066.093 1277.574)" fill="#ffaf82"/>
      <path id="Trazado_1043258" data-name="Trazado 1043258" d="M1060.87,648.425a1.063,1.063,0,0,0,.9-.494c4.524-7.134,4.912-16.628,4.927-17.028a1.063,1.063,0,0,0-2.124-.076c0,.093-.387,9.327-4.6,15.967a1.062,1.062,0,0,0,.329,1.467A1.036,1.036,0,0,0,1060.87,648.425Z" transform="translate(-2056.586 1267.623)" fill="#fe976a"/>
      <path id="Trazado_1043259" data-name="Trazado 1043259" d="M1076.92,646.125a1.063,1.063,0,0,0,1.041-.855,62.432,62.432,0,0,0,.743-18.893,1.063,1.063,0,0,0-2.106.294,61.449,61.449,0,0,1-.722,18.183,1.063,1.063,0,0,0,.834,1.251A1.1,1.1,0,0,0,1076.92,646.125Z" transform="translate(-2078.42 1269.412)" fill="#fe976a"/>
      <path id="Trazado_1043260" data-name="Trazado 1043260" d="M1090.918,646.653a1.063,1.063,0,0,0,.95-1.538c-2.71-5.42-1.1-17.458-1.088-17.578a1.063,1.063,0,0,0-2.107-.289c-.071.52-1.711,12.81,1.293,18.818A1.056,1.056,0,0,0,1090.918,646.653Z" transform="translate(-2098.537 1269.054)" fill="#fe976a"/>
    </g>
  </g>
</svg>
