<svg xmlns="http://www.w3.org/2000/svg" xmlns:xlink="http://www.w3.org/1999/xlink" width="113" height="113" viewBox="0 0 113 113">
  <defs>
    <filter id="Trazado_982547" x="0" y="0" width="113" height="113" filterUnits="userSpaceOnUse">
      <feOffset dy="3" input="SourceAlpha"/>
      <feGaussianBlur stdDeviation="3" result="blur"/>
      <feFlood flood-opacity="0.161"/>
      <feComposite operator="in" in2="blur"/>
      <feComposite in="SourceGraphic"/>
    </filter>
  </defs>
  <g id="Grupo_1182657" data-name="Grupo 1182657" transform="translate(-901.751 -3080)">
    <g id="Grupo_1182337" data-name="Grupo 1182337" transform="translate(910.751 3086)">
      <g id="Grupo_1174057" data-name="Grupo 1174057">
        <g id="Grupo_1172010" data-name="Grupo 1172010">
          <g id="Grupo_1171046" data-name="Grupo 1171046">
            <g id="Grupo_1148525" data-name="Grupo 1148525">
              <g transform="matrix(1, 0, 0, 1, -9, -6)" filter="url(#Trazado_982547)">
                <g id="Trazado_982547-2" data-name="Trazado 982547" transform="translate(9 6)" fill="#f2f7e5">
                  <path d="M 47.5 93.5 C 41.28937149047852 93.5 35.26533508300781 92.28397369384766 29.59518623352051 89.88570404052734 C 24.11771965026855 87.56893157958984 19.19813346862793 84.25196075439453 14.97309303283691 80.02691650390625 C 10.74804019927979 75.80186462402344 7.431066513061523 70.88229370117188 5.114293098449707 65.40481567382812 C 2.716026782989502 59.73468017578125 1.5 53.71062850952148 1.5 47.5 C 1.5 41.28937149047852 2.716026782989502 35.26533508300781 5.114293098449707 29.59518623352051 C 7.431066513061523 24.11771965026855 10.74804019927979 19.19813346862793 14.97309303283691 14.97309303283691 C 19.19813346862793 10.74804019927979 24.11771965026855 7.431066513061523 29.59518623352051 5.114293098449707 C 35.26533508300781 2.716026782989502 41.28937149047852 1.5 47.5 1.5 C 53.71062850952148 1.5 59.73468017578125 2.716026782989502 65.40481567382812 5.114293098449707 C 70.88229370117188 7.431066513061523 75.80186462402344 10.74804019927979 80.02691650390625 14.97309303283691 C 84.25196075439453 19.19813346862793 87.56893157958984 24.11771965026855 89.88570404052734 29.59518623352051 C 92.28397369384766 35.26533508300781 93.5 41.28937149047852 93.5 47.5 C 93.5 53.71062850952148 92.28397369384766 59.73468017578125 89.88570404052734 65.40481567382812 C 87.56893157958984 70.88229370117188 84.25196075439453 75.80186462402344 80.02691650390625 80.02691650390625 C 75.80186462402344 84.25196075439453 70.88229370117188 87.56893157958984 65.40481567382812 89.88570404052734 C 59.73468017578125 92.28397369384766 53.71062850952148 93.5 47.5 93.5 Z" stroke="none"/>
                  <path d="M 47.5 3 C 41.49121475219727 3 35.66376876831055 4.176155090332031 30.17950439453125 6.495796203613281 C 24.88084411621094 8.736953735351562 20.12152099609375 11.94598388671875 16.03375244140625 16.03375244140625 C 11.94598388671875 20.12152099609375 8.736953735351562 24.88084411621094 6.495796203613281 30.17950439453125 C 4.176155090332031 35.66376876831055 3 41.49121475219727 3 47.5 C 3 53.50878524780273 4.176155090332031 59.33623123168945 6.495796203613281 64.82049560546875 C 8.736953735351562 70.11915588378906 11.94598388671875 74.87847900390625 16.03375244140625 78.96624755859375 C 20.12152099609375 83.05401611328125 24.88084411621094 86.26304626464844 30.17950439453125 88.50419616699219 C 35.66376876831055 90.82384490966797 41.49121475219727 92 47.5 92 C 53.50878524780273 92 59.33623123168945 90.82384490966797 64.82049560546875 88.50419616699219 C 70.11915588378906 86.26304626464844 74.87847900390625 83.05401611328125 78.96624755859375 78.96624755859375 C 83.05401611328125 74.87847900390625 86.26304626464844 70.11915588378906 88.50419616699219 64.82049560546875 C 90.82384490966797 59.33623123168945 92 53.50878524780273 92 47.5 C 92 41.49121475219727 90.82384490966797 35.66376876831055 88.50419616699219 30.17950439453125 C 86.26304626464844 24.88084411621094 83.05401611328125 20.12152099609375 78.96624755859375 16.03375244140625 C 74.87847900390625 11.94598388671875 70.11915588378906 8.736953735351562 64.82049560546875 6.495796203613281 C 59.33623123168945 4.176155090332031 53.50878524780273 3 47.5 3 M 47.5 0 C 73.7335205078125 0 95 21.2664794921875 95 47.5 C 95 73.7335205078125 73.7335205078125 95 47.5 95 C 21.2664794921875 95 0 73.7335205078125 0 47.5 C 0 21.2664794921875 21.2664794921875 0 47.5 0 Z" stroke="none" fill="#86b60c"/>
                </g>
              </g>
            </g>
          </g>
        </g>
      </g>
    </g>
    <g id="empleador" transform="translate(927.751 3104)">
      <g id="Grupo_1182655" data-name="Grupo 1182655" transform="translate(1.936 1.936)">
        <g id="Grupo_1182619" data-name="Grupo 1182619" transform="translate(26.146 26.202)">
          <path id="Trazado_1043180" data-name="Trazado 1043180" d="M31.868,30l1.928.767L32.785,33.79c-.3-.028-.608-.047-.917-.047s-.618.019-.917.047L29.94,30.767Z" transform="translate(-29.94 -30)" fill="#ffeaa7"/>
        </g>
        <g id="Grupo_1182620" data-name="Grupo 1182620" transform="translate(28.991 24.892)">
          <path id="Trazado_1043181" data-name="Trazado 1043181" d="M41.421,43.011A9.359,9.359,0,0,0,32.98,33.7l1.011-3.023,2.751,1.1.823-3.182A14.828,14.828,0,0,1,44.6,34.29a5.789,5.789,0,0,0-1.479,1.067,5.852,5.852,0,0,0-1.7,4.127A5.518,5.518,0,0,0,41.6,40.9l.608,2.461a1.853,1.853,0,0,0-.786,1.525Z" transform="translate(-32.98 -28.6)" fill="#ff826e"/>
        </g>
        <g id="Grupo_1182621" data-name="Grupo 1182621" transform="translate(15.534 24.892)">
          <path id="Trazado_1043182" data-name="Trazado 1043182" d="M21.782,43.011v1.872A1.853,1.853,0,0,0,21,43.357L21.6,40.9a5.518,5.518,0,0,0,.178-1.413A5.825,5.825,0,0,0,18.6,34.29a14.828,14.828,0,0,1,7.037-5.69l.823,3.182,2.751-1.1L30.223,33.7a9.358,9.358,0,0,0-8.441,9.311Z" transform="translate(-18.6 -28.6)" fill="#ff826e"/>
        </g>
        <g id="Grupo_1182622" data-name="Grupo 1182622" transform="translate(28.074 24.331)">
          <path id="Trazado_1043183" data-name="Trazado 1043183" d="M32,29.872,35.743,28a14.25,14.25,0,0,1,1.759.561l-.823,3.182-2.751-1.1Z" transform="translate(-32 -28)" fill="#fc6e51"/>
        </g>
        <g id="Grupo_1182623" data-name="Grupo 1182623" transform="translate(22.571 24.331)">
          <path id="Trazado_1043184" data-name="Trazado 1043184" d="M29.695,30.639l-2.751,1.1-.823-3.182A14.251,14.251,0,0,1,27.879,28l3.743,1.872Z" transform="translate(-26.12 -28)" fill="#fc6e51"/>
        </g>
        <g id="Grupo_1182624" data-name="Grupo 1182624" transform="translate(38.667 3.949)">
          <path id="Trazado_1043185" data-name="Trazado 1043185" d="M46.651,8.382a1.671,1.671,0,0,0,.627,2.04c0,.009.009.009.019.019a1.7,1.7,0,0,0,2.124-.206l.505-.515,5.3,5.3-.515.505a1.7,1.7,0,0,0-.206,2.124c.009.009.009.019.019.019a1.671,1.671,0,0,0,2.04.627l.674-.281L60.1,24.936l-.674.271a1.679,1.679,0,0,0-1,1.881.034.034,0,0,0,.009.028,1.675,1.675,0,0,0,1.647,1.357H60.8v4.679a.939.939,0,0,0-.936-.936H55.186A22.452,22.452,0,0,0,43.414,12.462l.412-2.04a7.128,7.128,0,0,0,.131-1.338A6.682,6.682,0,0,0,43.32,6.22h.009l3.6,1.488Z" transform="translate(-43.32 -6.22)" fill="#fcd770"/>
        </g>
        <g id="Grupo_1182625" data-name="Grupo 1182625" transform="translate(0 2.929)">
          <path id="Trazado_1043186" data-name="Trazado 1043186" d="M2,38.285V28.4h.721a1.675,1.675,0,0,0,1.647-1.357l.009-.028a1.685,1.685,0,0,0-1.011-1.881L2.7,24.866l2.864-6.925.674.281a1.671,1.671,0,0,0,2.04-.627l.019-.019a1.688,1.688,0,0,0-.215-2.124l-.505-.505,5.3-5.3.505.505a1.688,1.688,0,0,0,2.124.215l.019-.019a1.671,1.671,0,0,0,.627-2.04l-.281-.674L21.932,5.13a5.966,5.966,0,0,0-.281.814l-.468.159A3.446,3.446,0,0,0,19.49,7.348a3.389,3.389,0,0,0-.646,2,3.289,3.289,0,0,0,.066.674l.477,2.377h-.019A22.45,22.45,0,0,0,7.615,32.146v.15a3.858,3.858,0,0,0-1.31.627,4.107,4.107,0,0,0-1.5,2.031l-.533.178A3.315,3.315,0,0,0,2,38.285Z" transform="translate(-2 -5.13)" fill="#fcd770"/>
        </g>
        <g id="Grupo_1182626" data-name="Grupo 1182626" transform="translate(0 49.503)">
          <path id="Trazado_1043187" data-name="Trazado 1043187" d="M11.358,55.929v5.615H2A7.448,7.448,0,0,1,6.08,54.9l1.535,2.9Z" transform="translate(-2 -54.9)" fill="#fcd770"/>
        </g>
        <g id="Grupo_1182627" data-name="Grupo 1182627" transform="translate(9.358 49.503)">
          <path id="Trazado_1043188" data-name="Trazado 1043188" d="M21.358,61.544H12V55.929L15.743,57.8l1.535-2.9A7.448,7.448,0,0,1,21.358,61.544Z" transform="translate(-12 -54.9)" fill="#fcd770"/>
        </g>
        <g id="Grupo_1182628" data-name="Grupo 1182628" transform="translate(9.358 48.661)">
          <path id="Trazado_1043189" data-name="Trazado 1043189" d="M17.278,54.842l-1.535,2.9L12,55.872,14.807,54l1.151.328a7.724,7.724,0,0,1,1.319.515Z" transform="translate(-12 -54)" fill="#ffc729"/>
        </g>
        <g id="Grupo_1182629" data-name="Grupo 1182629" transform="translate(4.08 48.661)">
          <path id="Trazado_1043190" data-name="Trazado 1043190" d="M11.638,55.872,7.895,57.743l-1.535-2.9a7.723,7.723,0,0,1,1.319-.515L8.83,54Z" transform="translate(-6.36 -54)" fill="#ffc729"/>
        </g>
        <g id="Grupo_1182630" data-name="Grupo 1182630" transform="translate(46.79 49.503)">
          <path id="Trazado_1043191" data-name="Trazado 1043191" d="M61.358,61.544H52V55.929L55.743,57.8l1.535-2.9A7.448,7.448,0,0,1,61.358,61.544Z" transform="translate(-52 -54.9)" fill="#5cd6b3"/>
        </g>
        <g id="Grupo_1182631" data-name="Grupo 1182631" transform="translate(37.432 49.503)">
          <path id="Trazado_1043192" data-name="Trazado 1043192" d="M51.358,55.929v5.615H42A7.448,7.448,0,0,1,46.08,54.9l1.535,2.9Z" transform="translate(-42 -54.9)" fill="#5cd6b3"/>
        </g>
        <g id="Grupo_1182632" data-name="Grupo 1182632" transform="translate(46.79 48.661)">
          <path id="Trazado_1043193" data-name="Trazado 1043193" d="M57.278,54.842l-1.535,2.9L52,55.872,54.807,54l1.151.328a7.724,7.724,0,0,1,1.319.515Z" transform="translate(-52 -54)" fill="#48cfad"/>
        </g>
        <g id="Grupo_1182633" data-name="Grupo 1182633" transform="translate(41.512 48.661)">
          <path id="Trazado_1043194" data-name="Trazado 1043194" d="M51.638,55.872l-3.743,1.872-1.535-2.9a7.723,7.723,0,0,1,1.319-.515L48.83,54Z" transform="translate(-46.36 -54)" fill="#48cfad"/>
        </g>
        <g id="Grupo_1182634" data-name="Grupo 1182634" transform="translate(37.432 29.945)">
          <path id="Trazado_1043195" data-name="Trazado 1043195" d="M43.872,43.358a1.83,1.83,0,0,0-1.086.346l-.608-2.461A5.518,5.518,0,0,1,42,39.83,5.852,5.852,0,0,1,43.7,35.7a5.789,5.789,0,0,1,1.479-1.067A5.851,5.851,0,0,1,47.83,34H59.78a.939.939,0,0,1,.936.936V36.7a30.885,30.885,0,0,1-.8,7,1.86,1.86,0,0,0-1.076-.337H56.973v-.936a2.8,2.8,0,0,0-2.807-2.807H48.551a2.8,2.8,0,0,0-2.807,2.807v.936Z" transform="translate(-42 -34)" fill="#b27946"/>
        </g>
        <g id="Grupo_1182635" data-name="Grupo 1182635" transform="translate(0 29.945)">
          <path id="Trazado_1043196" data-name="Trazado 1043196" d="M9.992,39.615H9.486a3.742,3.742,0,0,0-3.743,3.743H3.872a1.83,1.83,0,0,0-1.086.346L2.1,40.944a3.311,3.311,0,0,1,2.171-3.958l.533-.178a4.107,4.107,0,0,1,1.5-2.031,3.858,3.858,0,0,1,1.31-.627A3.8,3.8,0,0,1,8.7,34h6.186a5.83,5.83,0,0,1,5.83,5.83,5.518,5.518,0,0,1-.178,1.413L19.93,43.7a1.83,1.83,0,0,0-1.086-.346H16.973A1.865,1.865,0,0,0,15.1,41.486H13.229a3.724,3.724,0,0,1-3.238-1.872Z" transform="translate(-2 -34)" fill="#b27946"/>
        </g>
        <g id="Grupo_1182636" data-name="Grupo 1182636" transform="translate(25.051 52.404)">
          <path id="Trazado_1043197" data-name="Trazado 1043197" d="M34.815,58a8.742,8.742,0,0,1-2.807,3.584l-.215.159-.215-.159A8.742,8.742,0,0,1,28.77,58Z" transform="translate(-28.77 -58)" fill="#e6e9ed"/>
        </g>
        <g id="Grupo_1182637" data-name="Grupo 1182637" transform="translate(28.074 48.933)">
          <path id="Trazado_1043198" data-name="Trazado 1043198" d="M38.906,55.984A7.452,7.452,0,0,1,41.358,61.5H32l.215-.159a8.742,8.742,0,0,0,2.807-3.584h.009a8.928,8.928,0,0,0,.711-3.472h.009l.206.056a7.362,7.362,0,0,1,2.948,1.638Z" transform="translate(-32 -54.29)" fill="#ff826e"/>
        </g>
        <g id="Grupo_1182638" data-name="Grupo 1182638" transform="translate(18.716 48.933)">
          <path id="Trazado_1043199" data-name="Trazado 1043199" d="M27.4,54.346l.206-.056h.009a8.928,8.928,0,0,0,.711,3.472h.009a8.742,8.742,0,0,0,2.807,3.584l.215.159H22a7.452,7.452,0,0,1,2.452-5.521A7.362,7.362,0,0,1,27.4,54.346Z" transform="translate(-22 -54.29)" fill="#ff826e"/>
        </g>
        <g id="Grupo_1182639" data-name="Grupo 1182639" transform="translate(18.716 29.945)">
          <path id="Trazado_1043200" data-name="Trazado 1043200" d="M29.486,39.615a3.742,3.742,0,0,0-3.743,3.743v1.872a5.609,5.609,0,0,0,3.565,5.222l-.009.009-.44,1.319a1.867,1.867,0,0,1-1.245,1.207h-.009l-.206.056a7.362,7.362,0,0,0-2.948,1.638A6.769,6.769,0,0,1,22,49.469V43.358a9.358,9.358,0,0,1,8.441-9.311c.3-.028.608-.047.917-.047s.618.019.917.047a9.359,9.359,0,0,1,8.441,9.311v6.111a6.769,6.769,0,0,1-2.452,5.212,7.362,7.362,0,0,0-2.948-1.638l-.206-.056H35.1a1.867,1.867,0,0,1-1.245-1.207l-.43-1.273V50.5a5.441,5.441,0,0,0,3.547-5.109V43.358A1.865,1.865,0,0,0,35.1,41.486H33.229a3.724,3.724,0,0,1-3.238-1.872h-.505Z" transform="translate(-22 -34)" fill="#fcd770"/>
        </g>
        <g id="Grupo_1182640" data-name="Grupo 1182640" transform="translate(16.844)">
          <path id="Trazado_1043201" data-name="Trazado 1043201" d="M32.165,9.486H25.615a1.877,1.877,0,0,0-1.872,1.872v1.872h-.936a2.77,2.77,0,0,0-1.909.749L20.543,12.2l-.477-2.377A3.289,3.289,0,0,1,20,9.149a3.389,3.389,0,0,1,.646-2A3.446,3.446,0,0,1,22.339,5.9l.468-.159a5.966,5.966,0,0,1,.281-.814A4.938,4.938,0,0,1,27.6,2h8.048a6.8,6.8,0,0,1,6.176,3.949,6.682,6.682,0,0,1,.636,2.864,7.128,7.128,0,0,1-.131,1.338l-.412,2.04-.356,1.787a2.813,2.813,0,0,0-1.909-.749h-.936V11.358a1.877,1.877,0,0,0-1.872-1.872Z" transform="translate(-20 -2)" fill="#656d78"/>
        </g>
        <g id="Grupo_1182641" data-name="Grupo 1182641" transform="translate(35.56 11.229)">
          <path id="Trazado_1043202" data-name="Trazado 1043202" d="M42.845,14.749a2.809,2.809,0,0,1-1.909,4.866H40V14h.936a2.813,2.813,0,0,1,1.909.749Z" transform="translate(-40 -14)" fill="#f0d0b4"/>
        </g>
        <g id="Grupo_1182642" data-name="Grupo 1182642" transform="translate(24.331 22.347)">
          <path id="Trazado_1043203" data-name="Trazado 1043203" d="M33.615,25.992a5.391,5.391,0,0,0,1.1-.112l.767,1.984-3.743,1.872L28,27.864l.767-1.984a5.391,5.391,0,0,0,1.1.112Z" transform="translate(-28 -25.88)" fill="#f0d0b4"/>
        </g>
        <g id="Grupo_1182643" data-name="Grupo 1182643" transform="translate(20.587 7.486)">
          <path id="Trazado_1043204" data-name="Trazado 1043204" d="M38.973,13.743v5.615a5.6,5.6,0,0,1-4.511,5.5,5.391,5.391,0,0,1-1.1.112H29.615a5.391,5.391,0,0,1-1.1-.112A5.6,5.6,0,0,1,24,19.358V11.872A1.877,1.877,0,0,1,25.872,10H37.1a1.877,1.877,0,0,1,1.872,1.872Z" transform="translate(-24 -10)" fill="#f0d0b4"/>
        </g>
        <g id="Grupo_1182644" data-name="Grupo 1182644" transform="translate(16.844 11.229)">
          <path id="Trazado_1043205" data-name="Trazado 1043205" d="M23.743,14v5.615h-.936A2.808,2.808,0,0,1,20.9,14.749,2.77,2.77,0,0,1,22.807,14Z" transform="translate(-20 -14)" fill="#f0d0b4"/>
        </g>
        <g id="Grupo_1182645" data-name="Grupo 1182645" transform="translate(52.133 39.303)">
          <path id="Trazado_1043206" data-name="Trazado 1043206" d="M60.929,44.337a1.878,1.878,0,0,1,.8,1.535,1.885,1.885,0,0,1-1.872,1.872H57.71a5.41,5.41,0,0,0,.271-1.7V44h1.872A1.86,1.86,0,0,1,60.929,44.337Z" transform="translate(-57.71 -44)" fill="#f0d0b4"/>
        </g>
        <g id="Grupo_1182646" data-name="Grupo 1182646" transform="translate(43.982 46.397)">
          <path id="Trazado_1043207" data-name="Trazado 1043207" d="M51.976,51.973a5.308,5.308,0,0,0,1.9-.346v.009l.739,2.208-2.807,1.872L49,53.845l.749-2.255.009-.009a5.621,5.621,0,0,0,2.077.393Z" transform="translate(-49 -51.58)" fill="#f0d0b4"/>
        </g>
        <g id="Grupo_1182647" data-name="Grupo 1182647" transform="translate(41.175 35.56)">
          <path id="Trazado_1043208" data-name="Trazado 1043208" d="M57.229,43.743v2.04a5.428,5.428,0,0,1-3.547,5.1,5.308,5.308,0,0,1-1.9.346h-.14A5.6,5.6,0,0,1,46,45.615V42.807A2.8,2.8,0,0,1,48.807,40h5.615a2.8,2.8,0,0,1,2.807,2.807Z" transform="translate(-46 -40)" fill="#f0d0b4"/>
        </g>
        <g id="Grupo_1182648" data-name="Grupo 1182648" transform="translate(37.432 39.303)">
          <path id="Trazado_1043209" data-name="Trazado 1043209" d="M45.743,45.872a5.655,5.655,0,0,0,.318,1.872h-2.19A1.885,1.885,0,0,1,42,45.872a1.853,1.853,0,0,1,.786-1.525A1.83,1.83,0,0,1,43.872,44h1.872Z" transform="translate(-42 -44)" fill="#f0d0b4"/>
        </g>
        <g id="Grupo_1182649" data-name="Grupo 1182649" transform="translate(6.551 46.397)">
          <path id="Trazado_1043210" data-name="Trazado 1043210" d="M11.976,51.973a5.308,5.308,0,0,0,1.9-.346v.009l.739,2.208-2.807,1.872L9,53.845l.749-2.255.009-.009a5.621,5.621,0,0,0,2.077.393Z" transform="translate(-9 -51.58)" fill="#f0d0b4"/>
        </g>
        <g id="Grupo_1182650" data-name="Grupo 1182650" transform="translate(24.331 46.397)">
          <path id="Trazado_1043211" data-name="Trazado 1043211" d="M34.242,52.909a1.867,1.867,0,0,0,1.245,1.207,8.928,8.928,0,0,1-.711,3.472H28.711A8.928,8.928,0,0,1,28,54.116a1.867,1.867,0,0,0,1.245-1.207l.44-1.319.009-.009a5.621,5.621,0,0,0,2.077.393h.14a5.308,5.308,0,0,0,1.9-.346v.009Z" transform="translate(-28 -51.58)" fill="#f0d0b4"/>
        </g>
        <g id="Grupo_1182651" data-name="Grupo 1182651" transform="translate(22.459 35.56)">
          <path id="Trazado_1043212" data-name="Trazado 1043212" d="M26,43.743A3.742,3.742,0,0,1,29.743,40h.505a3.724,3.724,0,0,0,3.238,1.872h1.872a1.865,1.865,0,0,1,1.872,1.872v2.031a5.441,5.441,0,0,1-3.547,5.109,5.308,5.308,0,0,1-1.9.346h-.14A5.633,5.633,0,0,1,26,45.615Z" transform="translate(-26 -40)" fill="#f0d0b4"/>
        </g>
        <g id="Grupo_1182652" data-name="Grupo 1182652" transform="translate(14.692 39.303)">
          <path id="Trazado_1043213" data-name="Trazado 1043213" d="M21.172,47.191a1.83,1.83,0,0,1-1.319.552H17.7a5.216,5.216,0,0,0,.281-1.712V44h1.872a1.83,1.83,0,0,1,1.086.346,1.853,1.853,0,0,1,.786,1.525,1.83,1.83,0,0,1-.552,1.319Z" transform="translate(-17.7 -44)" fill="#f0d0b4"/>
        </g>
        <g id="Grupo_1182653" data-name="Grupo 1182653" transform="translate(3.743 35.56)">
          <path id="Trazado_1043214" data-name="Trazado 1043214" d="M10.248,40a3.724,3.724,0,0,0,3.238,1.872h1.872a1.865,1.865,0,0,1,1.872,1.872v2.031a5.216,5.216,0,0,1-.281,1.712,5.4,5.4,0,0,1-3.266,3.4,5.308,5.308,0,0,1-1.9.346h-.14A5.6,5.6,0,0,1,6,45.615V43.743A3.742,3.742,0,0,1,9.743,40h.5Z" transform="translate(-6 -40)" fill="#f0d0b4"/>
        </g>
        <g id="Grupo_1182654" data-name="Grupo 1182654" transform="translate(0 39.303)">
          <path id="Trazado_1043215" data-name="Trazado 1043215" d="M3.872,47.743A1.885,1.885,0,0,1,2,45.872a1.853,1.853,0,0,1,.786-1.525A1.83,1.83,0,0,1,3.872,44H5.743v1.872a5.655,5.655,0,0,0,.318,1.872Z" transform="translate(-2 -44)" fill="#f0d0b4"/>
        </g>
      </g>
      <g id="Grupo_1182656" data-name="Grupo 1182656" transform="translate(1 1)">
        <path id="Trazado_1043216" data-name="Trazado 1043216" d="M53,39h1.872v3.743H53Z" transform="translate(-4.339 -3.44)"/>
        <path id="Trazado_1043217" data-name="Trazado 1043217" d="M31,15h1.872v3.743H31Z" transform="translate(-2.926 -1.899)"/>
        <path id="Trazado_1043218" data-name="Trazado 1043218" d="M31.682,22.723a4.822,4.822,0,0,0,4.583-3.3l.048-.144-1.775-.592-.048.145a2.959,2.959,0,0,1-5.615,0l-.048-.144-1.775.592.048.143a4.822,4.822,0,0,0,4.583,3.3Z" transform="translate(-2.673 -2.135)"/>
        <path id="Trazado_1043219" data-name="Trazado 1043219" d="M57.359,27.2a.755.755,0,0,1-.735-.633.746.746,0,0,1,.444-.832L58.6,25.1,55.02,16.457l-1.535.636a.755.755,0,0,1-.919-.3.747.747,0,0,1,.09-.94l1.174-1.174L47.214,8.061,46.039,9.235a.755.755,0,0,1-.963.075.746.746,0,0,1-.278-.9l.636-1.536-4.15-1.719A7.751,7.751,0,0,0,34.427,1H26.381a5.866,5.866,0,0,0-5.2,3.137l-6.6,2.733L15.219,8.4a.757.757,0,0,1-.3.924.748.748,0,0,1-.943-.094L12.805,8.06,6.188,14.677,7.36,15.848a.765.765,0,0,1-.832,1.243L5,16.457,1.416,25.1l1.53.634a.757.757,0,0,1,.442.862.747.747,0,0,1-.733.6H1V38.023a4.232,4.232,0,0,0,.127,1.033l.559,2.235a2.794,2.794,0,0,0,2.121,4.627H5.38a6.47,6.47,0,0,0,2.713,2.9l-.338,1.014-.678.194A8.414,8.414,0,0,0,1,58.083v.936H59.019v-.936a8.414,8.414,0,0,0-6.078-8.057l-.678-.193-.316-.95A6.364,6.364,0,0,0,54.7,45.918h1.509a2.795,2.795,0,0,0,2.1-4.657,32.333,32.333,0,0,0,.711-6.688V27.2ZM43,7.886A2.638,2.638,0,0,0,47.207,10.7l3.982,3.982A2.639,2.639,0,0,0,54,18.894l2.155,5.2a2.639,2.639,0,0,0,.988,4.968v1.88H53.372a23.373,23.373,0,0,0-11.625-19.29l.278-1.389a7.487,7.487,0,0,0,.04-2.766ZM17.846,42.174h.934a.936.936,0,0,1,0,1.873H17.8a6.436,6.436,0,0,0,.051-.774Zm3.741-24.33a1.872,1.872,0,1,1,0-3.743Zm-2.915-4.19a3.708,3.708,0,0,0-.828,2.319,3.747,3.747,0,0,0,3.743,3.743h.075A6.56,6.56,0,0,0,25.8,24.891l-.238.612a15.69,15.69,0,0,0-8.414,5.864,6.718,6.718,0,0,0-2.327-.421H8.638c-.04,0-.08.007-.12.008A21.512,21.512,0,0,1,18.661,13.6Zm16.952-3.3a.937.937,0,0,1,.936.936V18.78a4.684,4.684,0,0,1-4.679,4.679H28.138a4.684,4.684,0,0,1-4.679-4.679V11.294a.937.937,0,0,1,.936-.936ZM34.388,27.433l-.34,1.312-1.756-.7,1.548-.774c.185.051.368.107.548.165Zm4.044,19.915a5.808,5.808,0,0,1-1.572,3.977,8.31,8.31,0,0,0-2.636-1.3l-.2-.057a.94.94,0,0,1-.631-.6l-.16-.481a6.436,6.436,0,0,0,1.462-1.094,6.343,6.343,0,0,0,1.869-4.517V41.237a2.811,2.811,0,0,0-2.807-2.806H31.881a2.811,2.811,0,0,1-2.807-2.807v-.936H27.2v.936a4.72,4.72,0,0,0,.109,1.009,4.686,4.686,0,0,0-3.853,4.6v1.873a6.522,6.522,0,0,0,3.35,5.709l-.182.547a.935.935,0,0,1-.629.6l-.2.058a8.28,8.28,0,0,0-2.634,1.3,5.815,5.815,0,0,1-1.571-3.978V41.239a8.422,8.422,0,1,1,16.844,0Zm-8.253.442h-.142A4.689,4.689,0,0,1,26.7,46.418a4.641,4.641,0,0,1-1.373-3.309V41.236a2.81,2.81,0,0,1,2.807-2.8h0A4.674,4.674,0,0,0,31.882,40.3h1.873a.937.937,0,0,1,.936.936v2.035a4.513,4.513,0,0,1-4.512,4.515ZM32.385,53.4H27.633a7.829,7.829,0,0,1-.4-1.975A2.8,2.8,0,0,0,28.4,49.956l.155-.466a6.64,6.64,0,0,0,1.479.171h.143a6.469,6.469,0,0,0,1.3-.133l.142.428a2.79,2.79,0,0,0,1.167,1.474,7.829,7.829,0,0,1-.4,1.975Zm-.928,1.872a7.851,7.851,0,0,1-1.448,1.6,7.851,7.851,0,0,1-1.448-1.6ZM30.01,30.945c-.087,0-.17.011-.256.013l-.5-1.508.759-.3.76.3-.5,1.508C30.18,30.957,30.1,30.945,30.01,30.945Zm-3.831-3.677,1.548.774-1.756.7-.34-1.312c.182-.058.364-.114.548-.165Zm6.392-1.458L30.01,27.092l-2.561-1.281.2-.505c.163.012.327.025.493.025h3.743c.167,0,.33-.013.493-.025Zm-8.7,2.312.815,3.151,2.819-1.128.343,1.03a10.314,10.314,0,0,0-6.551,4.6,6.782,6.782,0,0,0-2.493-3.518,13.836,13.836,0,0,1,5.067-4.134Zm-6.6,17.8H18.78a2.754,2.754,0,0,0,.936-.173v1.6a7.67,7.67,0,0,0,2.066,5.242,8.478,8.478,0,0,0-1.13,1.668,8.4,8.4,0,0,0-5.142-4.233l-.678-.193-.316-.949a6.364,6.364,0,0,0,2.755-2.966Zm-3.01,5.7.736.211c.091.026.172.069.261.1l-.619,1.17-1.483-.742Zm-2.031,2.367,3.207,1.6,1.5-2.831a6.546,6.546,0,0,1,2.7,4.393H12.229Zm13.2-1.824a9.824,9.824,0,0,0,2.2,4.989H21.664A6.54,6.54,0,0,1,25.425,52.159Zm9.168,0a6.535,6.535,0,0,1,3.761,4.989H32.39A9.823,9.823,0,0,0,34.593,52.159Zm8.491.6,1.5,2.831,3.207-1.6v3.165H40.381A6.549,6.549,0,0,1,43.084,52.755Zm2.3.34-.619-1.17c.089-.03.17-.073.26-.1l.736-.211,1.106.737Zm-.2-3.261-.678.193a8.4,8.4,0,0,0-5.141,4.233,8.45,8.45,0,0,0-1.13-1.668A7.677,7.677,0,0,0,40.3,47.348v-1.6a2.754,2.754,0,0,0,.936.173h1.572a6.47,6.47,0,0,0,2.713,2.9Zm-2.938-5.787H41.239a.937.937,0,0,1,0-1.874h.936v.937A6.5,6.5,0,0,0,42.248,44.046ZM32.167,31.176l.343-1.03,2.819,1.128.815-3.151a13.838,13.838,0,0,1,5.067,4.135,6.782,6.782,0,0,0-2.493,3.518,10.315,10.315,0,0,0-6.551-4.6Zm10.706.19A15.69,15.69,0,0,0,34.459,25.5l-.238-.612a6.56,6.56,0,0,0,4.135-5.175h.075a3.747,3.747,0,0,0,3.743-3.743,3.708,3.708,0,0,0-.828-2.319l.011-.058A21.51,21.51,0,0,1,51.5,30.945H45.2a6.718,6.718,0,0,0-2.327.421ZM38.432,14.1a1.872,1.872,0,1,1,0,3.743ZM22.371,6.4l.124-.5a4,4,0,0,1,3.886-3.035h8.046A5.875,5.875,0,0,1,40.189,9.9l-.512,2.559a3.694,3.694,0,0,0-1.246-.229v-.936a2.811,2.811,0,0,0-2.807-2.807H30.945A3.853,3.853,0,0,1,27.2,5.565l-.028-.112L25.359,5.9l.028.113A5.721,5.721,0,0,0,26.71,8.486H24.395a2.811,2.811,0,0,0-2.807,2.807v.936a3.694,3.694,0,0,0-1.246.229l-.577-2.888a2.519,2.519,0,0,1-.049-.488,2.486,2.486,0,0,1,1.7-2.361ZM5.232,26.931A2.629,2.629,0,0,0,3.86,24.1l2.156-5.2A2.638,2.638,0,0,0,8.83,14.683L12.812,10.7a2.638,2.638,0,0,0,4.211-2.814L18.2,7.4a4.251,4.251,0,0,0-.266,2.538l.343,1.715A23.377,23.377,0,0,0,6.633,31.368a5.032,5.032,0,0,0-2.6,2.571l-.117.039a4.26,4.26,0,0,0-1.042.526v-5.44a2.636,2.636,0,0,0,2.36-2.134Zm-.725,8.824.977-.326.148-.444a3.165,3.165,0,0,1,3.007-2.167h6.181A4.9,4.9,0,0,1,19.57,38.9l-.361,1.444a2.818,2.818,0,0,0-.429-.043H17.673a2.8,2.8,0,0,0-2.635-1.871H13.165a2.811,2.811,0,0,1-2.807-2.807v-.936H8.486v.936A4.72,4.72,0,0,0,8.6,36.633,4.686,4.686,0,0,0,4.844,40.3H3.807a2.83,2.83,0,0,0-.43.043L2.943,38.6a2.424,2.424,0,0,1-.071-.579,2.386,2.386,0,0,1,1.635-2.268Zm-.7,8.292a.937.937,0,0,1,0-1.874h.936v.937a6.634,6.634,0,0,0,.074.938Zm2.807-.938V41.236a2.81,2.81,0,0,1,2.807-2.8h0A4.674,4.674,0,0,0,13.166,40.3h1.873a.937.937,0,0,1,.936.936v2.035a4.513,4.513,0,0,1-4.512,4.515h-.142a4.689,4.689,0,0,1-3.333-1.372,4.633,4.633,0,0,1-1.373-3.309Zm4.705,6.552h.143a6.477,6.477,0,0,0,1.3-.133l.229.687-1.694,1.129L9.6,50.215l.241-.724a6.7,6.7,0,0,0,1.479.17ZM8.327,51.616l1.106.737L7.95,53.1l-.62-1.173c.089-.03.171-.07.261-.1ZM5.658,52.765l1.493,2.821,3.207-1.6v3.165H2.94A6.543,6.543,0,0,1,5.658,52.765Zm51.421,4.382H49.661V53.983l3.207,1.6,1.493-2.82A6.543,6.543,0,0,1,57.079,57.147Zm-4.652-5.322c.091.026.173.066.262.1l-.62,1.173-1.483-.742,1.105-.737Zm-2.008-1.61-1.694,1.129-1.694-1.129.241-.724a6.7,6.7,0,0,0,1.479.17h.143a6.476,6.476,0,0,0,1.3-.133Zm5.793-6.169h-.984a6.2,6.2,0,0,0,.051-.771v-1.1h.934a.936.936,0,0,1,0,1.873Zm.936-9.473a30.521,30.521,0,0,1-.563,5.766,2.729,2.729,0,0,0-.372-.037h-.934l0-3.742H53.4l0,6.715a4.513,4.513,0,0,1-4.511,4.514h-.142a4.689,4.689,0,0,1-3.333-1.372,4.641,4.641,0,0,1-1.373-3.309V40.3a1.873,1.873,0,0,1,1.872-1.872H47.79V36.56H45.918a3.748,3.748,0,0,0-3.743,3.74h-.936a2.83,2.83,0,0,0-.43.043l-.36-1.443A4.9,4.9,0,0,1,45.2,32.817H57.147Z" transform="translate(-1 -1)"/>
      </g>
    </g>
  </g>
</svg>
