<svg xmlns="http://www.w3.org/2000/svg" xmlns:xlink="http://www.w3.org/1999/xlink" width="113" height="113" viewBox="0 0 113 113">
  <defs>
    <filter id="Trazado_982547" x="0" y="0" width="113" height="113" filterUnits="userSpaceOnUse">
      <feOffset dy="3" input="SourceAlpha"/>
      <feGaussianBlur stdDeviation="3" result="blur"/>
      <feFlood flood-opacity="0.161"/>
      <feComposite operator="in" in2="blur"/>
      <feComposite in="SourceGraphic"/>
    </filter>
  </defs>
  <g id="Grupo_1182680" data-name="Grupo 1182680" transform="translate(-1216.73 -3080.16)">
    <g id="Grupo_1182339" data-name="Grupo 1182339" transform="translate(1225.73 3086.16)">
      <g id="Grupo_1174057" data-name="Grupo 1174057">
        <g id="Grupo_1172010" data-name="Grupo 1172010">
          <g id="Grupo_1171046" data-name="Grupo 1171046">
            <g id="Grupo_1148525" data-name="Grupo 1148525">
              <g transform="matrix(1, 0, 0, 1, -9, -6)" filter="url(#Trazado_982547)">
                <g id="Trazado_982547-2" data-name="Trazado 982547" transform="translate(9 6)" fill="#f2f7e5">
                  <path d="M 47.5 93.5 C 41.28937149047852 93.5 35.26533508300781 92.28397369384766 29.59518623352051 89.88570404052734 C 24.11771965026855 87.56893157958984 19.19813346862793 84.25196075439453 14.97309303283691 80.02691650390625 C 10.74804019927979 75.80186462402344 7.431066513061523 70.88229370117188 5.114293098449707 65.40481567382812 C 2.716026782989502 59.73468017578125 1.5 53.71062850952148 1.5 47.5 C 1.5 41.28937149047852 2.716026782989502 35.26533508300781 5.114293098449707 29.59518623352051 C 7.431066513061523 24.11771965026855 10.74804019927979 19.19813346862793 14.97309303283691 14.97309303283691 C 19.19813346862793 10.74804019927979 24.11771965026855 7.431066513061523 29.59518623352051 5.114293098449707 C 35.26533508300781 2.716026782989502 41.28937149047852 1.5 47.5 1.5 C 53.71062850952148 1.5 59.73468017578125 2.716026782989502 65.40481567382812 5.114293098449707 C 70.88229370117188 7.431066513061523 75.80186462402344 10.74804019927979 80.02691650390625 14.97309303283691 C 84.25196075439453 19.19813346862793 87.56893157958984 24.11771965026855 89.88570404052734 29.59518623352051 C 92.28397369384766 35.26533508300781 93.5 41.28937149047852 93.5 47.5 C 93.5 53.71062850952148 92.28397369384766 59.73468017578125 89.88570404052734 65.40481567382812 C 87.56893157958984 70.88229370117188 84.25196075439453 75.80186462402344 80.02691650390625 80.02691650390625 C 75.80186462402344 84.25196075439453 70.88229370117188 87.56893157958984 65.40481567382812 89.88570404052734 C 59.73468017578125 92.28397369384766 53.71062850952148 93.5 47.5 93.5 Z" stroke="none"/>
                  <path d="M 47.5 3 C 41.49121475219727 3 35.66376876831055 4.176155090332031 30.17950439453125 6.495796203613281 C 24.88084411621094 8.736953735351562 20.12152099609375 11.94598388671875 16.03375244140625 16.03375244140625 C 11.94598388671875 20.12152099609375 8.736953735351562 24.88084411621094 6.495796203613281 30.17950439453125 C 4.176155090332031 35.66376876831055 3 41.49121475219727 3 47.5 C 3 53.50878524780273 4.176155090332031 59.33623123168945 6.495796203613281 64.82049560546875 C 8.736953735351562 70.11915588378906 11.94598388671875 74.87847900390625 16.03375244140625 78.96624755859375 C 20.12152099609375 83.05401611328125 24.88084411621094 86.26304626464844 30.17950439453125 88.50419616699219 C 35.66376876831055 90.82384490966797 41.49121475219727 92 47.5 92 C 53.50878524780273 92 59.33623123168945 90.82384490966797 64.82049560546875 88.50419616699219 C 70.11915588378906 86.26304626464844 74.87847900390625 83.05401611328125 78.96624755859375 78.96624755859375 C 83.05401611328125 74.87847900390625 86.26304626464844 70.11915588378906 88.50419616699219 64.82049560546875 C 90.82384490966797 59.33623123168945 92 53.50878524780273 92 47.5 C 92 41.49121475219727 90.82384490966797 35.66376876831055 88.50419616699219 30.17950439453125 C 86.26304626464844 24.88084411621094 83.05401611328125 20.12152099609375 78.96624755859375 16.03375244140625 C 74.87847900390625 11.94598388671875 70.11915588378906 8.736953735351562 64.82049560546875 6.495796203613281 C 59.33623123168945 4.176155090332031 53.50878524780273 3 47.5 3 M 47.5 0 C 73.7335205078125 0 95 21.2664794921875 95 47.5 C 95 73.7335205078125 73.7335205078125 95 47.5 95 C 21.2664794921875 95 0 73.7335205078125 0 47.5 C 0 21.2664794921875 21.2664794921875 0 47.5 0 Z" stroke="none" fill="#86b60c"/>
                </g>
              </g>
            </g>
          </g>
        </g>
      </g>
    </g>
    <g id="ahorrar-tiempo" transform="translate(1239.49 3099.919)">
      <g id="Grupo_1182658" data-name="Grupo 1182658" transform="translate(19.719 17.807)">
        <path id="Trazado_1043220" data-name="Trazado 1043220" d="M162.149,135.109A12.531,12.531,0,1,0,174.68,147.64,12.531,12.531,0,0,0,162.149,135.109Z" transform="translate(-149.618 -135.109)" fill="#ffe17d"/>
      </g>
      <g id="Grupo_1182659" data-name="Grupo 1182659" transform="translate(32.912 17.824)">
        <path id="Trazado_1043221" data-name="Trazado 1043221" d="M249.717,135.24a18.518,18.518,0,0,0,11.514,15.487,12.539,12.539,0,0,0-11.514-15.487Z" transform="translate(-249.717 -135.24)" fill="#ffd164"/>
      </g>
      <g id="Grupo_1182660" data-name="Grupo 1182660" transform="translate(19.719 17.807)">
        <path id="Trazado_1043222" data-name="Trazado 1043222" d="M152.351,147.64a12.532,12.532,0,0,1,11.165-12.457,12.67,12.67,0,0,0-1.366-.074,12.531,12.531,0,0,0,0,25.062,12.667,12.667,0,0,0,1.366-.074,12.533,12.533,0,0,1-11.165-12.457Z" transform="translate(-149.619 -135.109)" fill="#ffd164"/>
      </g>
      <g id="Grupo_1182661" data-name="Grupo 1182661" transform="translate(19.719 42.791)">
        <path id="Trazado_1043223" data-name="Trazado 1043223" d="M173.363,331.378H150.937a1.318,1.318,0,0,1-1.318-1.318v-4.069a1.318,1.318,0,0,1,1.318-1.318h22.426a1.318,1.318,0,0,1,1.318,1.318v4.069A1.318,1.318,0,0,1,173.363,331.378Z" transform="translate(-149.619 -324.673)" fill="#ffe17d"/>
      </g>
      <g id="Grupo_1182662" data-name="Grupo 1182662" transform="translate(19.719 42.791)">
        <path id="Trazado_1043224" data-name="Trazado 1043224" d="M173.363,324.673H150.937a1.318,1.318,0,0,0-1.318,1.318v2.081a1.318,1.318,0,0,1,1.318-1.318h22.426a1.318,1.318,0,0,1,1.318,1.318v-2.081A1.318,1.318,0,0,0,173.363,324.673Z" transform="translate(-149.619 -324.673)" fill="#ffd164"/>
      </g>
      <g id="Grupo_1182663" data-name="Grupo 1182663" transform="translate(19.719 42.791)">
        <path id="Trazado_1043225" data-name="Trazado 1043225" d="M152.418,330.06v-4.069a1.318,1.318,0,0,1,1.318-1.318h-2.8a1.318,1.318,0,0,0-1.318,1.318v4.069a1.318,1.318,0,0,0,1.318,1.318h2.8A1.318,1.318,0,0,1,152.418,330.06Z" transform="translate(-149.619 -324.673)" fill="#ffd164"/>
      </g>
      <g id="Grupo_1182664" data-name="Grupo 1182664" transform="translate(19.719 49.496)">
        <path id="Trazado_1043226" data-name="Trazado 1043226" d="M173.363,382.249H150.937a1.318,1.318,0,0,1-1.318-1.318v-4.069a1.318,1.318,0,0,1,1.318-1.318h22.426a1.318,1.318,0,0,1,1.318,1.318v4.069A1.318,1.318,0,0,1,173.363,382.249Z" transform="translate(-149.619 -375.544)" fill="#ffe17d"/>
      </g>
      <g id="Grupo_1182665" data-name="Grupo 1182665" transform="translate(19.719 49.496)">
        <path id="Trazado_1043227" data-name="Trazado 1043227" d="M173.363,375.544H150.937a1.318,1.318,0,0,0-1.318,1.318v2.081a1.318,1.318,0,0,1,1.318-1.318h22.426a1.318,1.318,0,0,1,1.318,1.318v-2.081A1.318,1.318,0,0,0,173.363,375.544Z" transform="translate(-149.619 -375.544)" fill="#ffd164"/>
      </g>
      <g id="Grupo_1182666" data-name="Grupo 1182666" transform="translate(19.719 49.496)">
        <path id="Trazado_1043228" data-name="Trazado 1043228" d="M152.418,380.931v-4.069a1.318,1.318,0,0,1,1.318-1.318h-2.8a1.318,1.318,0,0,0-1.318,1.318v4.069a1.318,1.318,0,0,0,1.318,1.318h2.8A1.318,1.318,0,0,1,152.418,380.931Z" transform="translate(-149.619 -375.544)" fill="#ffd164"/>
      </g>
      <g id="Grupo_1182667" data-name="Grupo 1182667" transform="translate(19.719 56.201)">
        <path id="Trazado_1043229" data-name="Trazado 1043229" d="M173.363,433.12H150.937a1.318,1.318,0,0,1-1.318-1.318v-4.069a1.318,1.318,0,0,1,1.318-1.318h22.426a1.318,1.318,0,0,1,1.318,1.318V431.8A1.318,1.318,0,0,1,173.363,433.12Z" transform="translate(-149.619 -426.415)" fill="#ffe17d"/>
      </g>
      <g id="Grupo_1182668" data-name="Grupo 1182668" transform="translate(19.719 56.201)">
        <path id="Trazado_1043230" data-name="Trazado 1043230" d="M173.363,426.415H150.937a1.318,1.318,0,0,0-1.318,1.318v2.081a1.318,1.318,0,0,1,1.318-1.318h22.426a1.318,1.318,0,0,1,1.318,1.318v-2.081A1.318,1.318,0,0,0,173.363,426.415Z" transform="translate(-149.619 -426.415)" fill="#ffd164"/>
      </g>
      <g id="Grupo_1182669" data-name="Grupo 1182669" transform="translate(19.719 56.201)">
        <path id="Trazado_1043231" data-name="Trazado 1043231" d="M152.418,431.8v-4.069a1.318,1.318,0,0,1,1.318-1.318h-2.8a1.318,1.318,0,0,0-1.318,1.318V431.8a1.318,1.318,0,0,0,1.318,1.318h2.8A1.318,1.318,0,0,1,152.418,431.8Z" transform="translate(-149.619 -426.415)" fill="#ffd164"/>
      </g>
      <g id="Grupo_1182670" data-name="Grupo 1182670" transform="translate(13.563 53.776)">
        <path id="Trazado_1043232" data-name="Trazado 1043232" d="M137.632,415.425H126.543a2.494,2.494,0,1,0,0-4.987h-4.1a8.974,8.974,0,0,1-3.237-.6l-3.139-1.214a8.972,8.972,0,0,0-3.237-.6h-9.916v12.716h34.721a2.654,2.654,0,0,0,0-5.307Z" transform="translate(-102.911 -408.016)" fill="#ffcebf"/>
      </g>
      <g id="Grupo_1182671" data-name="Grupo 1182671" transform="translate(13.563 62.572)">
        <path id="Trazado_1043233" data-name="Trazado 1043233" d="M137.632,476.146H102.911v2.533h34.721a2.654,2.654,0,0,0,2.332-3.92A2.653,2.653,0,0,1,137.632,476.146Z" transform="translate(-102.911 -474.759)" fill="#ffb09e"/>
      </g>
      <g id="Grupo_1182672" data-name="Grupo 1182672" transform="translate(6.922 51.243)">
        <path id="Trazado_1043234" data-name="Trazado 1043234" d="M61.174,390.117V402.73a1.318,1.318,0,0,1-1.318,1.318H52.52V388.8h7.337A1.318,1.318,0,0,1,61.174,390.117Z" transform="translate(-52.52 -388.799)" fill="#f1f6f7"/>
      </g>
      <g id="Grupo_1182673" data-name="Grupo 1182673" transform="translate(0.989 51.243)">
        <path id="Trazado_1043235" data-name="Trazado 1043235" d="M15.142,388.8v15.249H8.159a.659.659,0,0,1-.659-.659V389.458a.659.659,0,0,1,.659-.659Z" transform="translate(-7.5 -388.799)" fill="#7398d4"/>
      </g>
      <g id="Grupo_1182674" data-name="Grupo 1182674" transform="translate(0.989 51.243)">
        <path id="Trazado_1043236" data-name="Trazado 1043236" d="M10.84,388.8v15.249H8.159a.659.659,0,0,1-.659-.659V389.458a.659.659,0,0,1,.659-.659Z" transform="translate(-7.5 -388.799)" fill="#4377c4"/>
      </g>
      <g id="Grupo_1182675" data-name="Grupo 1182675" transform="translate(36.132 0.989)">
        <path id="Trazado_1043237" data-name="Trazado 1043237" d="M289.328,37.861a15.18,15.18,0,1,1,15.18-15.18A15.18,15.18,0,0,1,289.328,37.861Z" transform="translate(-274.148 -7.501)" fill="#dc4955"/>
      </g>
      <g id="Grupo_1182676" data-name="Grupo 1182676" transform="translate(36.132 0.988)">
        <path id="Trazado_1043238" data-name="Trazado 1043238" d="M278.7,22.679a15.183,15.183,0,0,1,12.9-15.01,15.181,15.181,0,1,0-2.277,30.19,15.3,15.3,0,0,0,2.277-.17,15.183,15.183,0,0,1-12.9-15.01Z" transform="translate(-274.147 -7.499)" fill="#c42430"/>
      </g>
      <g id="Grupo_1182677" data-name="Grupo 1182677" transform="translate(40.687 5.543)">
        <path id="Trazado_1043239" data-name="Trazado 1043239" d="M319.333,42.06a10.625,10.625,0,1,0,10.625,10.625A10.625,10.625,0,0,0,319.333,42.06Z" transform="translate(-308.708 -42.06)" fill="#fff9df"/>
      </g>
      <g id="Grupo_1182678" data-name="Grupo 1182678" transform="translate(40.687 5.543)">
        <path id="Trazado_1043240" data-name="Trazado 1043240" d="M311.485,52.685a10.625,10.625,0,0,1,9.236-10.532,10.625,10.625,0,1,0,0,21.063A10.625,10.625,0,0,1,311.485,52.685Z" transform="translate(-308.707 -42.06)" fill="#fff0af"/>
      </g>
      <g id="Grupo_1182679" data-name="Grupo 1182679" transform="translate(0 0)">
        <path id="Trazado_1043241" data-name="Trazado 1043241" d="M221.114,170.05a1.6,1.6,0,0,1,1.6,1.6.988.988,0,1,0,1.977,0,3.586,3.586,0,0,0-2.592-3.44v-1.475a.988.988,0,0,0-1.977,0v1.475a3.58,3.58,0,0,0,.988,7.02c.027,0,.055,0,.082,0a1.6,1.6,0,1,1-1.685,1.6.988.988,0,0,0-1.977,0,3.586,3.586,0,0,0,2.592,3.44v1.475a.988.988,0,1,0,1.977,0v-1.475a3.58,3.58,0,0,0-.988-7.02c-.027,0-.055,0-.082,0a1.6,1.6,0,0,1,.082-3.2Z" transform="translate(-188.864 -143.904)"/>
        <path id="Trazado_1043242" data-name="Trazado 1043242" d="M312.821,34.56a11.614,11.614,0,1,0,11.613,11.613A11.627,11.627,0,0,0,312.821,34.56Zm0,21.25a9.637,9.637,0,1,1,9.637-9.637A9.647,9.647,0,0,1,312.821,55.81Z" transform="translate(-261.509 -30.005)"/>
        <path id="Trazado_1043243" data-name="Trazado 1043243" d="M51.312,32.337A16.171,16.171,0,0,0,64.765,7.2a.988.988,0,0,0-1.644,1.1,14.2,14.2,0,1,1-2.582-2.91.988.988,0,0,0,1.286-1.5A16.169,16.169,0,0,0,35.143,16.169c0,.325.011.648.03.969A13.516,13.516,0,0,0,25.1,41.8h-4.06a2.309,2.309,0,0,0-2.306,2.306v4.069a2.292,2.292,0,0,0,.417,1.319,2.286,2.286,0,0,0-.417,1.317v1.973H16.565v-.226a2.309,2.309,0,0,0-2.306-2.306H1.648A1.649,1.649,0,0,0,0,51.9V65.833A1.649,1.649,0,0,0,1.648,67.48H48.284a3.642,3.642,0,0,0,0-7.284H45.77V57.518a2.284,2.284,0,0,0-.417-1.317,2.292,2.292,0,0,0,.417-1.319V50.814a2.284,2.284,0,0,0-.417-1.317,2.292,2.292,0,0,0,.417-1.319V44.109A2.309,2.309,0,0,0,43.464,41.8H39.408a13.508,13.508,0,0,0,5.6-6.976.988.988,0,1,0-1.865-.656A11.562,11.562,0,0,1,33.588,41.8H30.911A11.543,11.543,0,1,1,35.438,19.24a16.2,16.2,0,0,0,15.875,13.1ZM7.642,65.5H1.977V52.231H7.642Zm13.066-14.69a.33.33,0,0,1,.329-.329H43.464a.33.33,0,0,1,.329.329v4.069a.33.33,0,0,1-.329.329l-10.371,0a7.954,7.954,0,0,1-2.88-.538l-3.139-1.214a9.923,9.923,0,0,0-3.593-.671H20.708V50.814Zm-6.12,1.747V65.174a.33.33,0,0,1-.329.329H9.619V52.231h4.64A.33.33,0,0,1,14.588,52.561ZM49.949,63.838A1.667,1.667,0,0,1,48.284,65.5H16.539a2.3,2.3,0,0,0,.026-.329V54.764H23.48a7.954,7.954,0,0,1,2.88.538L29.5,56.516a9.923,9.923,0,0,0,3.593.671h2.277v0h1.882A1.5,1.5,0,0,1,37.2,60.2H31.418a.988.988,0,0,0,0,1.977H48.284A1.667,1.667,0,0,1,49.949,63.838ZM40.335,60.2a3.478,3.478,0,0,0,0-3.007h3.127a.33.33,0,0,1,.329.329V60.2Zm3.458-16.087v4.069a.33.33,0,0,1-.329.329H21.037a.33.33,0,0,1-.329-.329V44.109a.33.33,0,0,1,.329-.329H43.464A.33.33,0,0,1,43.793,44.109Z" transform="translate(0 0)"/>
        <path id="Trazado_1043244" data-name="Trazado 1043244" d="M383.8,94.712V91.948a.988.988,0,1,0-1.977,0V95.14a.989.989,0,0,0,.312.721L383.88,97.5a.988.988,0,1,0,1.353-1.441Z" transform="translate(-331.5 -78.972)"/>
        <path id="Trazado_1043245" data-name="Trazado 1043245" d="M382.808,62.274a.988.988,0,1,0-.988-.988A.988.988,0,0,0,382.808,62.274Z" transform="translate(-331.497 -52.351)"/>
        <path id="Trazado_1043246" data-name="Trazado 1043246" d="M382.808,170.063a.988.988,0,1,0,.988.988A.988.988,0,0,0,382.808,170.063Z" transform="translate(-331.497 -147.649)"/>
        <path id="Trazado_1043247" data-name="Trazado 1043247" d="M420.917,76.662a.988.988,0,1,0,1.4,0A.988.988,0,0,0,420.917,76.662Z" transform="translate(-365.19 -66.307)"/>
        <path id="Trazado_1043248" data-name="Trazado 1043248" d="M344.7,154.278a.988.988,0,1,0,0,1.4A.988.988,0,0,0,344.7,154.278Z" transform="translate(-297.804 -133.693)"/>
        <circle id="Elipse_11872" data-name="Elipse 11872" cx="0.988" cy="0.988" r="0.988" transform="translate(57.556 15.181)"/>
        <path id="Trazado_1043249" data-name="Trazado 1043249" d="M327.925,115.181a.988.988,0,1,0,.988.988A.988.988,0,0,0,327.925,115.181Z" transform="translate(-283.847 -100)"/>
        <circle id="Elipse_11873" data-name="Elipse 11873" cx="0.988" cy="0.988" r="0.988" transform="translate(55.438 20.295)"/>
        <path id="Trazado_1043250" data-name="Trazado 1043250" d="M344.7,76.662a.988.988,0,1,0,0,1.4A.988.988,0,0,0,344.7,76.662Z" transform="translate(-297.804 -66.307)"/>
      </g>
    </g>
  </g>
</svg>
