<svg xmlns="http://www.w3.org/2000/svg" xmlns:xlink="http://www.w3.org/1999/xlink" width="108" height="108" viewBox="0 0 108 108">
  <defs>
    <filter id="Trazado_904820" x="0" y="0" width="108" height="108" filterUnits="userSpaceOnUse">
      <feOffset dy="3" input="SourceAlpha"/>
      <feGaussianBlur stdDeviation="3" result="blur"/>
      <feFlood flood-opacity="0.161"/>
      <feComposite operator="in" in2="blur"/>
      <feComposite in="SourceGraphic"/>
    </filter>
  </defs>
  <g id="Grupo_1182598" data-name="Grupo 1182598" transform="translate(-165.751 -1414)">
    <g id="Grupo_1182305" data-name="Grupo 1182305" transform="translate(174.751 1420)">
      <g id="Grupo_1172093" data-name="Grupo 1172093">
        <g id="Grupo_1171910" data-name="Grupo 1171910" transform="translate(0)">
          <g id="Grupo_1167341" data-name="Grupo 1167341">
            <g id="Grupo_1166792" data-name="Grupo 1166792">
              <g transform="matrix(1, 0, 0, 1, -9, -6)" filter="url(#Trazado_904820)">
                <g id="Trazado_904820-2" data-name="Trazado 904820" transform="translate(9 6)" fill="#fbfbf9">
                  <path d="M 44.99999618530273 88.50003051757812 C 39.12687301635742 88.50003051757812 33.43022155761719 87.35010528564453 28.06829643249512 85.08219909667969 C 22.88852119445801 82.89134216308594 18.23629570007324 79.75461578369141 14.24084663391113 75.75916290283203 C 10.24540901184082 71.76371765136719 7.108683586120605 67.11150360107422 4.917821407318115 61.93172836303711 C 2.649921178817749 56.56978988647461 1.499996185302734 50.87313842773438 1.499996185302734 45.00001525878906 C 1.499996185302734 39.12689208984375 2.649921178817749 33.43024063110352 4.917821407318115 28.06831550598145 C 7.108683586120605 22.88854026794434 10.24540901184082 18.23631477355957 14.24084663391113 14.24086570739746 C 18.23629570007324 10.24541568756104 22.88852119445801 7.10869026184082 28.06829643249512 4.917840480804443 C 33.43022155761719 2.649927854537964 39.12687301635742 1.50000274181366 44.99999618530273 1.50000274181366 C 50.87311935424805 1.50000274181366 56.56977081298828 2.649927854537964 61.93169784545898 4.917840480804443 C 67.11147308349609 7.10869026184082 71.76369476318359 10.24541568756104 75.75914764404297 14.24086570739746 C 79.75458526611328 18.23631477355957 82.89131164550781 22.88854026794434 85.08216857910156 28.06831550598145 C 87.35007476806641 33.43024063110352 88.5 39.12689208984375 88.5 45.00001525878906 C 88.5 50.87313842773438 87.35007476806641 56.56978988647461 85.08216857910156 61.93172836303711 C 82.89131164550781 67.11150360107422 79.75458526611328 71.76371765136719 75.75914764404297 75.75916290283203 C 71.76369476318359 79.75461578369141 67.11147308349609 82.89134216308594 61.93169784545898 85.08219909667969 C 56.56977081298828 87.35010528564453 50.87311935424805 88.50003051757812 44.99999618530273 88.50003051757812 Z" stroke="none"/>
                  <path d="M 44.99999618530273 3 C 39.32870864868164 3 33.82865142822266 4.110061645507812 28.65262603759766 6.299346923828125 C 23.65165710449219 8.414573669433594 19.15968322753906 11.44334411621094 15.301513671875 15.301513671875 C 11.44333648681641 19.15968322753906 8.414566040039062 23.65165710449219 6.299339294433594 28.65262985229492 C 4.110054016113281 33.82867050170898 2.999992370605469 39.32872772216797 2.999992370605469 45.00001525878906 C 2.999992370605469 50.67130279541016 4.110054016113281 56.17136001586914 6.299339294433594 61.34738922119141 C 8.414566040039062 66.34837341308594 11.44333648681641 70.84033203125 15.301513671875 74.69850158691406 C 19.15968322753906 78.55668640136719 23.65165710449219 81.58545684814453 28.65262603759766 83.70068359375 C 33.82865142822266 85.88996887207031 39.32870864868164 87.00003051757812 44.99999618530273 87.00003051757812 C 50.67128372192383 87.00003051757812 56.17134094238281 85.88996887207031 61.34736633300781 83.70068359375 C 66.34834289550781 81.58545684814453 70.84030914306641 78.55668640136719 74.69847869873047 74.69850158691406 C 78.55665588378906 70.84033203125 81.58542633056641 66.34837341308594 83.70065307617188 61.34738922119141 C 85.88993835449219 56.17136001586914 87 50.67130279541016 87 45.00001525878906 C 87 39.32872772216797 85.88993835449219 33.82867050170898 83.70065307617188 28.65262985229492 C 81.58542633056641 23.65165710449219 78.55665588378906 19.15968322753906 74.69847869873047 15.301513671875 C 70.84030914306641 11.44334411621094 66.34834289550781 8.414573669433594 61.34736633300781 6.299346923828125 C 56.17134094238281 4.110061645507812 50.67128372192383 3 44.99999618530273 3 M 44.99999618530273 0 C 69.85281372070312 0 90 20.14718627929688 90 45.00001525878906 C 90 69.85282897949219 69.85281372070312 90.00003051757812 44.99999618530273 90.00003051757812 C 20.14717864990234 90.00003051757812 -7.62939453125e-06 69.85282897949219 -7.62939453125e-06 45.00001525878906 C -7.62939453125e-06 20.14718627929688 20.14717864990234 0 44.99999618530273 0 Z" stroke="none" fill="#7b776f"/>
                </g>
              </g>
            </g>
          </g>
        </g>
      </g>
    </g>
    <g id="gestion-financiera" transform="translate(183.433 1435.989)">
      <g id="Grupo_1182597" data-name="Grupo 1182597" transform="translate(10.195 1.887)">
        <g id="Grupo_1182595" data-name="Grupo 1182595" transform="translate(0 33.314)">
          <path id="Trazado_1043127" data-name="Trazado 1043127" d="M44.859,316.031V329.92a22.4,22.4,0,0,1,2.744-1.086,7.4,7.4,0,0,1,2.839-.425,6.8,6.8,0,0,1,2.925.865l0,0,6.615,3.5a6.24,6.24,0,0,0,4.7.619l20.351-5.453a3.418,3.418,0,0,0-1.769-6.6l-14.173,3.8.052-.086a3.8,3.8,0,0,0-1.364-5.171l-11.407-6.646a5.983,5.983,0,0,0-4.74,0Z" transform="translate(-41.838 -312.745)" fill="#ffd6bd" fill-rule="evenodd"/>
          <path id="Trazado_1043128" data-name="Trazado 1043128" d="M162.3,391.442a3.8,3.8,0,0,0,4.657-.675,3.751,3.751,0,0,1-.353.813,3.791,3.791,0,0,1-5.171,1.364c-2.22-1.3-4.449-2.569-6.676-3.854a.87.87,0,1,1,.87-1.507C157.848,388.865,160.068,390.144,162.3,391.442Z" transform="translate(-139.295 -379.271)" fill="#f9c6aa" fill-rule="evenodd"/>
          <path id="Trazado_1043129" data-name="Trazado 1043129" d="M21.958,313.733v16.978a.755.755,0,0,1-.753.753H18.067a.755.755,0,0,1-.753-.753V313.733a.755.755,0,0,1,.753-.753H21.2A.755.755,0,0,1,21.958,313.733Z" transform="translate(-17.314 -312.954)" fill="#64b5f6" fill-rule="evenodd"/>
        </g>
        <g id="Grupo_1182596" data-name="Grupo 1182596" transform="translate(14.633)">
          <path id="Trazado_1043130" data-name="Trazado 1043130" d="M166.441,9h6.3v3.159a15.924,15.924,0,0,1,5.73,2.375L180.7,12.3l4.451,4.452-2.235,2.235a15.925,15.925,0,0,1,2.375,5.73h3.159v6.3h-3.159a15.924,15.924,0,0,1-2.375,5.73l2.235,2.234L180.7,43.424l-2.234-2.234a15.924,15.924,0,0,1-5.73,2.375v3.159h-6.3V43.565a15.925,15.925,0,0,1-5.73-2.375l-2.234,2.234-4.451-4.452,2.234-2.234a15.922,15.922,0,0,1-2.375-5.73h-3.159v-6.3h3.159a15.924,15.924,0,0,1,2.375-5.73l-2.234-2.235,4.452-4.451,2.235,2.234a15.923,15.923,0,0,1,5.73-2.375V9Z" transform="translate(-150.727 -8.999)" fill="#8d9ca8" fill-rule="evenodd"/>
          <circle id="Elipse_11870" data-name="Elipse 11870" cx="11.434" cy="11.434" r="11.434" transform="translate(2.689 18.864) rotate(-45)" fill="#ffda2d"/>
          <ellipse id="Elipse_11871" data-name="Elipse 11871" cx="8.337" cy="8.337" rx="8.337" ry="8.337" transform="translate(10.24 26.926) rotate(-88.108)" fill="#fdb800"/>
        </g>
      </g>
      <path id="Trazado_1043131" data-name="Trazado 1043131" d="M46.554,22.538a2.669,2.669,0,0,1-1.986,2.576v.381a.878.878,0,0,1-1.755,0V25.15a2.68,2.68,0,0,1-1.645-1.055.878.878,0,1,1,1.423-1.028.914.914,0,0,0,.737.381h.563a.909.909,0,0,0,0-1.819h-.4a2.664,2.664,0,0,1-.678-5.24v-.381a.878.878,0,0,1,1.755,0v.345a2.678,2.678,0,0,1,1.644,1.056.877.877,0,1,1-1.422,1.028.915.915,0,0,0-.738-.379h-.561a.909.909,0,1,0,0,1.817h.4A2.668,2.668,0,0,1,46.554,22.538ZM43.69,28.21a7.459,7.459,0,1,0-7.461-7.459A7.467,7.467,0,0,0,43.69,28.21Zm0-16.673A9.214,9.214,0,1,0,52.9,20.751a9.225,9.225,0,0,0-9.214-9.214Zm0,19.77A10.556,10.556,0,1,0,33.134,20.751,10.568,10.568,0,0,0,43.69,31.307Zm0-22.868A12.312,12.312,0,1,0,56,20.751,12.325,12.325,0,0,0,43.69,8.439Zm9.476,41.117L32.815,55.009a5.381,5.381,0,0,1-4.062-.546l-6.615-3.5a7.668,7.668,0,0,0-6.422-.509V38.406L20.327,36.5a5.075,5.075,0,0,1,4.016-.018L35.7,43.1a2.9,2.9,0,0,1-2.924,5.018L26.68,44.568a.877.877,0,1,0-.883,1.516l6.093,3.551a4.62,4.62,0,0,0,2.33.632,4.71,4.71,0,0,0,1.2-.157,4.628,4.628,0,0,0,2.572-1.748l13.857-3.713a2.541,2.541,0,1,1,1.315,4.909ZM11.073,52.835V36.107h2.889V52.835Zm43.582-9.45a4.267,4.267,0,0,0-3.257-.432L38.838,46.317a4.683,4.683,0,0,0-2.257-4.735L25.175,34.936a1,1,0,0,0-.106-.053,6.844,6.844,0,0,0-5.411,0l-3.941,1.627v-.525a1.633,1.633,0,0,0-1.631-1.63H10.948a1.632,1.632,0,0,0-1.63,1.63V52.96a1.632,1.632,0,0,0,1.63,1.63h3.138a1.633,1.633,0,0,0,1.631-1.63v-.641a6.129,6.129,0,0,1,5.6.191l6.615,3.5a7.514,7.514,0,0,0,3.539.931,6.952,6.952,0,0,0,1.8-.24L53.62,51.251a4.293,4.293,0,0,0,1.035-7.867Zm7.019-20.364V18.48H59.393a.877.877,0,0,1-.86-.705,14.988,14.988,0,0,0-2.244-5.415.874.874,0,0,1,.11-1.106l1.613-1.614L54.8,6.429,53.187,8.043a.876.876,0,0,1-1.107.11,14.987,14.987,0,0,0-5.415-2.244.878.878,0,0,1-.706-.861V2.766H41.42V5.047a.879.879,0,0,1-.707.861A14.968,14.968,0,0,0,35.3,8.152a.88.88,0,0,1-1.108-.11L32.577,6.429l-3.21,3.21,1.614,1.614a.876.876,0,0,1,.109,1.106,14.985,14.985,0,0,0-2.244,5.415.876.876,0,0,1-.86.705H25.705v4.541h2.281a.876.876,0,0,1,.86.706,14.988,14.988,0,0,0,2.244,5.414.878.878,0,0,1-.109,1.108l-1.614,1.613,3.21,3.211,1.614-1.614a.879.879,0,0,1,1.108-.109,15,15,0,0,0,5.413,2.244.878.878,0,0,1,.707.86v2.281h4.54V36.455a.877.877,0,0,1,.706-.86,14.989,14.989,0,0,0,5.415-2.245.877.877,0,0,1,1.107.11L54.8,35.074l3.21-3.211L56.4,30.249a.876.876,0,0,1-.11-1.108,14.985,14.985,0,0,0,2.244-5.414.876.876,0,0,1,.86-.706h2.281Zm.877-6.3H60.1A16.7,16.7,0,0,0,58.137,12l1.737-1.736a.878.878,0,0,0,0-1.242L55.423,4.567a.879.879,0,0,0-1.242,0L52.445,6.3a16.736,16.736,0,0,0-4.73-1.961V1.888a.879.879,0,0,0-.878-.877H40.543a.878.878,0,0,0-.878.877V4.343A16.723,16.723,0,0,0,34.935,6.3L33.2,4.567a.877.877,0,0,0-1.24,0L27.506,9.018a.878.878,0,0,0,0,1.241L29.243,12a16.714,16.714,0,0,0-1.96,4.73H24.828a.878.878,0,0,0-.878.877v6.3a.878.878,0,0,0,.878.877h2.454a16.715,16.715,0,0,0,1.96,4.731l-1.737,1.736a.878.878,0,0,0,0,1.24l4.452,4.452a.878.878,0,0,0,1.24,0L34.935,35.2a16.729,16.729,0,0,0,4.73,1.96v2.455a.877.877,0,0,0,.878.877h6.295a.878.878,0,0,0,.878-.877V37.159a16.694,16.694,0,0,0,4.73-1.961l1.736,1.737a.879.879,0,0,0,1.241,0l4.451-4.452a.875.875,0,0,0,0-1.24l-1.737-1.737a16.683,16.683,0,0,0,1.961-4.73h2.454a.877.877,0,0,0,.878-.877V17.6a.878.878,0,0,0-.878-.877Z" transform="translate(0 0)" fill-rule="evenodd"/>
    </g>
  </g>
</svg>
