<svg xmlns="http://www.w3.org/2000/svg" xmlns:xlink="http://www.w3.org/1999/xlink" width="190" height="187" viewBox="0 0 190 187">
  <defs>
    <clipPath id="clip-path">
      <rect id="Rectángulo_415637" data-name="Rectángulo 415637" width="190" height="187" transform="translate(180 3227)" fill="#fff" stroke="#707070" stroke-width="1" opacity="0.83"/>
    </clipPath>
  </defs>
  <g id="Enmascarar_grupo_1098825" data-name="Enmascarar grupo 1098825" transform="translate(-180 -3227)" clip-path="url(#clip-path)">
    <g id="Grupo_1182518" data-name="Grupo 1182518" transform="translate(1756.854 353.75)">
      <path id="Trazado_1042854" data-name="Trazado 1042854" d="M541.269,1402.268a34.623,34.623,0,0,0-2.134,2.794c-10.338,15.027-14.65,43.348-25.844,50.489-11.932,7.612-26.95-1.028-29.83-17.487l16.047-15.1s5.238,11.876,8.641,6.875c2.73-4.011,17.692-24.906,23.453-32.942l2.263-3.155Z" transform="translate(-1956.856 1576.585)" fill="#ffaf82"/>
      <path id="Trazado_1042855" data-name="Trazado 1042855" d="M648.283,1363.438s1.954,3.6-6.481,8.024-8.743,5.349-13.269,6.994a34.625,34.625,0,0,0-2.134,2.795l-7.535-8.169c1.406-1.958,2.263-3.155,2.263-3.155a16.626,16.626,0,0,1,2.572-7.415c2.366-3.6,2.983-6.172,4.834-5.658s-.617,5.966,0,6.481,16.972-8.152,19.133-3.716C647.666,1359.619,649.517,1360.764,648.283,1363.438Z" transform="translate(-2044.121 1600.399)" fill="#ffaf82"/>
      <path id="Trazado_1042856" data-name="Trazado 1042856" d="M482.9,1411.162s-9.065,13.912-22.205,20.941a34.854,34.854,0,0,1-8,3.142v0c-.227-.446-12.982-25.938-6.643-70.483l3.75.844,2.777.626s12.215,3.583,15.507,14.9S482.9,1411.162,482.9,1411.162Z" transform="translate(-1931.614 1595.263)" fill="#39ad98"/>
      <path id="Trazado_1042857" data-name="Trazado 1042857" d="M655.312,1370a.643.643,0,0,1-.268-1.228c6.034-2.761,15.407-5.771,15.5-5.8a.643.643,0,1,1,.392,1.224c-.093.03-9.394,3.016-15.358,5.746A.631.631,0,0,1,655.312,1370Z" transform="translate(-2067.196 1596.433)" fill="#fe976a"/>
      <path id="Trazado_1042858" data-name="Trazado 1042858" d="M353.2,1426.038a103.82,103.82,0,0,0,.261,10.565H289.9v-78.056l2.456-.583.4-.094,2.07-.489.823-.193,8.306-1.963,5.28-1.247,1.924-.454,7.046-1.667,5.837-1.38,6.3,1.423,6.082,1.367,2.811.634,5.285,1.191,2.027.459,3.759.844,2.769.626s-3.009,8.315,0,22.2c1.466,6.776,2.477,11.2,2.8,15.858.347,4.886-.064,10.025-1.487,18.4a89.677,89.677,0,0,0-1.2,12.558Z" transform="translate(-1832.111 1604.467)" fill="#39ad98"/>
      <path id="Trazado_1042859" data-name="Trazado 1042859" d="M352.295,1488.192H288.734a.643.643,0,0,1,0-1.286H351.6c-.229-3.305-.3-6.645-.213-9.939a90.308,90.308,0,0,1,1.2-12.653c1.409-8.288,1.823-13.4,1.48-18.243-.3-4.286-1.168-8.306-2.487-14.391l-.3-1.377a.643.643,0,0,1,1.257-.272l.3,1.376c1.331,6.14,2.211,10.2,2.514,14.573.352,4.95-.068,10.151-1.495,18.547A89.035,89.035,0,0,0,352.676,1477a102.982,102.982,0,0,0,.26,10.5.644.644,0,0,1-.641.692Z" transform="translate(-1830.946 1553.523)" fill="#6a2810"/>
      <path id="Trazado_1042860" data-name="Trazado 1042860" d="M396.015,1368.619c-3.287,1.479-8.9-.909-8.383-5.435,0,0,2.306-6.3,5.683-8.7l6.082,1.367C401.4,1359.408,400.9,1366.426,396.015,1368.619Z" transform="translate(-1895.076 1601.887)" fill="#fff"/>
      <path id="Trazado_1042861" data-name="Trazado 1042861" d="M352.135,1368.036c-4.556-2.044-5.3-8.285-3.755-12l7.046-1.667c3.056,2.657,5.092,8.238,5.092,8.238C361.033,1367.126,355.422,1369.508,352.135,1368.036Z" transform="translate(-1869.33 1601.962)" fill="#fff"/>
      <path id="Trazado_1042862" data-name="Trazado 1042862" d="M314.093,1537.6l-3.622,10.685s-1.222.133-3.339.356c-12,1.243-52.794,5.242-63.809,3.142-6.073-1.157-8.4-4.8-9.048-9.571-.733-5.413.682-12.275,1.23-18.614,0,0,23.658-.617,24.366,5.76a4.144,4.144,0,0,0,2.3,2.9c6.365,3.862,24.447,4.642,36.491,4.3a96.718,96.718,0,0,1,11.808.2C313.8,1537.086,314.093,1537.6,314.093,1537.6Z" transform="translate(-1796.13 1492.907)" fill="#ffaf82"/>
      <path id="Trazado_1042863" data-name="Trazado 1042863" d="M442.39,1590.273c-2.314,1.7-3.857.463-3.857.463-3.395,1.234-3.433-1.234-3.433-1.234-3.433.926-3.664-2.006-3.664-2.006-2.314-.154-1.852-3.086,1.989-6.789a11.164,11.164,0,0,0,3.339-8.538s-1.222.133-3.339.355l3.339-11.885c3.33.33,3.622.844,3.622.844a11.982,11.982,0,0,1,7.561,10.685C448.408,1580.449,444.7,1588.573,442.39,1590.273Z" transform="translate(-1922.422 1469.023)" fill="#ffaf82"/>
      <path id="Trazado_1042864" data-name="Trazado 1042864" d="M432.819,1620.275a.643.643,0,0,1-.288-1.219c.053-.027,3.919-2.035,7.295-8.219a.643.643,0,0,1,1.129.616c-3.593,6.582-7.678,8.668-7.85,8.754A.635.635,0,0,1,432.819,1620.275Z" transform="translate(-1923.805 1436.887)" fill="#fe976a"/>
      <path id="Trazado_1042865" data-name="Trazado 1042865" d="M443.127,1622.281a.643.643,0,0,1-.386-1.157,17.922,17.922,0,0,0,6.131-10.094.643.643,0,0,1,1.265.233,18.9,18.9,0,0,1-6.625,10.89A.648.648,0,0,1,443.127,1622.281Z" transform="translate(-1930.448 1436.886)" fill="#fe976a"/>
      <path id="Trazado_1042866" data-name="Trazado 1042866" d="M452.783,1624.959a.643.643,0,0,1-.4-1.149c.052-.042,3.553-2.89,5.015-10.543a.643.643,0,1,1,1.263.241c-1.565,8.194-5.329,11.192-5.489,11.316A.655.655,0,0,1,452.783,1624.959Z" transform="translate(-1936.671 1435.442)" fill="#fe976a"/>
      <path id="Trazado_1042867" data-name="Trazado 1042867" d="M262.174,1532.256c-8.6,5.7-21.858,8.782-27.9,9.956-.733-5.413.682-12.275,1.23-18.614,0,0,23.658-.617,24.366,5.76A4.139,4.139,0,0,0,262.174,1532.256Z" transform="translate(-1796.131 1492.905)" fill="#fe976a"/>
      <path id="Trazado_1042868" data-name="Trazado 1042868" d="M339.575,1210.872c-10.209,5.413-21.417,1.273-29.972,1.007a16.624,16.624,0,0,0-5.345.557,71.093,71.093,0,0,1-19.27,2.5c-7.44-.047-14.911-1.371-19.458-5.148-9.1-7.56-3.549-12.806,2.16-20.058s8.64-18.207,7.715-30.083,10.338-17.594,18.053-11.576l27.619-4.475s8.332,19.6,10.8,31.943S352.09,1204.238,339.575,1210.872Z" transform="translate(-1813.297 1737.795)" fill="#823315"/>
      <path id="Trazado_1042869" data-name="Trazado 1042869" d="M353.62,1292.04a16.631,16.631,0,0,0-5.345.557,71.073,71.073,0,0,1-19.27,2.5c6.245-11.311,8.932-27.117,8.932-27.117s12.344,6.232,14.349,9.108C353.835,1279.3,353.548,1286.178,353.62,1292.04Z" transform="translate(-1857.315 1657.632)" fill="#632411"/>
      <path id="Trazado_1042870" data-name="Trazado 1042870" d="M378.276,1290.529v26.4s-1.195,7.333-9.467,6.768a9.9,9.9,0,0,1-9.4-8.084v-25.087h18.867Z" transform="translate(-1876.909 1643.102)" fill="#ffaf82"/>
      <path id="Trazado_1042871" data-name="Trazado 1042871" d="M378.276,1290.53v24.5c-11.3-.478-16.122-9.827-18.867-18.659v-5.836h18.867Z" transform="translate(-1876.909 1643.101)" fill="#fe976a"/>
      <path id="Trazado_1042872" data-name="Trazado 1042872" d="M371.379,1214.688c-18.961,0-28.009-11.388-29.149-27.1a60.756,60.756,0,0,1,1.839-18.721c6.018-24.533,40.271-11.109,40.271-11.109a53.325,53.325,0,0,1,5.207,14.26C393.735,1190.523,391.343,1214.688,371.379,1214.688Z" transform="translate(-1865.756 1731.035)" fill="#ffaf82"/>
      <path id="Trazado_1042873" data-name="Trazado 1042873" d="M401.348,1291.662c-3.887,0-6.538-3.7-6.572-3.747a.643.643,0,0,1,1.052-.739h0c.15.213,3.735,5.183,8.473,2.3a.643.643,0,1,1,.669,1.1A6.862,6.862,0,0,1,401.348,1291.662Z" transform="translate(-1899.627 1645.439)" fill="#6a2810"/>
      <path id="Trazado_1042874" data-name="Trazado 1042874" d="M382.48,1257.6a4.061,4.061,0,0,1-1.873-.476,3.023,3.023,0,0,1-1.748-2.606,3.424,3.424,0,0,1,1.47-2.941,1.841,1.841,0,0,1,1.884-.116.643.643,0,0,1-.6,1.135.541.541,0,0,0-.6.07,2.143,2.143,0,0,0-.869,1.8,1.742,1.742,0,0,0,1.056,1.518,2.431,2.431,0,0,0,3.009-.417,3.689,3.689,0,0,0,.443-4.369,3.391,3.391,0,0,0-3.277-1.99,3.17,3.17,0,0,0-2.761,2.1.643.643,0,1,1-1.213-.425,4.455,4.455,0,0,1,3.878-2.956,4.678,4.678,0,0,1,4.509,2.67,4.967,4.967,0,0,1-.666,5.876A3.69,3.69,0,0,1,382.48,1257.6Z" transform="translate(-1888.48 1670.566)" fill="#fe976a"/>
      <path id="Trazado_1042875" data-name="Trazado 1042875" d="M459.971,1246.371a4.054,4.054,0,0,1-1.873-.475,3.023,3.023,0,0,1-1.748-2.606,3.424,3.424,0,0,1,1.47-2.941,1.842,1.842,0,0,1,1.884-.116.643.643,0,0,1-.6,1.135.541.541,0,0,0-.6.07,2.142,2.142,0,0,0-.869,1.8,1.743,1.743,0,0,0,1.056,1.518,2.434,2.434,0,0,0,3.009-.417,3.69,3.69,0,0,0,.443-4.369,3.38,3.38,0,0,0-3.277-1.99,3.169,3.169,0,0,0-2.761,2.1.643.643,0,1,1-1.213-.426,4.454,4.454,0,0,1,3.877-2.956,4.677,4.677,0,0,1,4.509,2.669,4.967,4.967,0,0,1-.666,5.877A3.693,3.693,0,0,1,459.971,1246.371Z" transform="translate(-1938.422 1677.803)" fill="#fe976a"/>
      <path id="Trazado_1042876" data-name="Trazado 1042876" d="M434.181,1244.914a.643.643,0,0,1-.365-1.173l5.08-3.5-5.245-7.6a.643.643,0,0,1,1.058-.731l5.611,8.127a.643.643,0,0,1-.165.895l-5.611,3.863A.627.627,0,0,1,434.181,1244.914Z" transform="translate(-1924.683 1681.055)" fill="#6a2810"/>
      <path id="Trazado_1042877" data-name="Trazado 1042877" d="M393.234,1224.865c0,1.729-.7,2.7-1.553,2.7s-1.553-.973-1.553-2.7.7-2.656,1.553-2.656S393.234,1223.137,393.234,1224.865Z" transform="translate(-1896.706 1687.132)" fill="#6a2810"/>
      <path id="Trazado_1042878" data-name="Trazado 1042878" d="M389.547,1172.007a4.1,4.1,0,0,1-.613.48c-12.1,7.728-34.082,3.686-34.082,3.686.42-14.5-7.526-13.84-6.433-8.769,1.067,4.959,1.376,23.221-6.189,20.174a60.753,60.753,0,0,1,1.839-18.721c6.018-24.533,40.271-11.109,40.271-11.109A53.319,53.319,0,0,1,389.547,1172.007Z" transform="translate(-1865.756 1731.038)" fill="#fe976a"/>
      <path id="Trazado_1042879" data-name="Trazado 1042879" d="M384.307,1156.866c5.482-3.5,3.349-21-14.108-24.395s-29.338,8.024-29.338,8.024-11.871,27.125-3.775,31.229,7.8-14.871,6.707-19.942,6.852-5.733,6.435,8.771C350.227,1160.553,372.206,1164.6,384.307,1156.866Z" transform="translate(-1860.701 1745.372)" fill="#823315"/>
      <path id="Trazado_1042880" data-name="Trazado 1042880" d="M251.582,1432.167a45.313,45.313,0,0,1-9.978,2.2c-17.054,1.719-26.642-8.165-26.642-8.165s9.258-39.705,13.784-47.111,15.717-8.7,15.717-8.7l2.07-.489c.48,7.843,1.277,23.813.523,32.436C246.028,1414.064,251.582,1432.167,251.582,1432.167Z" transform="translate(-1783.817 1591.949)" fill="#39ad98"/>
      <path id="Trazado_1042881" data-name="Trazado 1042881" d="M308.361,1490.445a.643.643,0,0,1-.614-.455c-.228-.744-5.579-18.358-4.552-30.075a.643.643,0,1,1,1.281.112c-1.006,11.469,4.445,29.406,4.5,29.586a.643.643,0,0,1-.426.8A.7.7,0,0,1,308.361,1490.445Z" transform="translate(-1840.596 1534.315)" fill="#6a2810"/>
      <path id="Trazado_1042882" data-name="Trazado 1042882" d="M452.312,1217.335c0,1.729-.7,2.7-1.553,2.7s-1.553-.973-1.553-2.7.7-2.656,1.553-2.656S452.312,1215.607,452.312,1217.335Z" transform="translate(-1934.78 1691.985)" fill="#6a2810"/>
      <path id="Trazado_1042883" data-name="Trazado 1042883" d="M326.66,1255.667c-2.649,8.177-17.174,5.793-18.051-3.387-.851-8.906,9.286-12.706,15.944-6.846S326.66,1255.667,326.66,1255.667Z" transform="translate(-1844.137 1673.975)" fill="#ffaf82"/>
      <path id="Trazado_1042884" data-name="Trazado 1042884" d="M326.551,1262.781a.643.643,0,0,1-.517-1.024c.026-.035,2.621-3.627,1.222-6.316a.643.643,0,1,1,1.141-.593c1.77,3.4-1.2,7.5-1.327,7.673A.648.648,0,0,1,326.551,1262.781Z" transform="translate(-1855.318 1666.321)" fill="#fe976a"/>
      <path id="Trazado_1042885" data-name="Trazado 1042885" d="M333.6,1265.985a8.722,8.722,0,0,1-2.77-.4.643.643,0,0,1,.415-1.217,11.475,11.475,0,0,0,5.347-.015.643.643,0,0,1,.311,1.248A15.138,15.138,0,0,1,333.6,1265.985Z" transform="translate(-1858.207 1659.984)" fill="#fe976a"/>
    </g>
  </g>
</svg>
