<svg xmlns="http://www.w3.org/2000/svg" xmlns:xlink="http://www.w3.org/1999/xlink" width="108" height="108" viewBox="0 0 108 108">
  <defs>
    <filter id="Trazado_904820" x="0" y="0" width="108" height="108" filterUnits="userSpaceOnUse">
      <feOffset dy="3" input="SourceAlpha"/>
      <feGaussianBlur stdDeviation="3" result="blur"/>
      <feFlood flood-opacity="0.161"/>
      <feComposite operator="in" in2="blur"/>
      <feComposite in="SourceGraphic"/>
    </filter>
  </defs>
  <g id="Grupo_1182521" data-name="Grupo 1182521" transform="translate(-191 -4759)">
    <g id="Grupo_1182252" data-name="Grupo 1182252" transform="translate(200 4765)">
      <g id="Grupo_1172093" data-name="Grupo 1172093">
        <g id="Grupo_1171910" data-name="Grupo 1171910" transform="translate(0)">
          <g id="Grupo_1167341" data-name="Grupo 1167341">
            <g id="Grupo_1166792" data-name="Grupo 1166792">
              <g transform="matrix(1, 0, 0, 1, -9, -6)" filter="url(#Trazado_904820)">
                <g id="Trazado_904820-2" data-name="Trazado 904820" transform="translate(9 6)" fill="#fff4e6">
                  <path d="M 44.99999618530273 88.50003051757812 C 39.12687301635742 88.50003051757812 33.43022155761719 87.35010528564453 28.06829643249512 85.08219909667969 C 22.88852119445801 82.89134216308594 18.23629570007324 79.75461578369141 14.24084663391113 75.75916290283203 C 10.24540901184082 71.76371765136719 7.108683586120605 67.11150360107422 4.917821407318115 61.93172836303711 C 2.649921178817749 56.56978988647461 1.499996185302734 50.87313842773438 1.499996185302734 45.00001525878906 C 1.499996185302734 39.12689208984375 2.649921178817749 33.43024063110352 4.917821407318115 28.06831550598145 C 7.108683586120605 22.88854026794434 10.24540901184082 18.23631477355957 14.24084663391113 14.24086570739746 C 18.23629570007324 10.24541568756104 22.88852119445801 7.10869026184082 28.06829643249512 4.917840480804443 C 33.43022155761719 2.649927854537964 39.12687301635742 1.50000274181366 44.99999618530273 1.50000274181366 C 50.87311935424805 1.50000274181366 56.56977081298828 2.649927854537964 61.93169784545898 4.917840480804443 C 67.11147308349609 7.10869026184082 71.76369476318359 10.24541568756104 75.75914764404297 14.24086570739746 C 79.75458526611328 18.23631477355957 82.89131164550781 22.88854026794434 85.08216857910156 28.06831550598145 C 87.35007476806641 33.43024063110352 88.5 39.12689208984375 88.5 45.00001525878906 C 88.5 50.87313842773438 87.35007476806641 56.56978988647461 85.08216857910156 61.93172836303711 C 82.89131164550781 67.11150360107422 79.75458526611328 71.76371765136719 75.75914764404297 75.75916290283203 C 71.76369476318359 79.75461578369141 67.11147308349609 82.89134216308594 61.93169784545898 85.08219909667969 C 56.56977081298828 87.35010528564453 50.87311935424805 88.50003051757812 44.99999618530273 88.50003051757812 Z" stroke="none"/>
                  <path d="M 44.99999618530273 3 C 39.32870864868164 3 33.82865142822266 4.110061645507812 28.65262603759766 6.299346923828125 C 23.65165710449219 8.414573669433594 19.15968322753906 11.44334411621094 15.301513671875 15.301513671875 C 11.44333648681641 19.15968322753906 8.414566040039062 23.65165710449219 6.299339294433594 28.65262985229492 C 4.110054016113281 33.82867050170898 2.999992370605469 39.32872772216797 2.999992370605469 45.00001525878906 C 2.999992370605469 50.67130279541016 4.110054016113281 56.17136001586914 6.299339294433594 61.34738922119141 C 8.414566040039062 66.34837341308594 11.44333648681641 70.84033203125 15.301513671875 74.69850158691406 C 19.15968322753906 78.55668640136719 23.65165710449219 81.58545684814453 28.65262603759766 83.70068359375 C 33.82865142822266 85.88996887207031 39.32870864868164 87.00003051757812 44.99999618530273 87.00003051757812 C 50.67128372192383 87.00003051757812 56.17134094238281 85.88996887207031 61.34736633300781 83.70068359375 C 66.34834289550781 81.58545684814453 70.84030914306641 78.55668640136719 74.69847869873047 74.69850158691406 C 78.55665588378906 70.84033203125 81.58542633056641 66.34837341308594 83.70065307617188 61.34738922119141 C 85.88993835449219 56.17136001586914 87 50.67130279541016 87 45.00001525878906 C 87 39.32872772216797 85.88993835449219 33.82867050170898 83.70065307617188 28.65262985229492 C 81.58542633056641 23.65165710449219 78.55665588378906 19.15968322753906 74.69847869873047 15.301513671875 C 70.84030914306641 11.44334411621094 66.34834289550781 8.414573669433594 61.34736633300781 6.299346923828125 C 56.17134094238281 4.110061645507812 50.67128372192383 3 44.99999618530273 3 M 44.99999618530273 0 C 69.85281372070312 0 90 20.14718627929688 90 45.00001525878906 C 90 69.85282897949219 69.85281372070312 90.00003051757812 44.99999618530273 90.00003051757812 C 20.14717864990234 90.00003051757812 -7.62939453125e-06 69.85282897949219 -7.62939453125e-06 45.00001525878906 C -7.62939453125e-06 20.14718627929688 20.14717864990234 0 44.99999618530273 0 Z" stroke="none" fill="#ff9d1c"/>
                </g>
              </g>
            </g>
          </g>
        </g>
      </g>
    </g>
    <g id="dinero_1_" data-name="dinero (1)" transform="translate(206.056 4782)">
      <g id="Grupo_1182519" data-name="Grupo 1182519" transform="translate(12.765 0.817)">
        <path id="Trazado_1042965" data-name="Trazado 1042965" d="M25.851,163.682c-5.492,0-7.147-5.528-6.048-10.549.862-3.937,3.752-6.927,3.648-10.965-.231-9.021,7.867-14.695,17.7-14.9,9.831.208,17.932,5.881,17.7,14.9-.1,4.038,2.785,7.028,3.648,10.965,1.1,5.021-.556,10.549-6.048,10.549Z" transform="translate(-19.483 -114.225)" fill="#9be69d" fill-rule="evenodd"/>
        <path id="Trazado_1042966" data-name="Trazado 1042966" d="M233.956,146.953c7.112,1.846,12.269,6.92,12.083,14.146a9.4,9.4,0,0,0,.524,3.251,10.4,10.4,0,0,1,1.162-.372V162.9a.942.942,0,0,1,.941-.939h1.6a8.985,8.985,0,0,1-.3-2.492c.152-5.884-3.237-10.341-8.34-12.789a1.856,1.856,0,0,1-.979.277h-6.7Z" transform="translate(-210.603 -131.522)" fill="#6fd7a3" fill-rule="evenodd"/>
        <path id="Trazado_1042967" data-name="Trazado 1042967" d="M120.1,18.147l5.214,1.632,5.211-1.632c5.3-1.877,8.786-10.647,2.672-10.647H117.426C111.315,7.5,114.8,16.269,120.1,18.147Z" transform="translate(-103.876 -7.5)" fill="#9be69d" fill-rule="evenodd"/>
        <path id="Trazado_1042968" data-name="Trazado 1042968" d="M220.308,7.5c6.111,0,4.927,8.769-.376,10.647l-3.581,1.632,5.211-1.632c5.3-1.877,8.786-10.647,2.672-10.647Z" transform="translate(-194.915 -7.5)" fill="#6fd7a3" fill-rule="evenodd"/>
        <path id="Trazado_1042969" data-name="Trazado 1042969" d="M115.213,213.58a11.244,11.244,0,1,0,11.246-11.214,11.23,11.23,0,0,0-11.246,11.214Z" transform="translate(-104.789 -181.148)" fill="#ffd15b" fill-rule="evenodd"/>
        <path id="Trazado_1042970" data-name="Trazado 1042970" d="M201.295,202.391a11.215,11.215,0,0,1-1.216,22.229,11.364,11.364,0,0,0,2.005.176,11.215,11.215,0,1,0,0-22.431C201.816,202.366,201.554,202.375,201.295,202.391Z" transform="translate(-180.415 -181.148)" fill="#ffc344" fill-rule="evenodd"/>
        <path id="Trazado_1042971" data-name="Trazado 1042971" d="M291.554,290.136a10.209,10.209,0,0,0-2.662-1.1V287.95a.942.942,0,0,0-.941-.939H284.8a.942.942,0,0,0-.941.939v1.084a10.212,10.212,0,0,0-2.662,1.1l-.767-.769a.947.947,0,0,0-1.333,0l-2.23,2.221a.941.941,0,0,0,0,1.329l.771.769a10.152,10.152,0,0,0-1.105,2.655h-1.086a.942.942,0,0,0-.941.939v3.144a.942.942,0,0,0,.941.939h1.086a10.155,10.155,0,0,0,1.105,2.655l-.771.765a.941.941,0,0,0,0,1.329l2.23,2.224a.947.947,0,0,0,1.333,0l.767-.769a10.209,10.209,0,0,0,2.662,1.1v1.084a.942.942,0,0,0,.941.939h3.152a.942.942,0,0,0,.941-.939V308.67a10.212,10.212,0,0,0,2.662-1.1l.767.769a.947.947,0,0,0,1.333,0l2.23-2.224a.941.941,0,0,0,0-1.329l-.771-.765a10.152,10.152,0,0,0,1.105-2.655h1.086a.942.942,0,0,0,.941-.939V297.28a.942.942,0,0,0-.941-.939h-1.086a10.154,10.154,0,0,0-1.105-2.655l.771-.769a.941.941,0,0,0,0-1.329l-2.23-2.221a.947.947,0,0,0-1.333,0Z" transform="translate(-246.736 -256.576)" fill="#3c87d0" fill-rule="evenodd"/>
        <path id="Trazado_1042972" data-name="Trazado 1042972" d="M339.82,356.907a4.759,4.759,0,1,0,4.759-4.747A4.754,4.754,0,0,0,339.82,356.907Z" transform="translate(-304.94 -314.632)" fill="#f2fbff" fill-rule="evenodd"/>
        <path id="Trazado_1042973" data-name="Trazado 1042973" d="M371.253,356.667a4.751,4.751,0,0,1-3.821,4.652,4.75,4.75,0,1,0,1.753-9.16,4.829,4.829,0,0,0-.938.091A4.752,4.752,0,0,1,371.253,356.667Z" transform="translate(-329.546 -314.631)" fill="#dff6fd" fill-rule="evenodd"/>
        <path id="Trazado_1042974" data-name="Trazado 1042974" d="M413.258,306.284a14.732,14.732,0,0,1,0,19.211,9.935,9.935,0,0,0,1.942-.888l.767.769a.947.947,0,0,0,1.333,0l2.23-2.224a.941.941,0,0,0,0-1.329l-.771-.765a10.152,10.152,0,0,0,1.105-2.655h1.086a.942.942,0,0,0,.941-.939V314.32a.942.942,0,0,0-.941-.939h-1.086a10.155,10.155,0,0,0-1.105-2.655l.771-.769a.941.941,0,0,0,0-1.329l-2.23-2.221a.947.947,0,0,0-1.333,0l-.767.769A10.138,10.138,0,0,0,413.258,306.284Z" transform="translate(-370.382 -273.616)" fill="#4f66d0" fill-rule="evenodd"/>
        <path id="Trazado_1042975" data-name="Trazado 1042975" d="M126.349,110.065h16.76a1.848,1.848,0,0,0,1.854-1.849v-1.087a1.856,1.856,0,0,0-1.854-1.849h-16.76a1.856,1.856,0,0,0-1.854,1.849v1.087a1.848,1.848,0,0,0,1.854,1.849Z" transform="translate(-113.061 -94.633)" fill="#d77f4a" fill-rule="evenodd"/>
        <path id="Trazado_1042976" data-name="Trazado 1042976" d="M258.984,108.543a1.855,1.855,0,0,1-1.825,1.521h4.169a1.848,1.848,0,0,0,1.854-1.849v-1.087a1.856,1.856,0,0,0-1.854-1.849h-4.169a1.745,1.745,0,0,1,.531.079,1.857,1.857,0,0,1,1.323,1.77v1.087A1.87,1.87,0,0,1,258.984,108.543Z" transform="translate(-231.28 -94.633)" fill="#c86d36" fill-rule="evenodd"/>
      </g>
      <g id="Grupo_1182520" data-name="Grupo 1182520" transform="translate(11.944 0)">
        <path id="Trazado_1042977" data-name="Trazado 1042977" d="M183.377,245.136a4.825,4.825,0,0,0,2.677.92v.775a.817.817,0,0,0,1.633,0v-.859a3.925,3.925,0,0,0,2.992-3.2,3.443,3.443,0,0,0-2.376-3.937c-.219-.077-.423-.151-.616-.223V234.89a2.4,2.4,0,0,1,.882.444l.01.009a.817.817,0,1,0,1.068-1.236,4.186,4.186,0,0,0-1.96-.888v-.825a.817.817,0,1,0-1.633,0v.857q-.205.042-.42.106a3.262,3.262,0,0,0-2.238,2.561,2.867,2.867,0,0,0,.944,2.827,7.818,7.818,0,0,0,1.714.973v4.7a3.205,3.205,0,0,1-1.785-.652.817.817,0,1,0-.893,1.368Zm1.969-7.678A1.256,1.256,0,0,1,185,236.22a1.654,1.654,0,0,1,1.053-1.281v2.968A4.805,4.805,0,0,1,185.346,237.459Zm2.415,2.919a1.836,1.836,0,0,1,1.308,2.127,2.327,2.327,0,0,1-1.382,1.758v-3.911Z" transform="translate(-164.381 -206.363)"/>
        <path id="Trazado_1042978" data-name="Trazado 1042978" d="M337.9,344.66a5.564,5.564,0,1,0,5.576,5.564A5.576,5.576,0,0,0,337.9,344.66Zm0,9.494a3.93,3.93,0,1,1,3.943-3.93A3.941,3.941,0,0,1,337.9,354.154Z" transform="translate(-297.436 -307.132)"/>
        <path id="Trazado_1042979" data-name="Trazado 1042979" d="M63.335,39.765h-.473a10.969,10.969,0,0,0-.706-1.7l.334-.333a1.761,1.761,0,0,0,0-2.486l-2.229-2.22a1.764,1.764,0,0,0-2.487,0l-.333.334a11.028,11.028,0,0,0-1.7-.705V32.19a1.759,1.759,0,0,0-1.758-1.755h-.893a7.824,7.824,0,0,1-.138-1.654c.142-5.511-2.7-10.21-7.829-13.042a2.645,2.645,0,0,0,.363-1.34V13.312a2.671,2.671,0,0,0-2.67-2.666H42.4a11.346,11.346,0,0,0,2.138-2.379,7.741,7.741,0,0,0,1.539-5.345C45.757,1.065,44.3,0,42.084,0H26.315C24.1,0,22.642,1.065,22.324,2.922a7.742,7.742,0,0,0,1.54,5.346A11.355,11.355,0,0,0,26,10.648a2.671,2.671,0,0,0-2.622,2.664V14.4a2.645,2.645,0,0,0,.363,1.34c-5.132,2.831-7.971,7.53-7.829,13.042.056,2.165-.848,4.044-1.8,6.033a21.537,21.537,0,0,0-1.825,4.736c-.781,3.567-.214,6.979,1.516,9.128a6.579,6.579,0,0,0,5.33,2.412H42.479l2.069,2.064a1.764,1.764,0,0,0,2.487,0l.333-.334a11.026,11.026,0,0,0,1.7.705v.469a1.759,1.759,0,0,0,1.758,1.755H53.98a1.758,1.758,0,0,0,1.758-1.755v-.469a11.026,11.026,0,0,0,1.7-.705l.334.335a1.763,1.763,0,0,0,2.486,0l2.23-2.224a1.758,1.758,0,0,0,0-2.487l-.332-.33a10.972,10.972,0,0,0,.705-1.695h.473a1.759,1.759,0,0,0,1.758-1.755V41.52a1.758,1.758,0,0,0-1.758-1.755ZM23.934,3.2c.066-.387.268-1.565,2.382-1.565H42.084c2.114,0,2.316,1.178,2.383,1.566.391,2.28-2.049,6.253-5.2,7.448h-.529a12.264,12.264,0,0,0,.986-3.555.817.817,0,0,0-1.616-.24,8.6,8.6,0,0,1-1.26,3.8h-1.6V6.972a.817.817,0,1,0-1.633,0v3.675h-1.6a8.6,8.6,0,0,1-1.26-3.8.817.817,0,1,0-1.616.24,12.264,12.264,0,0,0,.986,3.555h-.993c-3.151-1.2-5.592-5.169-5.2-7.449ZM15.077,47.655c-1.4-1.742-1.859-4.713-1.193-7.755a20.289,20.289,0,0,1,1.7-4.378c1-2.077,2.031-4.224,1.965-6.783-.13-5.061,2.61-9.363,7.531-11.857a2.659,2.659,0,0,0,.972.184h6.594a.817.817,0,1,0,0-1.633H26.053A1.036,1.036,0,0,1,25.016,14.4V13.313a1.036,1.036,0,0,1,1.037-1.032h16.76a1.036,1.036,0,0,1,1.037,1.032V14.4a1.036,1.036,0,0,1-1.037,1.032h-6.7a.817.817,0,0,0,0,1.633h6.7a2.659,2.659,0,0,0,.972-.184c4.921,2.495,7.662,6.8,7.531,11.858a9.329,9.329,0,0,0,.113,1.7h-.6a1.759,1.759,0,0,0-1.758,1.755v.469a11.017,11.017,0,0,0-1.7.705l-.334-.335a1.748,1.748,0,0,0-.555-.372A12.072,12.072,0,0,0,27.647,23.3a.817.817,0,0,0,.918,1.351A10.439,10.439,0,0,1,44.85,32.79a1.756,1.756,0,0,0-.3.24l-2.232,2.224a1.76,1.76,0,0,0,0,2.483l.334.333a10.957,10.957,0,0,0-.706,1.7h-.473a1.758,1.758,0,0,0-1.758,1.755v.7a10.434,10.434,0,0,1-15.711-8.968,10.279,10.279,0,0,1,2.143-6.316.817.817,0,0,0-1.3-1,11.9,11.9,0,0,0-2.481,7.311A12.068,12.068,0,0,0,39.716,44.068v.6a1.759,1.759,0,0,0,1.758,1.755h.473a10.972,10.972,0,0,0,.705,1.695l-.334.331a1.738,1.738,0,0,0-.5,1.012H19.134a4.937,4.937,0,0,1-4.057-1.8Zm48.382-2.991a.127.127,0,0,1-.124.122H62.248a.816.816,0,0,0-.791.613,9.345,9.345,0,0,1-1.017,2.442.817.817,0,0,0,.127,1l.769.764a.125.125,0,0,1,0,.173L59.107,52a.13.13,0,0,1-.178,0l-.767-.769a.817.817,0,0,0-.993-.126,9.4,9.4,0,0,1-2.449,1.014.817.817,0,0,0-.614.791v1.084a.127.127,0,0,1-.124.122H50.828a.126.126,0,0,1-.124-.122V52.91a.817.817,0,0,0-.614-.791A9.4,9.4,0,0,1,47.64,51.1a.817.817,0,0,0-.993.126L45.881,52a.13.13,0,0,1-.179,0l-2.23-2.224a.12.12,0,0,1-.035-.086.118.118,0,0,1,.034-.085l.771-.765a.817.817,0,0,0,.127-1A9.345,9.345,0,0,1,43.352,45.4a.817.817,0,0,0-.791-.613H41.474a.127.127,0,0,1-.124-.122V41.52a.127.127,0,0,1,.124-.122h1.086a.816.816,0,0,0,.791-.613,9.342,9.342,0,0,1,1.017-2.442.817.817,0,0,0-.125-1l-.771-.769a.123.123,0,0,1,0-.172l2.23-2.221a.13.13,0,0,1,.178,0l.767.769a.817.817,0,0,0,.993.126,9.4,9.4,0,0,1,2.449-1.014.817.817,0,0,0,.614-.791V32.19a.127.127,0,0,1,.124-.122H53.98a.127.127,0,0,1,.124.122v1.084a.817.817,0,0,0,.614.791,9.4,9.4,0,0,1,2.449,1.014.816.816,0,0,0,.993-.126l.766-.767a.131.131,0,0,1,.18,0L61.334,36.4a.124.124,0,0,1,0,.175l-.771.769a.817.817,0,0,0-.125,1,9.342,9.342,0,0,1,1.017,2.442.817.817,0,0,0,.791.613h1.086a.126.126,0,0,1,.124.122v3.144Z" transform="translate(-11.944 0)"/>
      </g>
    </g>
  </g>
</svg>
