<svg xmlns="http://www.w3.org/2000/svg" xmlns:xlink="http://www.w3.org/1999/xlink" width="108" height="108" viewBox="0 0 108 108">
  <defs>
    <filter id="Trazado_904820" x="0" y="0" width="108" height="108" filterUnits="userSpaceOnUse">
      <feOffset dy="3" input="SourceAlpha"/>
      <feGaussianBlur stdDeviation="3" result="blur"/>
      <feFlood flood-opacity="0.161"/>
      <feComposite operator="in" in2="blur"/>
      <feComposite in="SourceGraphic"/>
    </filter>
  </defs>
  <g id="Grupo_1182473" data-name="Grupo 1182473" transform="translate(-621 -406)">
    <g id="Grupo_1182242" data-name="Grupo 1182242" transform="translate(630 412)">
      <g id="Grupo_1171910" data-name="Grupo 1171910" transform="translate(0)">
        <g id="Grupo_1167341" data-name="Grupo 1167341" transform="translate(0)">
          <g id="Grupo_1166792" data-name="Grupo 1166792" transform="translate(0)">
            <g transform="matrix(1, 0, 0, 1, -9, -6)" filter="url(#Trazado_904820)">
              <g id="Trazado_904820-2" data-name="Trazado 904820" transform="translate(9 6)" fill="#e9f9fd">
                <path d="M 44.99999618530273 88.50003051757812 C 39.12687301635742 88.50003051757812 33.43022155761719 87.35010528564453 28.06829643249512 85.08219909667969 C 22.88852119445801 82.89134216308594 18.23629570007324 79.75461578369141 14.24084663391113 75.75916290283203 C 10.24540901184082 71.76371765136719 7.108683586120605 67.11150360107422 4.917821407318115 61.93172836303711 C 2.649921178817749 56.56978988647461 1.499996185302734 50.87313842773438 1.499996185302734 45.00001525878906 C 1.499996185302734 39.12689208984375 2.649921178817749 33.43024063110352 4.917821407318115 28.06831550598145 C 7.108683586120605 22.88854026794434 10.24540901184082 18.23631477355957 14.24084663391113 14.24086570739746 C 18.23629570007324 10.24541568756104 22.88852119445801 7.10869026184082 28.06829643249512 4.917840480804443 C 33.43022155761719 2.649927854537964 39.12687301635742 1.50000274181366 44.99999618530273 1.50000274181366 C 50.87311935424805 1.50000274181366 56.56977081298828 2.649927854537964 61.93169784545898 4.917840480804443 C 67.11147308349609 7.10869026184082 71.76369476318359 10.24541568756104 75.75914764404297 14.24086570739746 C 79.75458526611328 18.23631477355957 82.89131164550781 22.88854026794434 85.08216857910156 28.06831550598145 C 87.35007476806641 33.43024063110352 88.5 39.12689208984375 88.5 45.00001525878906 C 88.5 50.87313842773438 87.35007476806641 56.56978988647461 85.08216857910156 61.93172836303711 C 82.89131164550781 67.11150360107422 79.75458526611328 71.76371765136719 75.75914764404297 75.75916290283203 C 71.76369476318359 79.75461578369141 67.11147308349609 82.89134216308594 61.93169784545898 85.08219909667969 C 56.56977081298828 87.35010528564453 50.87311935424805 88.50003051757812 44.99999618530273 88.50003051757812 Z" stroke="none"/>
                <path d="M 44.99999618530273 3 C 39.32870864868164 3 33.82865142822266 4.110061645507812 28.65262603759766 6.299346923828125 C 23.65165710449219 8.414573669433594 19.15968322753906 11.44334411621094 15.301513671875 15.301513671875 C 11.44333648681641 19.15968322753906 8.414566040039062 23.65165710449219 6.299339294433594 28.65262985229492 C 4.110054016113281 33.82867050170898 2.999992370605469 39.32872772216797 2.999992370605469 45.00001525878906 C 2.999992370605469 50.67130279541016 4.110054016113281 56.17136001586914 6.299339294433594 61.34738922119141 C 8.414566040039062 66.34837341308594 11.44333648681641 70.84033203125 15.301513671875 74.69850158691406 C 19.15968322753906 78.55668640136719 23.65165710449219 81.58545684814453 28.65262603759766 83.70068359375 C 33.82865142822266 85.88996887207031 39.32870864868164 87.00003051757812 44.99999618530273 87.00003051757812 C 50.67128372192383 87.00003051757812 56.17134094238281 85.88996887207031 61.34736633300781 83.70068359375 C 66.34834289550781 81.58545684814453 70.84030914306641 78.55668640136719 74.69847869873047 74.69850158691406 C 78.55665588378906 70.84033203125 81.58542633056641 66.34837341308594 83.70065307617188 61.34738922119141 C 85.88993835449219 56.17136001586914 87 50.67130279541016 87 45.00001525878906 C 87 39.32872772216797 85.88993835449219 33.82867050170898 83.70065307617188 28.65262985229492 C 81.58542633056641 23.65165710449219 78.55665588378906 19.15968322753906 74.69847869873047 15.301513671875 C 70.84030914306641 11.44334411621094 66.34834289550781 8.414573669433594 61.34736633300781 6.299346923828125 C 56.17134094238281 4.110061645507812 50.67128372192383 3 44.99999618530273 3 M 44.99999618530273 0 C 69.85281372070312 0 90 20.14718627929688 90 45.00001525878906 C 90 69.85282897949219 69.85281372070312 90.00003051757812 44.99999618530273 90.00003051757812 C 20.14717864990234 90.00003051757812 -7.62939453125e-06 69.85282897949219 -7.62939453125e-06 45.00001525878906 C -7.62939453125e-06 20.14718627929688 20.14717864990234 0 44.99999618530273 0 Z" stroke="none" fill="#1d7083"/>
              </g>
            </g>
          </g>
        </g>
      </g>
    </g>
    <g id="pregunta" transform="translate(587 427)">
      <g id="Grupo_1182471" data-name="Grupo 1182471" transform="translate(67.158 1.158)">
        <path id="Trazado_1042657" data-name="Trazado 1042657" d="M84.589,47.715c2.185,1.592,2.994,3.177,2.994,5.377h18.534c0-2.2.809-3.785,2.994-5.377a20.851,20.851,0,1,0-24.523,0Z" transform="translate(-76 -10)" fill="#ffee80" fill-rule="evenodd"/>
        <path id="Trazado_1042658" data-name="Trazado 1042658" d="M176.851,382H158.317a2.317,2.317,0,0,0,0,4.633h18.534a2.317,2.317,0,1,0,0-4.633Z" transform="translate(-146.733 -338.911)" fill="#f3eff0" fill-rule="evenodd"/>
        <path id="Trazado_1042659" data-name="Trazado 1042659" d="M176.851,422H158.317a2.317,2.317,0,0,0,0,4.633h18.534a2.317,2.317,0,0,0,0-4.633Z" transform="translate(-146.733 -374.277)" fill="#f3eff0" fill-rule="evenodd"/>
        <path id="Trazado_1042660" data-name="Trazado 1042660" d="M194.534,462H176v2.317a2.324,2.324,0,0,0,2.317,2.317h13.9a2.324,2.324,0,0,0,2.317-2.317Z" transform="translate(-164.416 -409.644)" fill="#8690af" fill-rule="evenodd"/>
        <g id="Grupo_1182470" data-name="Grupo 1182470" transform="translate(14.197 10.128)">
          <path id="Trazado_1042661" data-name="Trazado 1042661" d="M207.642,113.8a2.427,2.427,0,1,1-4.853,0c0-3.382.22-3.6,3.4-6.7.22-.215.459-.449.717-.7a2.4,2.4,0,1,0-3.8-2.857,2.418,2.418,0,0,1-4.246-2.313,7.279,7.279,0,0,1,2.667-2.772,7.24,7.24,0,0,1,8.77,11.392l-.717.7C207.768,112.318,207.642,112.441,207.642,113.8Z" transform="translate(-198.562 -97.437)" fill="#fff" fill-rule="evenodd"/>
          <circle id="Elipse_11858" data-name="Elipse 11858" cx="2.427" cy="2.427" r="2.427" transform="matrix(0.16, -0.987, 0.987, 0.16, 3.862, 26.695)" fill="#fff"/>
        </g>
      </g>
      <g id="Grupo_1182472" data-name="Grupo 1182472" transform="translate(66)">
        <path id="Trazado_1042662" data-name="Trazado 1042662" d="M88.009,0A21.986,21.986,0,0,0,76.791,3.071a1.158,1.158,0,0,0,1.183,1.992A19.693,19.693,0,0,1,99.588,37.937a7.348,7.348,0,0,0-3.4,5.154H79.827a7.349,7.349,0,0,0-3.4-5.155,19.7,19.7,0,0,1-5.366-25.964,1.158,1.158,0,0,0-1.992-1.183A22,22,0,0,0,75.066,39.81a5.2,5.2,0,0,1,2.449,3.506,3.472,3.472,0,0,0-1.36,5.567,3.472,3.472,0,0,0,1.429,5.593v1.358a3.479,3.479,0,0,0,3.475,3.475h13.9a3.479,3.479,0,0,0,3.475-3.475V54.476a3.472,3.472,0,0,0,1.429-5.592,3.472,3.472,0,0,0-1.36-5.567,5.2,5.2,0,0,1,2.449-3.506A22.009,22.009,0,0,0,88.009,0Zm6.95,56.992h-13.9A1.16,1.16,0,0,1,79.9,55.833V54.675H96.117v1.158A1.16,1.16,0,0,1,94.959,56.992Zm2.317-4.633H78.742a1.158,1.158,0,0,1,0-2.317H82.8a1.158,1.158,0,1,0,0-2.317H78.742a1.158,1.158,0,0,1,0-2.317H97.276a1.158,1.158,0,1,1,0,2.317H93.221a1.158,1.158,0,0,0,0,2.317h4.055a1.158,1.158,0,0,1,0,2.317Z" transform="translate(-66)"/>
        <path id="Trazado_1042663" data-name="Trazado 1042663" d="M200.085,104.09a12.07,12.07,0,0,1,1.468-1.557c.221-.216.46-.451.719-.706a8.4,8.4,0,1,0-13.268-10,3.576,3.576,0,0,0,6.281,3.421,1.239,1.239,0,0,1,1.095-.642,1.235,1.235,0,0,1,1.236,1.236,1.247,1.247,0,0,1-.093.484,1.218,1.218,0,0,1-.27.4c-.256.252-.493.484-.714.7-3.245,3.176-3.744,3.664-3.744,7.532a3.585,3.585,0,1,0,7.17,0C199.965,104.344,200,104.232,200.085,104.09Zm-2.436.869a1.268,1.268,0,0,1-2.536,0c0-2.894,0-2.894,3.05-5.879.22-.216.459-.449.717-.7a3.557,3.557,0,0,0-2.5-6.087,3.555,3.555,0,0,0-3.129,1.851,1.259,1.259,0,0,1-2.212-1.2,6.082,6.082,0,0,1,5.341-3.183,6.082,6.082,0,0,1,4.266,10.423l-.714.7C198.087,102.683,197.649,103.112,197.649,104.959Z" transform="translate(-174.371 -77.309)"/>
        <path id="Trazado_1042664" data-name="Trazado 1042664" d="M225.053,283.237a3.585,3.585,0,1,0,3.585-3.585A3.589,3.589,0,0,0,225.053,283.237Zm4.853,0a1.268,1.268,0,1,1-1.268-1.268A1.27,1.27,0,0,1,229.906,283.237Z" transform="translate(-206.629 -247.258)"/>
        <path id="Trazado_1042665" data-name="Trazado 1042665" d="M119.885,55.038a1.158,1.158,0,0,0,0-2.317h0a1.158,1.158,0,0,0,0,2.317Z" transform="translate(-112.618 -46.614)"/>
        <path id="Trazado_1042666" data-name="Trazado 1042666" d="M247.156,412h0a1.158,1.158,0,1,0,1.159,1.158A1.158,1.158,0,0,0,247.155,412Z" transform="translate(-225.147 -364.277)"/>
      </g>
    </g>
  </g>
</svg>
