<svg xmlns="http://www.w3.org/2000/svg" xmlns:xlink="http://www.w3.org/1999/xlink" width="108" height="108" viewBox="0 0 108 108">
  <defs>
    <filter id="Trazado_904820" x="0" y="0" width="108" height="108" filterUnits="userSpaceOnUse">
      <feOffset dy="3" input="SourceAlpha"/>
      <feGaussianBlur stdDeviation="3" result="blur"/>
      <feFlood flood-opacity="0.161"/>
      <feComposite operator="in" in2="blur"/>
      <feComposite in="SourceGraphic"/>
    </filter>
  </defs>
  <g id="Grupo_1182489" data-name="Grupo 1182489" transform="translate(-166 -1363)">
    <g id="Grupo_1182244" data-name="Grupo 1182244" transform="translate(175 1369)">
      <g id="Grupo_1172093" data-name="Grupo 1172093">
        <g id="Grupo_1171910" data-name="Grupo 1171910" transform="translate(0)">
          <g id="Grupo_1167341" data-name="Grupo 1167341">
            <g id="Grupo_1166792" data-name="Grupo 1166792">
              <g transform="matrix(1, 0, 0, 1, -9, -6)" filter="url(#Trazado_904820)">
                <g id="Trazado_904820-2" data-name="Trazado 904820" transform="translate(9 6)" fill="#fbfbf9">
                  <path d="M 44.99999618530273 88.50003051757812 C 39.12687301635742 88.50003051757812 33.43022155761719 87.35010528564453 28.06829643249512 85.08219909667969 C 22.88852119445801 82.89134216308594 18.23629570007324 79.75461578369141 14.24084663391113 75.75916290283203 C 10.24540901184082 71.76371765136719 7.108683586120605 67.11150360107422 4.917821407318115 61.93172836303711 C 2.649921178817749 56.56978988647461 1.499996185302734 50.87313842773438 1.499996185302734 45.00001525878906 C 1.499996185302734 39.12689208984375 2.649921178817749 33.43024063110352 4.917821407318115 28.06831550598145 C 7.108683586120605 22.88854026794434 10.24540901184082 18.23631477355957 14.24084663391113 14.24086570739746 C 18.23629570007324 10.24541568756104 22.88852119445801 7.10869026184082 28.06829643249512 4.917840480804443 C 33.43022155761719 2.649927854537964 39.12687301635742 1.50000274181366 44.99999618530273 1.50000274181366 C 50.87311935424805 1.50000274181366 56.56977081298828 2.649927854537964 61.93169784545898 4.917840480804443 C 67.11147308349609 7.10869026184082 71.76369476318359 10.24541568756104 75.75914764404297 14.24086570739746 C 79.75458526611328 18.23631477355957 82.89131164550781 22.88854026794434 85.08216857910156 28.06831550598145 C 87.35007476806641 33.43024063110352 88.5 39.12689208984375 88.5 45.00001525878906 C 88.5 50.87313842773438 87.35007476806641 56.56978988647461 85.08216857910156 61.93172836303711 C 82.89131164550781 67.11150360107422 79.75458526611328 71.76371765136719 75.75914764404297 75.75916290283203 C 71.76369476318359 79.75461578369141 67.11147308349609 82.89134216308594 61.93169784545898 85.08219909667969 C 56.56977081298828 87.35010528564453 50.87311935424805 88.50003051757812 44.99999618530273 88.50003051757812 Z" stroke="none"/>
                  <path d="M 44.99999618530273 3 C 39.32870864868164 3 33.82865142822266 4.110061645507812 28.65262603759766 6.299346923828125 C 23.65165710449219 8.414573669433594 19.15968322753906 11.44334411621094 15.301513671875 15.301513671875 C 11.44333648681641 19.15968322753906 8.414566040039062 23.65165710449219 6.299339294433594 28.65262985229492 C 4.110054016113281 33.82867050170898 2.999992370605469 39.32872772216797 2.999992370605469 45.00001525878906 C 2.999992370605469 50.67130279541016 4.110054016113281 56.17136001586914 6.299339294433594 61.34738922119141 C 8.414566040039062 66.34837341308594 11.44333648681641 70.84033203125 15.301513671875 74.69850158691406 C 19.15968322753906 78.55668640136719 23.65165710449219 81.58545684814453 28.65262603759766 83.70068359375 C 33.82865142822266 85.88996887207031 39.32870864868164 87.00003051757812 44.99999618530273 87.00003051757812 C 50.67128372192383 87.00003051757812 56.17134094238281 85.88996887207031 61.34736633300781 83.70068359375 C 66.34834289550781 81.58545684814453 70.84030914306641 78.55668640136719 74.69847869873047 74.69850158691406 C 78.55665588378906 70.84033203125 81.58542633056641 66.34837341308594 83.70065307617188 61.34738922119141 C 85.88993835449219 56.17136001586914 87 50.67130279541016 87 45.00001525878906 C 87 39.32872772216797 85.88993835449219 33.82867050170898 83.70065307617188 28.65262985229492 C 81.58542633056641 23.65165710449219 78.55665588378906 19.15968322753906 74.69847869873047 15.301513671875 C 70.84030914306641 11.44334411621094 66.34834289550781 8.414573669433594 61.34736633300781 6.299346923828125 C 56.17134094238281 4.110061645507812 50.67128372192383 3 44.99999618530273 3 M 44.99999618530273 0 C 69.85281372070312 0 90 20.14718627929688 90 45.00001525878906 C 90 69.85282897949219 69.85281372070312 90.00003051757812 44.99999618530273 90.00003051757812 C 20.14717864990234 90.00003051757812 -7.62939453125e-06 69.85282897949219 -7.62939453125e-06 45.00001525878906 C -7.62939453125e-06 20.14718627929688 20.14717864990234 0 44.99999618530273 0 Z" stroke="none" fill="#7b776f"/>
                </g>
              </g>
            </g>
          </g>
        </g>
      </g>
    </g>
    <g id="hoja-de-balance_1_" data-name="hoja-de-balance (1)" transform="translate(189 1383)">
      <g id="Grupo_1182487" data-name="Grupo 1182487">
        <g id="Grupo_1182474" data-name="Grupo 1182474">
          <path id="Trazado_1042667" data-name="Trazado 1042667" d="M55,39h5A10,10,0,0,1,50,49H48A10,10,0,0,1,38,39H55Z" fill="#ccd1d9"/>
        </g>
        <g id="Grupo_1182475" data-name="Grupo 1182475">
          <path id="Trazado_1042668" data-name="Trazado 1042668" d="M19,39h5A10,10,0,0,1,14,49H12A10,10,0,0,1,2,39H19Z" fill="#ccd1d9"/>
        </g>
        <g id="Grupo_1182476" data-name="Grupo 1182476">
          <path id="Trazado_1042669" data-name="Trazado 1042669" d="M43,61H19l9-6h6Z" fill="#b27946"/>
        </g>
        <g id="Grupo_1182477" data-name="Grupo 1182477">
          <path id="Trazado_1042670" data-name="Trazado 1042670" d="M34,24.62V55H28V24.62a12.032,12.032,0,0,0,6,0Z" fill="#d3a06c"/>
        </g>
        <g id="Grupo_1182478" data-name="Grupo 1182478">
          <path id="Trazado_1042671" data-name="Trazado 1042671" d="M53,7v4H42.83A11.875,11.875,0,0,0,41.4,7Z" fill="#b4dd7f"/>
        </g>
        <g id="Grupo_1182479" data-name="Grupo 1182479">
          <path id="Trazado_1042672" data-name="Trazado 1042672" d="M60.15,11.47a1.8,1.8,0,0,1,0,3.06L53,19V7Z" fill="#aab2bd"/>
        </g>
        <g id="Grupo_1182480" data-name="Grupo 1182480">
          <path id="Trazado_1042673" data-name="Trazado 1042673" d="M9,15v4H5a4,4,0,0,1-4-4V11A4,4,0,0,1,5,7H9v8Z" fill="#aab2bd"/>
        </g>
        <g id="Grupo_1182481" data-name="Grupo 1182481">
          <path id="Trazado_1042674" data-name="Trazado 1042674" d="M53,15v4H41.4a11.875,11.875,0,0,0,1.43-4Z" fill="#b4dd7f"/>
        </g>
        <g id="Grupo_1182482" data-name="Grupo 1182482">
          <path id="Trazado_1042675" data-name="Trazado 1042675" d="M20.6,19H9V15H19.17A11.875,11.875,0,0,0,20.6,19Z" fill="#b4dd7f"/>
        </g>
        <g id="Grupo_1182483" data-name="Grupo 1182483">
          <path id="Trazado_1042676" data-name="Trazado 1042676" d="M9,7H20.6a11.875,11.875,0,0,0-1.43,4H9Z" fill="#b4dd7f"/>
        </g>
        <g id="Grupo_1182484" data-name="Grupo 1182484">
          <path id="Trazado_1042677" data-name="Trazado 1042677" d="M53,15H42.83a11.85,11.85,0,0,0,0-4H53Z" fill="#ff826e"/>
        </g>
        <g id="Grupo_1182485" data-name="Grupo 1182485">
          <path id="Trazado_1042678" data-name="Trazado 1042678" d="M9,11H19.17a11.85,11.85,0,0,0,0,4H9Z" fill="#ff826e"/>
        </g>
        <g id="Grupo_1182486" data-name="Grupo 1182486">
          <path id="Trazado_1042679" data-name="Trazado 1042679" d="M42.83,11a11.85,11.85,0,0,1,0,4,11.875,11.875,0,0,1-1.43,4A12.005,12.005,0,0,1,34,24.62a12.032,12.032,0,0,1-6,0A12.005,12.005,0,0,1,20.6,19a11.875,11.875,0,0,1-1.43-4,11.85,11.85,0,0,1,0-4A11.875,11.875,0,0,1,20.6,7,12.013,12.013,0,0,1,41.4,7,11.875,11.875,0,0,1,42.83,11Z" fill="#fcd770"/>
        </g>
      </g>
      <g id="Grupo_1182488" data-name="Grupo 1182488">
        <path id="Trazado_1042680" data-name="Trazado 1042680" d="M60.682,15.378a2.8,2.8,0,0,0,0-4.756L53.287,6H41.937A12.968,12.968,0,0,0,20.063,6H5a5.006,5.006,0,0,0-5,5v4a5.006,5.006,0,0,0,5,5h5.382L1,38.764V39A11.013,11.013,0,0,0,12,50h2A11.013,11.013,0,0,0,25,39v-.236L15.618,20h4.445A13.047,13.047,0,0,0,27,25.364v29.1l-8.555,5.7A1,1,0,0,0,19,62H43a1,1,0,0,0,.555-1.832L35,54.465v-29.1A13.047,13.047,0,0,0,41.937,20h4.445L37,38.764V39A11.013,11.013,0,0,0,48,50h2A11.013,11.013,0,0,0,61,39v-.236L51.618,20h1.668ZM43.949,12H52v2H43.949c.026-.331.051-.662.051-1S43.975,12.331,43.949,12ZM60,13a.8.8,0,0,1-.378.683L54,17.2V8.8l5.622,3.513A.8.8,0,0,1,60,13ZM52,8v2H43.637A12.771,12.771,0,0,0,43,8ZM10,12h8.051c-.026.331-.051.662-.051,1s.025.669.051,1H10Zm8.363-2H10V8h9A12.985,12.985,0,0,0,18.363,10ZM2,15V11A3,3,0,0,1,5,8H8V18H5A3,3,0,0,1,2,15ZM14,48H12a9.009,9.009,0,0,1-8.939-8H22.939A9.009,9.009,0,0,1,14,48Zm8.382-10H20V34H18v4H16V32H14v6H12V28H10V38H8V36H6v2H3.618l9-18h.764ZM10,18V16h8.363A12.772,12.772,0,0,0,19,18ZM22.3,60l6-4h5.4l6,4ZM33,54H29V25.83a11.85,11.85,0,0,0,4,0ZM31,24A11,11,0,1,1,42,13,11.013,11.013,0,0,1,31,24Zm12.637-8H52v2H43a12.985,12.985,0,0,0,.64-2ZM50,48H48a9.009,9.009,0,0,1-8.939-8H58.939A9.009,9.009,0,0,1,50,48Zm8.382-10H56V36H54v2H52V32H50v6H48V28H46V38H44V34H42v4H39.618l9-18h.764Z"/>
        <path id="Trazado_1042681" data-name="Trazado 1042681" d="M30,8h2a2,2,0,0,1,2,2h2a4,4,0,0,0-4-4V4H30V6a4,4,0,0,0,0,8h2a2,2,0,0,1,0,4H30a2,2,0,0,1-2-2V15H26v1a4,4,0,0,0,4,4v2h2V20a4,4,0,0,0,0-8H30a2,2,0,0,1,0-4Z"/>
      </g>
    </g>
  </g>
</svg>
