<svg xmlns="http://www.w3.org/2000/svg" xmlns:xlink="http://www.w3.org/1999/xlink" width="113" height="113" viewBox="0 0 113 113">
  <defs>
    <filter id="Trazado_982547" x="0" y="0" width="113" height="113" filterUnits="userSpaceOnUse">
      <feOffset dy="3" input="SourceAlpha"/>
      <feGaussianBlur stdDeviation="3" result="blur"/>
      <feFlood flood-opacity="0.161"/>
      <feComposite operator="in" in2="blur"/>
      <feComposite in="SourceGraphic"/>
    </filter>
  </defs>
  <g id="Grupo_1182506" data-name="Grupo 1182506" transform="translate(-325 -1666.16)">
    <g id="Grupo_1174901" data-name="Grupo 1174901" transform="translate(1 -4281.855)">
      <g id="Grupo_1174057" data-name="Grupo 1174057" transform="translate(333 5954.015)">
        <g id="Grupo_1172010" data-name="Grupo 1172010">
          <g id="Grupo_1171046" data-name="Grupo 1171046">
            <g id="Grupo_1148525" data-name="Grupo 1148525">
              <g transform="matrix(1, 0, 0, 1, -9, -6)" filter="url(#Trazado_982547)">
                <g id="Trazado_982547-2" data-name="Trazado 982547" transform="translate(9 6)" fill="#f2f7e5">
                  <path d="M 47.5 93.5 C 41.28937149047852 93.5 35.26533508300781 92.28397369384766 29.59518623352051 89.88570404052734 C 24.11771965026855 87.56893157958984 19.19813346862793 84.25196075439453 14.97309303283691 80.02691650390625 C 10.74804019927979 75.80186462402344 7.431066513061523 70.88229370117188 5.114293098449707 65.40481567382812 C 2.716026782989502 59.73468017578125 1.5 53.71062850952148 1.5 47.5 C 1.5 41.28937149047852 2.716026782989502 35.26533508300781 5.114293098449707 29.59518623352051 C 7.431066513061523 24.11771965026855 10.74804019927979 19.19813346862793 14.97309303283691 14.97309303283691 C 19.19813346862793 10.74804019927979 24.11771965026855 7.431066513061523 29.59518623352051 5.114293098449707 C 35.26533508300781 2.716026782989502 41.28937149047852 1.5 47.5 1.5 C 53.71062850952148 1.5 59.73468017578125 2.716026782989502 65.40481567382812 5.114293098449707 C 70.88229370117188 7.431066513061523 75.80186462402344 10.74804019927979 80.02691650390625 14.97309303283691 C 84.25196075439453 19.19813346862793 87.56893157958984 24.11771965026855 89.88570404052734 29.59518623352051 C 92.28397369384766 35.26533508300781 93.5 41.28937149047852 93.5 47.5 C 93.5 53.71062850952148 92.28397369384766 59.73468017578125 89.88570404052734 65.40481567382812 C 87.56893157958984 70.88229370117188 84.25196075439453 75.80186462402344 80.02691650390625 80.02691650390625 C 75.80186462402344 84.25196075439453 70.88229370117188 87.56893157958984 65.40481567382812 89.88570404052734 C 59.73468017578125 92.28397369384766 53.71062850952148 93.5 47.5 93.5 Z" stroke="none"/>
                  <path d="M 47.5 3 C 41.49121475219727 3 35.66376876831055 4.176155090332031 30.17950439453125 6.495796203613281 C 24.88084411621094 8.736953735351562 20.12152099609375 11.94598388671875 16.03375244140625 16.03375244140625 C 11.94598388671875 20.12152099609375 8.736953735351562 24.88084411621094 6.495796203613281 30.17950439453125 C 4.176155090332031 35.66376876831055 3 41.49121475219727 3 47.5 C 3 53.50878524780273 4.176155090332031 59.33623123168945 6.495796203613281 64.82049560546875 C 8.736953735351562 70.11915588378906 11.94598388671875 74.87847900390625 16.03375244140625 78.96624755859375 C 20.12152099609375 83.05401611328125 24.88084411621094 86.26304626464844 30.17950439453125 88.50419616699219 C 35.66376876831055 90.82384490966797 41.49121475219727 92 47.5 92 C 53.50878524780273 92 59.33623123168945 90.82384490966797 64.82049560546875 88.50419616699219 C 70.11915588378906 86.26304626464844 74.87847900390625 83.05401611328125 78.96624755859375 78.96624755859375 C 83.05401611328125 74.87847900390625 86.26304626464844 70.11915588378906 88.50419616699219 64.82049560546875 C 90.82384490966797 59.33623123168945 92 53.50878524780273 92 47.5 C 92 41.49121475219727 90.82384490966797 35.66376876831055 88.50419616699219 30.17950439453125 C 86.26304626464844 24.88084411621094 83.05401611328125 20.12152099609375 78.96624755859375 16.03375244140625 C 74.87847900390625 11.94598388671875 70.11915588378906 8.736953735351562 64.82049560546875 6.495796203613281 C 59.33623123168945 4.176155090332031 53.50878524780273 3 47.5 3 M 47.5 0 C 73.7335205078125 0 95 21.2664794921875 95 47.5 C 95 73.7335205078125 73.7335205078125 95 47.5 95 C 21.2664794921875 95 0 73.7335205078125 0 47.5 C 0 21.2664794921875 21.2664794921875 0 47.5 0 Z" stroke="none" fill="#86b60c"/>
                </g>
              </g>
            </g>
          </g>
        </g>
      </g>
    </g>
    <g id="presupuesto_10_" data-name="presupuesto (10)" transform="translate(350 1688)">
      <g id="Grupo_1182504" data-name="Grupo 1182504">
        <g id="Grupo_1182490" data-name="Grupo 1182490">
          <path id="Trazado_1042682" data-name="Trazado 1042682" d="M56,4V19l-.04.04L49,26H44a5.01,5.01,0,0,0-4,2H26V52H48v4H22V26A10,10,0,0,0,12,16V12.83a1.968,1.968,0,0,1,.18-.83H20a2.006,2.006,0,0,0,2-2V2.18A1.968,1.968,0,0,1,22.83,2H54a2.006,2.006,0,0,1,2,2Z" fill="#e6e9ed"/>
        </g>
        <g id="Grupo_1182491" data-name="Grupo 1182491">
          <path id="Trazado_1042683" data-name="Trazado 1042683" d="M45.25,44.8a5.45,5.45,0,0,1-1.21-1.33,5.636,5.636,0,0,1-.8-1.7h-.01L39,46l-1,.4-3.7,1.48A1.682,1.682,0,0,1,32.03,46a1.71,1.71,0,0,1,.09-.3L34,41l1-1,6-6a2.006,2.006,0,0,1-2-2V31a4.941,4.941,0,0,1,1-3H26V52H48V47Z" fill="#ffeaa7"/>
        </g>
        <g id="Grupo_1182492" data-name="Grupo 1182492">
          <path id="Trazado_1042684" data-name="Trazado 1042684" d="M26,6H52v4H26Z" fill="#ff826e"/>
        </g>
        <g id="Grupo_1182493" data-name="Grupo 1182493">
          <path id="Trazado_1042685" data-name="Trazado 1042685" d="M22,2.18V10a2.006,2.006,0,0,1-2,2H12.18a2.017,2.017,0,0,1,.41-.59l8.82-8.82A2.017,2.017,0,0,1,22,2.18Z" fill="#b4dd7f"/>
        </g>
        <g id="Grupo_1182494" data-name="Grupo 1182494">
          <path id="Trazado_1042686" data-name="Trazado 1042686" d="M43,32v8.12a5.678,5.678,0,0,0,.24,1.65h-.01L39,46l-5-5,1-1,6-6a2.015,2.015,0,0,0,2-2Z" fill="#ff826e"/>
        </g>
        <g id="Grupo_1182495" data-name="Grupo 1182495">
          <path id="Trazado_1042687" data-name="Trazado 1042687" d="M56,19a3.536,3.536,0,0,1,4.96,5.04l-5.84,5.84L47,38V33a2.993,2.993,0,0,0-.88-2.12,3.058,3.058,0,0,0-1.25-.75L49,26l6.96-6.96Z" fill="#ff826e"/>
        </g>
        <g id="Grupo_1182496" data-name="Grupo 1182496">
          <path id="Trazado_1042688" data-name="Trazado 1042688" d="M39,46l-1,.4-3.7,1.48A1.682,1.682,0,0,1,32.03,46a1.71,1.71,0,0,1,.09-.3L34,41Z" fill="#aab2bd"/>
        </g>
        <g id="Grupo_1182497" data-name="Grupo 1182497">
          <path id="Trazado_1042689" data-name="Trazado 1042689" d="M59,44l2,12H48V47Z" fill="#b4dd7f"/>
        </g>
        <g id="Grupo_1182498" data-name="Grupo 1182498">
          <path id="Trazado_1042690" data-name="Trazado 1042690" d="M42.41,33.41A1.955,1.955,0,0,1,41,34a2.006,2.006,0,0,1-2-2V31a4.941,4.941,0,0,1,1-3,5.01,5.01,0,0,1,4-2h5l-4.13,4.13A3.1,3.1,0,0,0,44,30a1,1,0,0,0-1,1v1A1.955,1.955,0,0,1,42.41,33.41Z" fill="#f0d0b4"/>
        </g>
        <g id="Grupo_1182499" data-name="Grupo 1182499">
          <path id="Trazado_1042691" data-name="Trazado 1042691" d="M55.65,30.85A27.493,27.493,0,0,1,59,44L48,47l-2.75-2.2a5.45,5.45,0,0,1-1.21-1.33A6.024,6.024,0,0,1,43,40.12V31a1,1,0,0,1,1-1,3.1,3.1,0,0,1,.87.13,3.058,3.058,0,0,1,1.25.75A2.993,2.993,0,0,1,47,33v5l8.12-8.12Z" fill="#f0d0b4"/>
        </g>
        <g id="Grupo_1182500" data-name="Grupo 1182500">
          <path id="Trazado_1042692" data-name="Trazado 1042692" d="M22,26V58a4,4,0,0,1-4,4H6a4,4,0,0,1-4-4V26a9.991,9.991,0,0,0,4,8v7a1,1,0,0,0,1,1H17a1,1,0,0,0,1-1V34A9.991,9.991,0,0,0,22,26Z" fill="#969faa"/>
        </g>
        <g id="Grupo_1182501" data-name="Grupo 1182501">
          <path id="Trazado_1042693" data-name="Trazado 1042693" d="M17.078,57.966H7.025a1,1,0,0,1-1-1v-9.96a1,1,0,0,1,1-1H17.077a1,1,0,0,1,1,1v9.96A1,1,0,0,1,17.078,57.966Z" fill="#ff826e"/>
        </g>
        <g id="Grupo_1182502" data-name="Grupo 1182502">
          <path id="Trazado_1042694" data-name="Trazado 1042694" d="M18,34v7a1,1,0,0,1-1,1H7a1,1,0,0,1-1-1V34a10,10,0,0,0,12,0Z" fill="#69d6f4"/>
        </g>
        <g id="Grupo_1182503" data-name="Grupo 1182503">
          <path id="Trazado_1042695" data-name="Trazado 1042695" d="M22,26A10,10,0,1,1,12,16,9.991,9.991,0,0,1,22,26Z" fill="#fcd770"/>
        </g>
      </g>
      <g id="Grupo_1182505" data-name="Grupo 1182505">
        <path id="Trazado_1042696" data-name="Trazado 1042696" d="M56.526,30.376l-.172-.316,5.318-5.318A4.516,4.516,0,0,0,57,17.26V4a3,3,0,0,0-3-3H22.829a2.982,2.982,0,0,0-2.122.879l-8.828,8.828A2.978,2.978,0,0,0,11,12.829v2.222A11.01,11.01,0,0,0,1,26V58a5.006,5.006,0,0,0,5,5H18a5.006,5.006,0,0,0,5-5V57H62.181L60,43.9A28.54,28.54,0,0,0,56.526,30.376Zm1.45,12.867L48.227,45.9l-2.351-1.881A4.98,4.98,0,0,1,44,40.116V31a2,2,0,0,1,2,2v7h2V38.414l6.874-6.874A26.514,26.514,0,0,1,57.976,43.243ZM44,29a2,2,0,0,0-2,2v1a1,1,0,0,1-2,0V31a4,4,0,0,1,4-4h2.586l-2.054,2.054A3.9,3.9,0,0,0,44,29ZM33.049,46.072l1.316-3.292,2.855,2.855-3.293,1.317A.693.693,0,0,1,33,46.323.653.653,0,0,1,33.049,46.072ZM39,44.586,35.414,41l6.047-6.047A2.918,2.918,0,0,0,42,34.815v5.3a7.034,7.034,0,0,0,.136,1.334ZM38.184,33H27V29H38.35A5.976,5.976,0,0,0,38,31v1A2.966,2.966,0,0,0,38.184,33ZM27,35H38.586l-4,4H27Zm0,6h5.923l-1.6,4H27Zm0,6h4.1a2.668,2.668,0,0,0,3.574,1.809L37,47.877V51H27Zm12,.077.562-.225,3.33-3.33c.036.065.069.131.108.195V51H39Zm6-1.2,2,1.6V51H45ZM61,21.536a2.52,2.52,0,0,1-.743,1.793L48,35.586V33a3.976,3.976,0,0,0-1.494-3.092L56.671,19.743A2.536,2.536,0,0,1,61,21.536ZM21,4.414V10a1,1,0,0,1-1,1H14.414ZM12,17a9,9,0,1,1-9,9,9.011,9.011,0,0,1,9-9ZM7,35.786a10.9,10.9,0,0,0,10,0V41H7ZM18,61H6a3,3,0,0,1-3-3V32.305a11.1,11.1,0,0,0,2,2.174V41a2,2,0,0,0,2,2H17a2,2,0,0,0,2-2V34.479a11.1,11.1,0,0,0,2-2.174V58A3,3,0,0,1,18,61Zm5-6V26A11.01,11.01,0,0,0,13,15.051V13h7a3,3,0,0,0,3-3V3H54a1,1,0,0,1,1,1V18.586L48.586,25H44a5.983,5.983,0,0,0-4.46,2H25V53H47v2Zm26,0V47.764l9.195-2.508L59.819,55Z"/>
        <path id="Trazado_1042697" data-name="Trazado 1042697" d="M11,30.855V33h2V30.855a2.844,2.844,0,0,0,.422-5.262l-1.95-.974A.855.855,0,0,1,11.854,23h.292a.855.855,0,0,1,.854.854V25h2V23.854a2.849,2.849,0,0,0-2-2.709V19H11v2.145a2.844,2.844,0,0,0-.422,5.262l1.95.974A.855.855,0,0,1,12.146,29h-.292A.855.855,0,0,1,11,28.146V27H9v1.146A2.849,2.849,0,0,0,11,30.855Z"/>
        <path id="Trazado_1042698" data-name="Trazado 1042698" d="M17,45H7a2,2,0,0,0-2,2V57a2,2,0,0,0,2,2H17a2,2,0,0,0,2-2V47A2,2,0,0,0,17,45Zm0,4H15V47h2Zm-4,8H11V55h2Zm0-4H11V51h2ZM9,53H7V51H9Zm2-4V47h2v2ZM9,47v2H7V47ZM7,55H9v2H7Zm8,2V51h2v6Z"/>
        <path id="Trazado_1042699" data-name="Trazado 1042699" d="M53,5H25v6H53ZM51,9H27V7H51Z"/>
        <path id="Trazado_1042700" data-name="Trazado 1042700" d="M25,13H53v2H25Z"/>
        <path id="Trazado_1042701" data-name="Trazado 1042701" d="M25,17H53v2H25Z"/>
        <path id="Trazado_1042702" data-name="Trazado 1042702" d="M25,21H41v2H25Z"/>
      </g>
    </g>
  </g>
</svg>
