<svg xmlns="http://www.w3.org/2000/svg" xmlns:xlink="http://www.w3.org/1999/xlink" width="113" height="113" viewBox="0 0 113 113">
  <defs>
    <filter id="Trazado_982547" x="0" y="0" width="113" height="113" filterUnits="userSpaceOnUse">
      <feOffset dy="3" input="SourceAlpha"/>
      <feGaussianBlur stdDeviation="3" result="blur"/>
      <feFlood flood-opacity="0.161"/>
      <feComposite operator="in" in2="blur"/>
      <feComposite in="SourceGraphic"/>
    </filter>
  </defs>
  <g id="Grupo_1182508" data-name="Grupo 1182508" transform="translate(-745 -1666)">
    <g id="Grupo_1180392" data-name="Grupo 1180392" transform="translate(0.539 870)">
      <g id="Grupo_1174902" data-name="Grupo 1174902" transform="translate(0.961 -5152.015)">
        <g id="Grupo_1174055" data-name="Grupo 1174055" transform="translate(752.5 5954.015)">
          <g id="Grupo_1172010" data-name="Grupo 1172010">
            <g id="Grupo_1171046" data-name="Grupo 1171046">
              <g id="Grupo_1148525" data-name="Grupo 1148525">
                <g transform="matrix(1, 0, 0, 1, -9, -6)" filter="url(#Trazado_982547)">
                  <g id="Trazado_982547-2" data-name="Trazado 982547" transform="translate(9 6)" fill="#f2f7e5">
                    <path d="M 47.5 93.5 C 41.28937149047852 93.5 35.26533508300781 92.28397369384766 29.59518623352051 89.88570404052734 C 24.11771965026855 87.56893157958984 19.19813346862793 84.25196075439453 14.97309303283691 80.02691650390625 C 10.74804019927979 75.80186462402344 7.431066513061523 70.88229370117188 5.114293098449707 65.40481567382812 C 2.716026782989502 59.73468017578125 1.5 53.71062850952148 1.5 47.5 C 1.5 41.28937149047852 2.716026782989502 35.26533508300781 5.114293098449707 29.59518623352051 C 7.431066513061523 24.11771965026855 10.74804019927979 19.19813346862793 14.97309303283691 14.97309303283691 C 19.19813346862793 10.74804019927979 24.11771965026855 7.431066513061523 29.59518623352051 5.114293098449707 C 35.26533508300781 2.716026782989502 41.28937149047852 1.5 47.5 1.5 C 53.71062850952148 1.5 59.73468017578125 2.716026782989502 65.40481567382812 5.114293098449707 C 70.88229370117188 7.431066513061523 75.80186462402344 10.74804019927979 80.02691650390625 14.97309303283691 C 84.25196075439453 19.19813346862793 87.56893157958984 24.11771965026855 89.88570404052734 29.59518623352051 C 92.28397369384766 35.26533508300781 93.5 41.28937149047852 93.5 47.5 C 93.5 53.71062850952148 92.28397369384766 59.73468017578125 89.88570404052734 65.40481567382812 C 87.56893157958984 70.88229370117188 84.25196075439453 75.80186462402344 80.02691650390625 80.02691650390625 C 75.80186462402344 84.25196075439453 70.88229370117188 87.56893157958984 65.40481567382812 89.88570404052734 C 59.73468017578125 92.28397369384766 53.71062850952148 93.5 47.5 93.5 Z" stroke="none"/>
                    <path d="M 47.5 3 C 41.49121475219727 3 35.66376876831055 4.176155090332031 30.17950439453125 6.495796203613281 C 24.88084411621094 8.736953735351562 20.12152099609375 11.94598388671875 16.03375244140625 16.03375244140625 C 11.94598388671875 20.12152099609375 8.736953735351562 24.88084411621094 6.495796203613281 30.17950439453125 C 4.176155090332031 35.66376876831055 3 41.49121475219727 3 47.5 C 3 53.50878524780273 4.176155090332031 59.33623123168945 6.495796203613281 64.82049560546875 C 8.736953735351562 70.11915588378906 11.94598388671875 74.87847900390625 16.03375244140625 78.96624755859375 C 20.12152099609375 83.05401611328125 24.88084411621094 86.26304626464844 30.17950439453125 88.50419616699219 C 35.66376876831055 90.82384490966797 41.49121475219727 92 47.5 92 C 53.50878524780273 92 59.33623123168945 90.82384490966797 64.82049560546875 88.50419616699219 C 70.11915588378906 86.26304626464844 74.87847900390625 83.05401611328125 78.96624755859375 78.96624755859375 C 83.05401611328125 74.87847900390625 86.26304626464844 70.11915588378906 88.50419616699219 64.82049560546875 C 90.82384490966797 59.33623123168945 92 53.50878524780273 92 47.5 C 92 41.49121475219727 90.82384490966797 35.66376876831055 88.50419616699219 30.17950439453125 C 86.26304626464844 24.88084411621094 83.05401611328125 20.12152099609375 78.96624755859375 16.03375244140625 C 74.87847900390625 11.94598388671875 70.11915588378906 8.736953735351562 64.82049560546875 6.495796203613281 C 59.33623123168945 4.176155090332031 53.50878524780273 3 47.5 3 M 47.5 0 C 73.7335205078125 0 95 21.2664794921875 95 47.5 C 95 73.7335205078125 73.7335205078125 95 47.5 95 C 21.2664794921875 95 0 73.7335205078125 0 47.5 C 0 21.2664794921875 21.2664794921875 0 47.5 0 Z" stroke="none" fill="#86b60c"/>
                  </g>
                </g>
              </g>
            </g>
          </g>
        </g>
      </g>
    </g>
    <g id="Pay_per_click" data-name="Pay per click" transform="translate(766 1690)">
      <path id="Trazado_1042703" data-name="Trazado 1042703" d="M40.27,31H40v1a2,2,0,0,1,.27-1Z" fill="#2488ff"/>
      <path id="Trazado_1042704" data-name="Trazado 1042704" d="M19,6H58V29h3V3H19Z" fill="#3b6c17"/>
      <path id="Trazado_1042705" data-name="Trazado 1042705" d="M19,6H16V9H55V32h3V6Z" fill="#4e901e"/>
      <path id="Trazado_1042706" data-name="Trazado 1042706" d="M30,49H27v6H49V49H30Z" fill="#006df0"/>
      <path id="Trazado_1042707" data-name="Trazado 1042707" d="M29,55H47v6H29Z" fill="#004fac"/>
      <path id="Trazado_1042708" data-name="Trazado 1042708" d="M13,9H55V35H13Z" fill="#5eac24"/>
      <path id="Trazado_1042709" data-name="Trazado 1042709" d="M51,16V28a3,3,0,0,0-3,3H20a3,3,0,0,0-3-3V16a3,3,0,0,0,3-3H48A3,3,0,0,0,51,16Z" fill="#7ed63e"/>
      <circle id="Elipse_11859" data-name="Elipse 11859" cx="10" cy="10" r="10" transform="translate(3 32)" fill="#ff9811"/>
      <circle id="Elipse_11860" data-name="Elipse 11860" cx="5" cy="5" r="5" transform="translate(29 17)" fill="#b2fa09"/>
      <path id="Trazado_1042710" data-name="Trazado 1042710" d="M29,55H47v2H29Z" fill="#00479b"/>
      <path id="Trazado_1042711" data-name="Trazado 1042711" d="M34,35H55V16C55,31.477,49.477,35,34,35Z" fill="#447e1a"/>
      <path id="Trazado_1042712" data-name="Trazado 1042712" d="M47.79,46.62A3.933,3.933,0,0,0,48,45.35V34a2,2,0,0,0-4,0V32a2,2,0,0,0-.27-1,1.813,1.813,0,0,0-.32-.41A1.955,1.955,0,0,0,42,30a2,2,0,0,0-2,2V31a2,2,0,0,0-4,0V23a2.01,2.01,0,0,0-2.18-1.99A2.076,2.076,0,0,0,32,23.11V34H30a2,2,0,0,0-2,2v8.79a3.993,3.993,0,0,0,.67,2.22L30,49H47Z" fill="#ffbcab"/>
      <g id="Grupo_1182507" data-name="Grupo 1182507">
        <path id="Trazado_1042713" data-name="Trazado 1042713" d="M47.314,29.442a1,1,0,0,0,1.843.778A1.994,1.994,0,0,1,51,29a1,1,0,0,0,1-1V16a1,1,0,0,0-1-1,2,2,0,0,1-2-2,1,1,0,0,0-1-1H20a1,1,0,0,0-1,1,2,2,0,0,1-2,2,1,1,0,0,0-1,1V28a1,1,0,0,0,1,1,2,2,0,0,1,2,2,1,1,0,0,0,1,1h9a1,1,0,1,0,0-2H20.874A4.016,4.016,0,0,0,18,27.126V16.874A4.016,4.016,0,0,0,20.874,14H47.126A4.016,4.016,0,0,0,50,16.874V27.126A3.987,3.987,0,0,0,47.314,29.442Z" fill="#231f20"/>
        <path id="Trazado_1042714" data-name="Trazado 1042714" d="M44,21a1,1,0,0,0,0,2h2a1,1,0,0,0,0-2Z" fill="#231f20"/>
        <path id="Trazado_1042715" data-name="Trazado 1042715" d="M22,21a1,1,0,0,0,0,2h2a1,1,0,0,0,0-2Z" fill="#231f20"/>
        <path id="Trazado_1042716" data-name="Trazado 1042716" d="M61,2H19a1,1,0,0,0-1,1V5H16a1,1,0,0,0-1,1V8H13a1,1,0,0,0-1,1V29a1,1,0,0,0,2,0V10H54V34H51a1,1,0,0,0,0,2h4a1,1,0,0,0,1-1V33h2a1,1,0,0,0,1-1V30h2a1,1,0,0,0,1-1V3A1,1,0,0,0,61,2ZM57,31H56V9a1,1,0,0,0-1-1H17V7H57Zm3-3H59V6a1,1,0,0,0-1-1H20V4H60Z" fill="#231f20"/>
        <path id="Trazado_1042717" data-name="Trazado 1042717" d="M49,48h-.614l.35-1.057A4.91,4.91,0,0,0,49,45.35V34a2.928,2.928,0,0,0-.874-2.108,3.062,3.062,0,0,0-3.232-.681,3.012,3.012,0,0,0-.306-.725,2.659,2.659,0,0,0-.462-.594,3.065,3.065,0,0,0-3.6-.509,2.774,2.774,0,0,0-.4-.491A3.057,3.057,0,0,0,37,28.171v-.984a6,6,0,1,0-6,0V33H30a3.005,3.005,0,0,0-3,3v8.79a4.987,4.987,0,0,0,.838,2.775l.291.435H27a1,1,0,0,0-1,1v6a1,1,0,0,0,1,1h1v5a1,1,0,0,0,1,1H47a1,1,0,0,0,1-1V56h1a1,1,0,0,0,1-1V49a1,1,0,0,0-1-1ZM30,22a4,4,0,1,1,7,2.644V23a3.01,3.01,0,0,0-3.266-2.986A3.075,3.075,0,0,0,31,23.11v1.534A4.008,4.008,0,0,1,30,22Zm-.5,24.455A2.987,2.987,0,0,1,29,44.79V36a1.006,1.006,0,0,1,1-1h1v7a1,1,0,0,0,2,0V23.11a1.081,1.081,0,0,1,.916-1.1A1.01,1.01,0,0,1,35,23V37a1,1,0,0,0,2,0V31a1,1,0,0,1,1-1,.974.974,0,0,1,.712.306A.957.957,0,0,1,39,31v6a1,1,0,0,0,2,0V32a1,1,0,0,1,1.731-.676.842.842,0,0,1,.136.181A.992.992,0,0,1,43,32v5a1,1,0,0,0,2,0V34a1,1,0,0,1,1-1,.974.974,0,0,1,.712.306A.957.957,0,0,1,47,34V45.35a2.948,2.948,0,0,1-.159.955L46.278,48H30.535ZM46,60H30V56H46Zm2-6H28V50H48Z" fill="#231f20"/>
        <path id="Trazado_1042718" data-name="Trazado 1042718" d="M43,51h3v2H43Z" fill="#231f20"/>
        <path id="Trazado_1042719" data-name="Trazado 1042719" d="M13,31A11,11,0,1,0,24,42,11,11,0,0,0,13,31Zm0,20a9,9,0,1,1,9-9,9,9,0,0,1-9,9Z" fill="#231f20"/>
        <path id="Trazado_1042720" data-name="Trazado 1042720" d="M14,37h-.006L14,35H12l-.006,2A2,2,0,0,0,10,39v2a2,2,0,0,0,2,2h2v2H12V44H10v1a2,2,0,0,0,1.994,2L12,49h2l-.006-2H14a2,2,0,0,0,2-2V43a2,2,0,0,0-2-2H12V39h2v1h2V39a2,2,0,0,0-2-2Z" fill="#231f20"/>
        <path id="Trazado_1042721" data-name="Trazado 1042721" d="M25,34H24a1,1,0,0,0,0,2h1a1,1,0,0,0,0-2Z" fill="#231f20"/>
      </g>
    </g>
  </g>
</svg>
