<svg xmlns="http://www.w3.org/2000/svg" xmlns:xlink="http://www.w3.org/1999/xlink" width="113" height="113" viewBox="0 0 113 113">
  <defs>
    <filter id="Trazado_982547" x="0" y="0" width="113" height="113" filterUnits="userSpaceOnUse">
      <feOffset dy="3" input="SourceAlpha"/>
      <feGaussianBlur stdDeviation="3" result="blur"/>
      <feFlood flood-opacity="0.161"/>
      <feComposite operator="in" in2="blur"/>
      <feComposite in="SourceGraphic"/>
    </filter>
  </defs>
  <g id="Grupo_1182510" data-name="Grupo 1182510" transform="translate(-1165 -1666)">
    <g id="Grupo_1180399" data-name="Grupo 1180399" transform="translate(0.539 870)">
      <g id="Grupo_1174903" data-name="Grupo 1174903" transform="translate(0.461 -5152.015)">
        <g id="Grupo_1174056" data-name="Grupo 1174056" transform="translate(1173 5954.015)">
          <g id="Grupo_1172010" data-name="Grupo 1172010">
            <g id="Grupo_1171046" data-name="Grupo 1171046">
              <g id="Grupo_1148525" data-name="Grupo 1148525">
                <g transform="matrix(1, 0, 0, 1, -9, -6)" filter="url(#Trazado_982547)">
                  <g id="Trazado_982547-2" data-name="Trazado 982547" transform="translate(9 6)" fill="#f2f7e5">
                    <path d="M 47.5 93.5 C 41.28937149047852 93.5 35.26533508300781 92.28397369384766 29.59518623352051 89.88570404052734 C 24.11771965026855 87.56893157958984 19.19813346862793 84.25196075439453 14.97309303283691 80.02691650390625 C 10.74804019927979 75.80186462402344 7.431066513061523 70.88229370117188 5.114293098449707 65.40481567382812 C 2.716026782989502 59.73468017578125 1.5 53.71062850952148 1.5 47.5 C 1.5 41.28937149047852 2.716026782989502 35.26533508300781 5.114293098449707 29.59518623352051 C 7.431066513061523 24.11771965026855 10.74804019927979 19.19813346862793 14.97309303283691 14.97309303283691 C 19.19813346862793 10.74804019927979 24.11771965026855 7.431066513061523 29.59518623352051 5.114293098449707 C 35.26533508300781 2.716026782989502 41.28937149047852 1.5 47.5 1.5 C 53.71062850952148 1.5 59.73468017578125 2.716026782989502 65.40481567382812 5.114293098449707 C 70.88229370117188 7.431066513061523 75.80186462402344 10.74804019927979 80.02691650390625 14.97309303283691 C 84.25196075439453 19.19813346862793 87.56893157958984 24.11771965026855 89.88570404052734 29.59518623352051 C 92.28397369384766 35.26533508300781 93.5 41.28937149047852 93.5 47.5 C 93.5 53.71062850952148 92.28397369384766 59.73468017578125 89.88570404052734 65.40481567382812 C 87.56893157958984 70.88229370117188 84.25196075439453 75.80186462402344 80.02691650390625 80.02691650390625 C 75.80186462402344 84.25196075439453 70.88229370117188 87.56893157958984 65.40481567382812 89.88570404052734 C 59.73468017578125 92.28397369384766 53.71062850952148 93.5 47.5 93.5 Z" stroke="none"/>
                    <path d="M 47.5 3 C 41.49121475219727 3 35.66376876831055 4.176155090332031 30.17950439453125 6.495796203613281 C 24.88084411621094 8.736953735351562 20.12152099609375 11.94598388671875 16.03375244140625 16.03375244140625 C 11.94598388671875 20.12152099609375 8.736953735351562 24.88084411621094 6.495796203613281 30.17950439453125 C 4.176155090332031 35.66376876831055 3 41.49121475219727 3 47.5 C 3 53.50878524780273 4.176155090332031 59.33623123168945 6.495796203613281 64.82049560546875 C 8.736953735351562 70.11915588378906 11.94598388671875 74.87847900390625 16.03375244140625 78.96624755859375 C 20.12152099609375 83.05401611328125 24.88084411621094 86.26304626464844 30.17950439453125 88.50419616699219 C 35.66376876831055 90.82384490966797 41.49121475219727 92 47.5 92 C 53.50878524780273 92 59.33623123168945 90.82384490966797 64.82049560546875 88.50419616699219 C 70.11915588378906 86.26304626464844 74.87847900390625 83.05401611328125 78.96624755859375 78.96624755859375 C 83.05401611328125 74.87847900390625 86.26304626464844 70.11915588378906 88.50419616699219 64.82049560546875 C 90.82384490966797 59.33623123168945 92 53.50878524780273 92 47.5 C 92 41.49121475219727 90.82384490966797 35.66376876831055 88.50419616699219 30.17950439453125 C 86.26304626464844 24.88084411621094 83.05401611328125 20.12152099609375 78.96624755859375 16.03375244140625 C 74.87847900390625 11.94598388671875 70.11915588378906 8.736953735351562 64.82049560546875 6.495796203613281 C 59.33623123168945 4.176155090332031 53.50878524780273 3 47.5 3 M 47.5 0 C 73.7335205078125 0 95 21.2664794921875 95 47.5 C 95 73.7335205078125 73.7335205078125 95 47.5 95 C 21.2664794921875 95 0 73.7335205078125 0 47.5 C 0 21.2664794921875 21.2664794921875 0 47.5 0 Z" stroke="none" fill="#86b60c"/>
                  </g>
                </g>
              </g>
            </g>
          </g>
        </g>
      </g>
    </g>
    <g id="clasificacion-de-datos" transform="translate(1188.603 1671.549)">
      <g id="Grupo_1182509" data-name="Grupo 1182509" transform="translate(1.265 20.487)">
        <path id="Trazado_1042722" data-name="Trazado 1042722" d="M417.925,342.857a.5.5,0,0,0-.5-.5h-8.709a.5.5,0,0,0,0,1h8.709A.5.5,0,0,0,417.925,342.857Z" transform="translate(-358.7 -303.412)" fill="#6da544" fill-rule="evenodd"/>
        <path id="Trazado_1042723" data-name="Trazado 1042723" d="M417.427,364.289h-8.709a.5.5,0,0,0-.5.5.495.495,0,0,0,.5.5h8.709a.494.494,0,0,0,.5-.5A.5.5,0,0,0,417.427,364.289Z" transform="translate(-358.7 -322.614)" fill="#6da544" fill-rule="evenodd"/>
        <path id="Trazado_1042724" data-name="Trazado 1042724" d="M417.925,320.924a.494.494,0,0,0-.5-.5h-8.709a.495.495,0,0,0-.5.5.5.5,0,0,0,.5.5h8.709A.5.5,0,0,0,417.925,320.924Z" transform="translate(-358.699 -284.207)" fill="#6da544" fill-rule="evenodd"/>
        <path id="Trazado_1042725" data-name="Trazado 1042725" d="M417.925,204.7a.494.494,0,0,0-.5-.5h-8.709a.495.495,0,0,0-.5.5.5.5,0,0,0,.5.5h8.709A.5.5,0,0,0,417.925,204.7Z" transform="translate(-358.699 -182.438)" fill="#6da544" fill-rule="evenodd"/>
        <path id="Trazado_1042726" data-name="Trazado 1042726" d="M417.925,182.692a.5.5,0,0,0-.5-.5h-8.709a.5.5,0,0,0-.5.5.495.495,0,0,0,.5.5h8.709a.494.494,0,0,0,.5-.5Z" transform="translate(-358.7 -163.169)" fill="#6da544" fill-rule="evenodd"/>
        <path id="Trazado_1042727" data-name="Trazado 1042727" d="M417.925,226.625a.494.494,0,0,0-.5-.5h-8.709a.495.495,0,0,0-.5.5.5.5,0,0,0,.5.5h8.709A.5.5,0,0,0,417.925,226.625Z" transform="translate(-358.699 -201.638)" fill="#6da544" fill-rule="evenodd"/>
        <path id="Trazado_1042728" data-name="Trazado 1042728" d="M417.925,66.462a.5.5,0,0,0-.5-.5h-8.709a.5.5,0,0,0-.5.5.495.495,0,0,0,.5.5h8.709a.494.494,0,0,0,.5-.5Z" transform="translate(-358.7 -61.396)" fill="#6da544" fill-rule="evenodd"/>
        <path id="Trazado_1042729" data-name="Trazado 1042729" d="M417.925,44.53a.5.5,0,0,0-.5-.5h-8.709a.5.5,0,1,0,0,1h8.709A.5.5,0,0,0,417.925,44.53Z" transform="translate(-358.7 -42.193)" fill="#6da544" fill-rule="evenodd"/>
        <path id="Trazado_1042730" data-name="Trazado 1042730" d="M417.925,88.4a.5.5,0,0,0-.5-.5h-8.709a.5.5,0,0,0-.5.5.495.495,0,0,0,.5.5h8.709a.494.494,0,0,0,.5-.5Z" transform="translate(-358.7 -80.604)" fill="#6da544" fill-rule="evenodd"/>
        <path id="Trazado_1042731" data-name="Trazado 1042731" d="M392.461,305.568h13.626v10.148H392.461Z" transform="translate(-344.901 -271.197)" fill="#6da544"/>
        <path id="Trazado_1042732" data-name="Trazado 1042732" d="M392.461,167.406h13.626v10.139H392.461Z" transform="translate(-344.901 -150.22)" fill="#6da544"/>
        <path id="Trazado_1042733" data-name="Trazado 1042733" d="M392.461,29.244h13.626V39.383H392.461Z" transform="translate(-344.901 -29.244)" fill="#6da544"/>
        <path id="Trazado_1042734" data-name="Trazado 1042734" d="M243.695,171.674a.955.955,0,1,1,.958-.96A.955.955,0,0,1,243.695,171.674Z" transform="translate(-213.805 -152.285)" fill="#6da544" fill-rule="evenodd"/>
        <path id="Trazado_1042735" data-name="Trazado 1042735" d="M198.8,204.085a.953.953,0,1,1-.278-.68A.957.957,0,0,1,198.8,204.085Z" transform="translate(-173.656 -181.496)" fill="#6da544" fill-rule="evenodd"/>
        <path id="Trazado_1042736" data-name="Trazado 1042736" d="M152,188.327a.96.96,0,1,1,.959-.96A.96.96,0,0,1,152,188.327Z" transform="translate(-133.505 -166.859)" fill="#6da544" fill-rule="evenodd"/>
        <path id="Trazado_1042737" data-name="Trazado 1042737" d="M107.163,220.793a.957.957,0,1,1-.958-.951A.957.957,0,0,1,107.163,220.793Z" transform="translate(-93.414 -196.134)" fill="#6da544" fill-rule="evenodd"/>
        <path id="Trazado_1042738" data-name="Trazado 1042738" d="M101.993,264.562h2.724v7.091h-2.724Z" transform="translate(-90.563 -235.292)" fill="#6da544"/>
        <path id="Trazado_1042739" data-name="Trazado 1042739" d="M147.813,231.2h2.723v11.241h-2.723Z" transform="translate(-130.684 -206.079)" fill="#6da544"/>
        <path id="Trazado_1042740" data-name="Trazado 1042740" d="M193.626,247.917h2.724v9.161h-2.724Z" transform="translate(-170.798 -220.717)" fill="#6da544"/>
        <path id="Trazado_1042741" data-name="Trazado 1042741" d="M239.447,214.555h2.724v13.311h-2.724Z" transform="translate(-210.92 -191.505)" fill="#6da544"/>
        <path id="Trazado_1042742" data-name="Trazado 1042742" d="M335.146,395.321l.883.885-3.805,3.808-.885-.885Z" transform="translate(-291.381 -349.786)" fill="#6da544" fill-rule="evenodd"/>
        <path id="Trazado_1042743" data-name="Trazado 1042743" d="M386.495,450.473a2.7,2.7,0,0,1-3.449.294l-.243-.17,3.82-3.823.17.242A2.7,2.7,0,0,1,386.495,450.473Z" transform="translate(-336.443 -394.84)" fill="#6da544" fill-rule="evenodd"/>
        <path id="Trazado_1042744" data-name="Trazado 1042744" d="M280.82,117.2c-.224-.225-.453-.445-.688-.658l-.149-.135,1.462-2.532.228.2q.609.527,1.181,1.1A21.236,21.236,0,0,1,288.4,124.8l.082.312h-2.99l-.053-.177A18.415,18.415,0,0,0,280.82,117.2Z" transform="translate(-246.413 -103.348)" fill="#6da544" fill-rule="evenodd"/>
        <path id="Trazado_1042745" data-name="Trazado 1042745" d="M324.421,212.2h2.95l.038.2a21.511,21.511,0,0,1-1.184,11.976l-.191.472-1.889-3.269.029-.1a18.635,18.635,0,0,0,.311-8.979Z" transform="translate(-285.082 -189.443)" fill="#6da544" fill-rule="evenodd"/>
        <path id="Trazado_1042746" data-name="Trazado 1042746" d="M50.475,105.026a21.354,21.354,0,1,1-6.3-26.864l.177.132L42.9,80.81l-.225-.172a18.489,18.489,0,1,0,5.888,21.639l.191-.474,1.785,3.1Z" transform="translate(-10.104 -68.399)" fill="#6da544" fill-rule="evenodd"/>
      </g>
      <path id="Trazado_1042747" data-name="Trazado 1042747" d="M25.456,42.364a.708.708,0,1,1-.708.707.711.711,0,0,1,.708-.707Zm5.7-4.15a.707.707,0,1,1-.707.7A.707.707,0,0,1,31.155,38.214Zm-11.4,3.492a.711.711,0,1,1,.71-.711A.711.711,0,0,1,19.756,41.707Zm-5.7,4.15a.71.71,0,1,1,.709-.711.71.71,0,0,1-.709.711Zm7.9-4.851c0-.009,0-.009,0-.009a2.2,2.2,0,1,0-4.4,0,2.156,2.156,0,0,0,.089.613L15.29,43.324a2.245,2.245,0,1,0,.968,1.822,2.15,2.15,0,0,0-.09-.613l2.355-1.715a2.184,2.184,0,0,0,2.923-.418l1.808.666v.009a2.2,2.2,0,0,0,4.4,0,2.155,2.155,0,0,0-.09-.613l2.355-1.715a2.247,2.247,0,0,0,1.232.373,2.2,2.2,0,1,0-2.2-2.2,2.172,2.172,0,0,0,.089.622l-2.353,1.716a2.19,2.19,0,0,0-2.921.409ZM30.042,56.6V43.786h2.227V56.6Zm-17.1-6.594H15.17V56.6H12.943Zm5.7-4.15h2.227V56.6H18.643Zm5.7,2.079h2.227V56.6H24.341ZM29.3,42.293a.743.743,0,0,0-.746.746V56.6h-.488v-9.41a.742.742,0,0,0-.746-.746H23.6a.743.743,0,0,0-.746.746V56.6h-.488V45.11a.748.748,0,0,0-.746-.746H17.9a.749.749,0,0,0-.746.746V56.6h-.488V49.26a.748.748,0,0,0-.746-.746H12.2a.749.749,0,0,0-.746.746V56.6H10.237a.746.746,0,0,0,0,1.493h24.74a.746.746,0,0,0,0-1.493H33.761V43.04a.742.742,0,0,0-.746-.746Zm31.444,3.181a.749.749,0,0,1-.747.746H51.283a.746.746,0,1,1,0-1.493h8.709a.743.743,0,0,1,.747.746Zm0-5.465a.743.743,0,0,1-.747.746H51.283a.746.746,0,1,1,0-1.493h8.709a.749.749,0,0,1,.747.746Zm0,2.737a.749.749,0,0,1-.747.746H51.283a.746.746,0,1,1,0-1.493h8.709a.743.743,0,0,1,.747.746Zm0-14.466a.743.743,0,0,1-.747.746H51.283a.746.746,0,1,1,0-1.493h8.709a.749.749,0,0,1,.747.746Zm0-5.456a.749.749,0,0,1-.747.746H51.283a.746.746,0,1,1,0-1.493h8.709a.749.749,0,0,1,.747.746Zm0,2.728a.743.743,0,0,1-.747.746H51.283a.746.746,0,1,1,0-1.493h8.709a.749.749,0,0,1,.747.746Zm0,37.108a.743.743,0,0,1-.747.746H51.283a.746.746,0,1,1,0-1.493h8.709a.749.749,0,0,1,.747.746Zm0-5.456a.749.749,0,0,1-.747.746H51.283a.746.746,0,0,1,0-1.493h8.709a.743.743,0,0,1,.747.746Zm0,2.728a.749.749,0,0,1-.747.746H51.283a.746.746,0,1,1,0-1.493h8.709a.749.749,0,0,1,.747.746ZM7.683,32.483A21.105,21.105,0,1,0,41.415,57l-1.463-2.541a18.726,18.726,0,1,1-5.968-21.931l1.2-2.079a21.112,21.112,0,0,0-27.5,2.035Zm29.846,0A20.947,20.947,0,0,1,43.014,42H40.531a18.646,18.646,0,0,0-4.683-7.837q-.344-.347-.7-.666l1.211-2.1c.4.347.79.7,1.168,1.084ZM34.791,35.22a17.235,17.235,0,1,0,0,24.374A17.257,17.257,0,0,0,34.791,35.22ZM43.71,47.4a21.051,21.051,0,0,1-1.533,7.926L40.6,52.592a18.849,18.849,0,0,0,.315-9.1h2.437a21.123,21.123,0,0,1,.363,3.91ZM40.586,64.446l-.937.942-1.542-1.546c.161-.151.32-.3.477-.462s.309-.311.461-.471l1.54,1.537Zm2.315-.2,1.073,1.075L40.52,68.773,39.445,67.7,42.9,64.242Zm8.24,11.7a2.448,2.448,0,0,1-3.131.267l3.4-3.4A2.452,2.452,0,0,1,51.141,75.944Zm-.76-4.221-3.764-3.759-3.455,3.448,3.765,3.768Zm-4.82-4.816-.531-.533-3.456,3.457.533.533Zm3.513-46.172v9.641H62.2V20.736Zm0,17.186v9.641H62.2V37.921Zm0,17.186v9.65H62.2v-9.65ZM22.606,70a22.446,22.446,0,0,0,14.382-5.162l1.6,1.608-.73.729a.744.744,0,0,0-.219.524.765.765,0,0,0,.219.533l8.769,8.762A3.934,3.934,0,1,0,52.2,71.431l-8.769-8.771a.743.743,0,0,0-1.056,0l-.73.729-1.6-1.6a22.693,22.693,0,0,0,2.257-3.271l1.032,1.786a.75.75,0,0,0,.647.373h3.609V65.5a.749.749,0,0,0,.746.746H62.948a.748.748,0,0,0,.746-.746V54.36a.748.748,0,0,0-.746-.746H48.327a.749.749,0,0,0-.746.746v4.825H44.4l-1.3-2.248A22.532,22.532,0,0,0,45.2,47.4a22.843,22.843,0,0,0-.336-3.91h2.714v4.816a.743.743,0,0,0,.746.746H62.948a.743.743,0,0,0,.746-.746V37.175a.748.748,0,0,0-.746-.746H48.327a.749.749,0,0,0-.746.746V42H44.554a22.431,22.431,0,0,0-5.97-10.574c-.472-.471-.961-.915-1.466-1.342L39.3,26.3h8.279v4.825a.749.749,0,0,0,.746.746H62.948a.748.748,0,0,0,.746-.746V19.989a.743.743,0,0,0-.746-.746H48.327a.744.744,0,0,0-.746.746v4.816H38.872a.745.745,0,0,0-.647.373l-2.178,3.777-.115.2A22.6,22.6,0,1,0,22.606,70Z" transform="translate(0 0)" fill-rule="evenodd"/>
    </g>
  </g>
</svg>
