<svg id="Icono" xmlns="http://www.w3.org/2000/svg" width="90" height="90" viewBox="0 0 90 90">
  <path id="Trazado_875096" data-name="Trazado 875096" d="M45,0A45,45,0,1,1,0,45,45,45,0,0,1,45,0Z" fill="#dcfcdb"/>
  <path id="Trazado_978628" data-name="Trazado 978628" d="M68.16,68.9a1.952,1.952,0,0,1-1.952,1.952H59.374A1.952,1.952,0,0,1,57.422,68.9V55.238a1.952,1.952,0,1,1,3.9,0V66.952h4.881A1.952,1.952,0,0,1,68.16,68.9ZM52.7,53.649a1.952,1.952,0,0,0-2.724.454l-3.292,4.61L43.392,54.1a1.952,1.952,0,1,0-3.173,2.27l4.066,5.7-4.071,5.7a1.952,1.952,0,0,0,3.173,2.27l3.3-4.61,3.292,4.61a1.952,1.952,0,0,0,3.173-2.27l-4.066-5.7,4.071-5.7A1.952,1.952,0,0,0,52.7,53.649Zm24.146,6.3a11.227,11.227,0,0,1-2.55-.937c-.305-.2-.3-.244-.273-.464a1.108,1.108,0,0,1,.488-.9c1.123-.761,3.744-.42,4.837-.137a1.953,1.953,0,0,0,.993-3.778c-.515-.134-5.125-1.274-8.012.674a5.022,5.022,0,0,0-2.184,3.648c-.488,3.875,3.331,4.981,5.613,5.64,2.943.852,3.2,1.2,3.119,1.852a1.2,1.2,0,0,1-.525.959c-1.123.747-3.7.378-4.769.085a1.957,1.957,0,1,0-1.047,3.77,14.8,14.8,0,0,0,3.707.488,7.714,7.714,0,0,0,4.268-1.088,5.079,5.079,0,0,0,2.24-3.717C83.29,61.827,79.259,60.648,76.845,59.95ZM39.85,45.476V27.9a3.9,3.9,0,0,1,3.9-3.9H67.183a1.952,1.952,0,0,1,1.381.571L82.231,38.238a1.952,1.952,0,0,1,.571,1.381v5.857a1.952,1.952,0,1,1-3.9,0v-3.9H67.183a1.952,1.952,0,0,1-1.952-1.952V27.9H43.755V45.476a1.952,1.952,0,1,1-3.9,0Zm29.285-7.809h7l-7-7Z" transform="translate(-14.245 -1.494)" fill="#288225"/>
</svg>
