<svg id="equality_8985898" xmlns="http://www.w3.org/2000/svg" width="32" height="32" viewBox="0 0 32 32">
  <path id="Trazado_1029374" data-name="Trazado 1029374" d="M44.5,13A6.5,6.5,0,1,0,38,6.5,6.5,6.5,0,0,0,44.5,13Zm0-12A5.5,5.5,0,1,1,39,6.5,5.5,5.5,0,0,1,44.5,1Z" transform="translate(-19)"/>
  <path id="Trazado_1029375" data-name="Trazado 1029375" d="M49,11a1,1,0,0,1-1-1,.5.5,0,0,0-1,0,2,2,0,0,0,1.5,1.929V12.5a.5.5,0,0,0,1,0v-.571A2,2,0,0,0,49,8a1,1,0,1,1,1-1,.5.5,0,0,0,1,0,2,2,0,0,0-1.5-1.929V4.5a.5.5,0,0,0-1,0v.571A2,2,0,0,0,49,9a1,1,0,1,1,0,2Z" transform="translate(-23.5 -2)"/>
  <path id="Trazado_1029376" data-name="Trazado 1029376" d="M30.5,28h-10a1.5,1.5,0,0,0-.479,2.914A4.506,4.506,0,0,0,24,34.97V35.5a.5.5,0,0,1-.5.5H18.027l-.236-.709a1.887,1.887,0,0,0-3.581,0L13.973,36H8.5a.5.5,0,0,1-.5-.5V34.97a4.506,4.506,0,0,0,3.979-4.056A1.5,1.5,0,0,0,11.5,28H1.5a1.5,1.5,0,0,0-.479,2.914A4.506,4.506,0,0,0,5,34.97V35.5A3.5,3.5,0,0,0,8.5,39h4.473L11.64,43H11a1.5,1.5,0,0,0-1.5,1.5v1a.5.5,0,0,0,.5.5H22a.5.5,0,0,0,.5-.5v-1A1.5,1.5,0,0,0,21,43h-.639l-1.333-4H23.5A3.5,3.5,0,0,0,27,35.5V34.97a4.506,4.506,0,0,0,3.979-4.056A1.5,1.5,0,0,0,30.5,28ZM1,29.5a.5.5,0,0,1,.5-.5h10a.5.5,0,0,1,0,1H1.5A.5.5,0,0,1,1,29.5ZM2.04,31h8.92A3.5,3.5,0,0,1,7.5,34h-2a3.5,3.5,0,0,1-3.46-3ZM8.5,38A2.5,2.5,0,0,1,6,35.5V35H7v.5A1.5,1.5,0,0,0,8.5,37H13.64l-.333,1ZM21,44a.5.5,0,0,1,.5.5V45h-11v-.5A.5.5,0,0,1,11,44Zm-1.694-1H12.694l2.464-7.393a.887.887,0,0,1,1.684,0ZM26,35.5A2.5,2.5,0,0,1,23.5,38H18.694l-.333-1H23.5A1.5,1.5,0,0,0,25,35.5V35h1Zm.5-1.5h-2a3.5,3.5,0,0,1-3.46-3h8.92a3.5,3.5,0,0,1-3.46,3Zm4-4h-10a.5.5,0,0,1,0-1h10a.5.5,0,0,1,0,1Z" transform="translate(0 -14)"/>
  <path id="Trazado_1029377" data-name="Trazado 1029377" d="M6.5,13A6.5,6.5,0,1,0,0,6.5,6.5,6.5,0,0,0,6.5,13Zm0-1a5.485,5.485,0,0,1-4.177-1.932A3.5,3.5,0,0,1,5.5,8h2a3.5,3.5,0,0,1,3.178,2.068A5.485,5.485,0,0,1,6.5,12Zm-2-7a2,2,0,1,1,2,2A2,2,0,0,1,4.5,5ZM1,6.5A5.5,5.5,0,1,1,11.318,9.15a4.5,4.5,0,0,0-2.729-2,3,3,0,1,0-4.179,0,4.5,4.5,0,0,0-2.729,2A5.468,5.468,0,0,1,1,6.5Z"/>
</svg>
