<svg xmlns="http://www.w3.org/2000/svg" xmlns:xlink="http://www.w3.org/1999/xlink" width="113" height="113" viewBox="0 0 113 113">
  <defs>
    <filter id="Trazado_982547" x="0" y="0" width="113" height="113" filterUnits="userSpaceOnUse">
      <feOffset dy="3" input="SourceAlpha"/>
      <feGaussianBlur stdDeviation="3" result="blur"/>
      <feFlood flood-opacity="0.161"/>
      <feComposite operator="in" in2="blur"/>
      <feComposite in="SourceGraphic"/>
    </filter>
  </defs>
  <g id="Grupo_1182617" data-name="Grupo 1182617" transform="translate(-271.751 -3080)">
    <g id="Grupo_1182333" data-name="Grupo 1182333" transform="translate(280.751 3086)">
      <g id="Grupo_1174057" data-name="Grupo 1174057">
        <g id="Grupo_1172010" data-name="Grupo 1172010">
          <g id="Grupo_1171046" data-name="Grupo 1171046">
            <g id="Grupo_1148525" data-name="Grupo 1148525">
              <g transform="matrix(1, 0, 0, 1, -9, -6)" filter="url(#Trazado_982547)">
                <g id="Trazado_982547-2" data-name="Trazado 982547" transform="translate(9 6)" fill="#f2f7e5">
                  <path d="M 47.5 93.5 C 41.28937149047852 93.5 35.26533508300781 92.28397369384766 29.59518623352051 89.88570404052734 C 24.11771965026855 87.56893157958984 19.19813346862793 84.25196075439453 14.97309303283691 80.02691650390625 C 10.74804019927979 75.80186462402344 7.431066513061523 70.88229370117188 5.114293098449707 65.40481567382812 C 2.716026782989502 59.73468017578125 1.5 53.71062850952148 1.5 47.5 C 1.5 41.28937149047852 2.716026782989502 35.26533508300781 5.114293098449707 29.59518623352051 C 7.431066513061523 24.11771965026855 10.74804019927979 19.19813346862793 14.97309303283691 14.97309303283691 C 19.19813346862793 10.74804019927979 24.11771965026855 7.431066513061523 29.59518623352051 5.114293098449707 C 35.26533508300781 2.716026782989502 41.28937149047852 1.5 47.5 1.5 C 53.71062850952148 1.5 59.73468017578125 2.716026782989502 65.40481567382812 5.114293098449707 C 70.88229370117188 7.431066513061523 75.80186462402344 10.74804019927979 80.02691650390625 14.97309303283691 C 84.25196075439453 19.19813346862793 87.56893157958984 24.11771965026855 89.88570404052734 29.59518623352051 C 92.28397369384766 35.26533508300781 93.5 41.28937149047852 93.5 47.5 C 93.5 53.71062850952148 92.28397369384766 59.73468017578125 89.88570404052734 65.40481567382812 C 87.56893157958984 70.88229370117188 84.25196075439453 75.80186462402344 80.02691650390625 80.02691650390625 C 75.80186462402344 84.25196075439453 70.88229370117188 87.56893157958984 65.40481567382812 89.88570404052734 C 59.73468017578125 92.28397369384766 53.71062850952148 93.5 47.5 93.5 Z" stroke="none"/>
                  <path d="M 47.5 3 C 41.49121475219727 3 35.66376876831055 4.176155090332031 30.17950439453125 6.495796203613281 C 24.88084411621094 8.736953735351562 20.12152099609375 11.94598388671875 16.03375244140625 16.03375244140625 C 11.94598388671875 20.12152099609375 8.736953735351562 24.88084411621094 6.495796203613281 30.17950439453125 C 4.176155090332031 35.66376876831055 3 41.49121475219727 3 47.5 C 3 53.50878524780273 4.176155090332031 59.33623123168945 6.495796203613281 64.82049560546875 C 8.736953735351562 70.11915588378906 11.94598388671875 74.87847900390625 16.03375244140625 78.96624755859375 C 20.12152099609375 83.05401611328125 24.88084411621094 86.26304626464844 30.17950439453125 88.50419616699219 C 35.66376876831055 90.82384490966797 41.49121475219727 92 47.5 92 C 53.50878524780273 92 59.33623123168945 90.82384490966797 64.82049560546875 88.50419616699219 C 70.11915588378906 86.26304626464844 74.87847900390625 83.05401611328125 78.96624755859375 78.96624755859375 C 83.05401611328125 74.87847900390625 86.26304626464844 70.11915588378906 88.50419616699219 64.82049560546875 C 90.82384490966797 59.33623123168945 92 53.50878524780273 92 47.5 C 92 41.49121475219727 90.82384490966797 35.66376876831055 88.50419616699219 30.17950439453125 C 86.26304626464844 24.88084411621094 83.05401611328125 20.12152099609375 78.96624755859375 16.03375244140625 C 74.87847900390625 11.94598388671875 70.11915588378906 8.736953735351562 64.82049560546875 6.495796203613281 C 59.33623123168945 4.176155090332031 53.50878524780273 3 47.5 3 M 47.5 0 C 73.7335205078125 0 95 21.2664794921875 95 47.5 C 95 73.7335205078125 73.7335205078125 95 47.5 95 C 21.2664794921875 95 0 73.7335205078125 0 47.5 C 0 21.2664794921875 21.2664794921875 0 47.5 0 Z" stroke="none" fill="#86b60c"/>
                </g>
              </g>
            </g>
          </g>
        </g>
      </g>
    </g>
    <g id="mobile_transaction" transform="translate(300.751 3105.378)">
      <g id="Grupo_1182616" data-name="Grupo 1182616" transform="translate(1 1.622)">
        <g id="Grupo_1182599" data-name="Grupo 1182599" transform="translate(0.869 8.614)">
          <path id="Trazado_1043132" data-name="Trazado 1043132" d="M31.942,11.539H2v35.7H31.942v-35.7Z" transform="translate(-2 -11.539)" fill="#f5f5f5" fill-rule="evenodd"/>
        </g>
        <g id="Grupo_1182600" data-name="Grupo 1182600" transform="translate(0.869 1.233)">
          <path id="Trazado_1043133" data-name="Trazado 1043133" d="M2,10.423H31.942V8.031a5,5,0,0,0-4.989-4.989H6.989A5,5,0,0,0,2,8.031Z" transform="translate(-2 -3.042)" fill="#757575" fill-rule="evenodd"/>
        </g>
        <g id="Grupo_1182601" data-name="Grupo 1182601" transform="translate(0.869 44.315)">
          <path id="Trazado_1043134" data-name="Trazado 1043134" d="M31.942,52.639H2v2.6A5,5,0,0,0,6.989,60.23H26.953a5,5,0,0,0,4.989-4.989Z" transform="translate(-2 -52.639)" fill="#757575" fill-rule="evenodd"/>
        </g>
        <g id="Grupo_1182602" data-name="Grupo 1182602" transform="translate(22.422 1.233)">
          <path id="Trazado_1043135" data-name="Trazado 1043135" d="M31.806,10.423h3.4V8.031a5,5,0,0,0-4.989-4.989h-3.4a5,5,0,0,1,4.992,4.989Z" transform="translate(-26.814 -3.042)" fill="#616161" fill-rule="evenodd"/>
        </g>
        <g id="Grupo_1182603" data-name="Grupo 1182603" transform="translate(22.422 44.315)">
          <path id="Trazado_1043136" data-name="Trazado 1043136" d="M35.2,52.639h-3.4v2.6a5,5,0,0,1-4.992,4.989h3.4A5,5,0,0,0,35.2,55.24Z" transform="translate(-26.814 -52.639)" fill="#616161" fill-rule="evenodd"/>
        </g>
        <g id="Grupo_1182604" data-name="Grupo 1182604" transform="translate(30.811 22.414)">
          <path id="Trazado_1043137" data-name="Trazado 1043137" d="M56.879,27.426H36.471v3.913H50.93A3.456,3.456,0,0,0,54.386,34.8v7.028a3.456,3.456,0,0,0-3.456,3.456H36.471v3.913H56.879a1.772,1.772,0,0,0,1.767-1.767V29.193A1.772,1.772,0,0,0,56.879,27.426Z" transform="translate(-36.471 -27.426)" fill="#00c835" fill-rule="evenodd"/>
        </g>
        <g id="Grupo_1182605" data-name="Grupo 1182605" transform="translate(30.811 26.327)">
          <path id="Trazado_1043138" data-name="Trazado 1043138" d="M50.93,31.931H36.471V35.94a4.07,4.07,0,1,1,0,5.922v4.009H50.93a3.456,3.456,0,0,1,3.456-3.456V35.387A3.455,3.455,0,0,1,50.93,31.931Z" transform="translate(-36.471 -31.931)" fill="#ccff90" fill-rule="evenodd"/>
        </g>
        <g id="Grupo_1182606" data-name="Grupo 1182606" transform="translate(30.811 29.227)">
          <path id="Trazado_1043139" data-name="Trazado 1043139" d="M43.328,39.341a4.067,4.067,0,0,0-6.858-2.963V42.3a4.067,4.067,0,0,0,6.858-2.96Z" transform="translate(-36.471 -35.27)" fill="#00c835" fill-rule="evenodd"/>
        </g>
        <g id="Grupo_1182607" data-name="Grupo 1182607" transform="translate(6.22 16.952)">
          <path id="Trazado_1043140" data-name="Trazado 1043140" d="M17.78,40.376a9.619,9.619,0,1,0-9.62-9.62,9.618,9.618,0,0,0,9.62,9.62Z" transform="translate(-8.16 -21.138)" fill="#00c835" fill-rule="evenodd"/>
        </g>
        <g id="Grupo_1182608" data-name="Grupo 1182608" transform="translate(34.739 0.869)">
          <path id="Trazado_1043141" data-name="Trazado 1043141" d="M40.993,11.653a9.034,9.034,0,1,0,9.034-9.031,9.034,9.034,0,0,0-9.034,9.031Z" transform="translate(-40.993 -2.622)" fill="#ffca28" fill-rule="evenodd"/>
        </g>
        <g id="Grupo_1182609" data-name="Grupo 1182609" transform="translate(27.415 8.614)">
          <path id="Trazado_1043142" data-name="Trazado 1043142" d="M32.561,11.539v35.7h3.4v-35.7Z" transform="translate(-32.561 -11.539)" fill="#e0e0e0" fill-rule="evenodd"/>
        </g>
        <g id="Grupo_1182610" data-name="Grupo 1182610" transform="translate(38.176 22.414)">
          <path id="Trazado_1043143" data-name="Trazado 1043143" d="M57.993,27.426H48.116a14.606,14.606,0,0,1,2.562,3.913h1.366A3.456,3.456,0,0,0,55.5,34.8v7.028a3.456,3.456,0,0,0-3.456,3.456h-2.9a15.411,15.411,0,0,1-4.191,3.913H57.993a1.772,1.772,0,0,0,1.767-1.767V29.193A1.772,1.772,0,0,0,57.993,27.426Z" transform="translate(-44.951 -27.426)" fill="#00a82c" fill-rule="evenodd"/>
        </g>
        <g id="Grupo_1182611" data-name="Grupo 1182611" transform="translate(42.368 26.327)">
          <path id="Trazado_1043144" data-name="Trazado 1043144" d="M56.134,35.387a3.456,3.456,0,0,1-3.456-3.456H51.312a13.871,13.871,0,0,1,1.2,5.641,14.021,14.021,0,0,1-2.732,8.3h2.9a3.456,3.456,0,0,1,3.456-3.456V35.387Z" transform="translate(-49.776 -31.931)" fill="#b2ff59" fill-rule="evenodd"/>
        </g>
        <g id="Grupo_1182612" data-name="Grupo 1182612" transform="translate(40.676 0.869)">
          <path id="Trazado_1043145" data-name="Trazado 1043145" d="M50.536,2.628a9.037,9.037,0,0,1-2.708,17.515,9.034,9.034,0,1,0,3.1-17.521c-.132,0-.26,0-.389.006Z" transform="translate(-47.828 -2.622)" fill="#ffb300" fill-rule="evenodd"/>
        </g>
        <g id="Grupo_1182613" data-name="Grupo 1182613" transform="translate(9.898 22.143)">
          <path id="Trazado_1043146" data-name="Trazado 1043146" d="M23.1,29.6a1.5,1.5,0,1,0-2.236-1.988L16.34,32.7l-1.315-1.166a1.582,1.582,0,0,0-2.1,2.365l1.315,1.169,1.309,1.166c1.109.984,1.4.281,2.391-.828l.637-.715Z" transform="translate(-12.395 -27.114)" fill="#f5f5f5" fill-rule="evenodd"/>
        </g>
        <g id="Grupo_1182614" data-name="Grupo 1182614" transform="translate(12.74 16.952)">
          <path id="Trazado_1043147" data-name="Trazado 1043147" d="M22.345,30.7a9.626,9.626,0,0,1-6.678,9.163A9.618,9.618,0,1,0,15.825,21.6a9.641,9.641,0,0,1,5.635,5.073,1.5,1.5,0,0,1,2.072,2.149l-1.2,1.351C22.339,30.346,22.345,30.525,22.345,30.7Z" transform="translate(-15.666 -21.138)" fill="#00a82c" fill-rule="evenodd"/>
        </g>
        <g id="Grupo_1182615" data-name="Grupo 1182615">
          <path id="Trazado_1043148" data-name="Trazado 1043148" d="M50.106,17.049v.712a.869.869,0,0,0,1.737,0V17.05A2.8,2.8,0,0,0,54.262,14.3c0-1.025-.408-2.8-3.158-3.186-1.364-.244-1.585-.789-1.507-1.546a1.429,1.429,0,0,1,1.62-1.014c.313.022,1.043.153,1.054.892a.9.9,0,0,0,.881.857.869.869,0,0,0,.857-.881A2.574,2.574,0,0,0,51.843,6.9V6.27a.869.869,0,1,0-1.737,0v.685a2.948,2.948,0,0,0-2.231,2.391c-.114,1.084.114,2.977,2.956,3.486,1.492.209,1.7.828,1.694,1.469,0,1.066-1.325,1.084-1.581,1.113a1.424,1.424,0,0,1-1.569-1.408.868.868,0,0,0-1.732.128,3.1,3.1,0,0,0,2.463,2.916Z" transform="translate(-7.127 -2.118)"/>
          <path id="Trazado_1043149" data-name="Trazado 1043149" d="M14.83,7.685h7.426a.869.869,0,0,0,0-1.737H14.83a.869.869,0,0,0,0,1.737Z" transform="translate(-2.703 -2.19)"/>
          <path id="Trazado_1043150" data-name="Trazado 1043150" d="M21.347,55.917H16.058a.869.869,0,0,0,0,1.737h5.289a.869.869,0,1,0,0-1.737Z" transform="translate(-2.864 -8.755)"/>
          <path id="Trazado_1043151" data-name="Trazado 1043151" d="M49.98,39a.884.884,0,0,0-1.135.5.869.869,0,1,0,1.613.646l.012-.03A.856.856,0,0,0,49.98,39Z" transform="translate(-7.278 -6.525)"/>
          <path id="Trazado_1043152" data-name="Trazado 1043152" d="M17.649,20.138A10.487,10.487,0,1,0,28.134,30.624,10.5,10.5,0,0,0,17.649,20.138Zm0,19.237A8.75,8.75,0,1,1,26.4,30.624a8.761,8.761,0,0,1-8.748,8.752Z" transform="translate(-1.809 -4.055)"/>
          <path id="Trazado_1043153" data-name="Trazado 1043153" d="M52.219,23.223H32.679V7.9a5.865,5.865,0,0,0-5.858-5.858H6.858A5.865,5.865,0,0,0,1,7.9V48.593a5.865,5.865,0,0,0,5.858,5.858H26.821a5.865,5.865,0,0,0,5.858-5.858V46.726h19.54a2.639,2.639,0,0,0,2.636-2.636V25.858a2.638,2.638,0,0,0-2.635-2.635ZM2.737,11.16h28.2V45.124H2.737ZM32.679,32.415a3.2,3.2,0,1,1,0,5.118Zm0,7.1a4.939,4.939,0,1,0,0-9.08V28.873h12.81a4.337,4.337,0,0,0,3.368,3.368v5.467a4.337,4.337,0,0,0-3.368,3.368H32.679ZM6.858,3.779H26.821A4.126,4.126,0,0,1,30.942,7.9V9.423H2.737V7.9A4.126,4.126,0,0,1,6.858,3.779ZM26.821,52.714H6.858a4.126,4.126,0,0,1-4.121-4.121V46.861h28.2v1.732A4.126,4.126,0,0,1,26.821,52.714Zm26.3-8.623a.9.9,0,0,1-.9.9H32.679V42.813H46.27a.869.869,0,0,0,.869-.869,2.59,2.59,0,0,1,2.587-2.587.869.869,0,0,0,.869-.869V31.46a.869.869,0,0,0-.869-.869A2.59,2.59,0,0,1,47.139,28a.869.869,0,0,0-.869-.869H32.679V24.96h19.54a.9.9,0,0,1,.9.9Z" transform="translate(-1 -1.677)"/>
          <path id="Trazado_1043154" data-name="Trazado 1043154" d="M49.9,21.425a9.9,9.9,0,1,0-9.9-9.9,9.913,9.913,0,0,0,9.9,9.9Zm0-18.065a8.164,8.164,0,1,1-8.165,8.166A8.175,8.175,0,0,1,49.9,3.359Z" transform="translate(-6.123 -1.622)"/>
          <path id="Trazado_1043155" data-name="Trazado 1043155" d="M21.709,26.118a2.34,2.34,0,0,0-1.624.788l-3.95,4.44-.664-.588a2.453,2.453,0,0,0-3.461.2,2.454,2.454,0,0,0,.2,3.46l2.625,2.335a2.313,2.313,0,0,0,1.473.688c.035,0,.07,0,.106,0a2.585,2.585,0,0,0,1.69-1.181c.106-.126.221-.261.348-.4l5.163-5.806a2.364,2.364,0,0,0-1.911-3.931Zm.612,2.777-5.162,5.8h0c-.137.154-.26.3-.375.435a5.874,5.874,0,0,1-.5.544,1.86,1.86,0,0,1-.293-.222l-2.625-2.335a.723.723,0,0,1-.06-1.006.71.71,0,0,1,.495-.238h.042a.7.7,0,0,1,.472.181l1.316,1.166a.869.869,0,0,0,1.225-.073l4.528-5.09a.616.616,0,0,1,.428-.207.629.629,0,0,1,.507,1.043Z" transform="translate(-2.365 -4.84)"/>
        </g>
      </g>
    </g>
  </g>
</svg>
