<svg xmlns="http://www.w3.org/2000/svg" xmlns:xlink="http://www.w3.org/1999/xlink" width="113" height="113" viewBox="0 0 113 113">
  <defs>
    <filter id="Trazado_982547" x="0" y="0" width="113" height="113" filterUnits="userSpaceOnUse">
      <feOffset dy="3" input="SourceAlpha"/>
      <feGaussianBlur stdDeviation="3" result="blur"/>
      <feFlood flood-opacity="0.161"/>
      <feComposite operator="in" in2="blur"/>
      <feComposite in="SourceGraphic"/>
    </filter>
  </defs>
  <g id="Grupo_1182618" data-name="Grupo 1182618" transform="translate(-586.751 -3080)">
    <g id="Grupo_1182335" data-name="Grupo 1182335" transform="translate(595.751 3086)">
      <g id="Grupo_1174057" data-name="Grupo 1174057">
        <g id="Grupo_1172010" data-name="Grupo 1172010">
          <g id="Grupo_1171046" data-name="Grupo 1171046">
            <g id="Grupo_1148525" data-name="Grupo 1148525">
              <g transform="matrix(1, 0, 0, 1, -9, -6)" filter="url(#Trazado_982547)">
                <g id="Trazado_982547-2" data-name="Trazado 982547" transform="translate(9 6)" fill="#f2f7e5">
                  <path d="M 47.5 93.5 C 41.28937149047852 93.5 35.26533508300781 92.28397369384766 29.59518623352051 89.88570404052734 C 24.11771965026855 87.56893157958984 19.19813346862793 84.25196075439453 14.97309303283691 80.02691650390625 C 10.74804019927979 75.80186462402344 7.431066513061523 70.88229370117188 5.114293098449707 65.40481567382812 C 2.716026782989502 59.73468017578125 1.5 53.71062850952148 1.5 47.5 C 1.5 41.28937149047852 2.716026782989502 35.26533508300781 5.114293098449707 29.59518623352051 C 7.431066513061523 24.11771965026855 10.74804019927979 19.19813346862793 14.97309303283691 14.97309303283691 C 19.19813346862793 10.74804019927979 24.11771965026855 7.431066513061523 29.59518623352051 5.114293098449707 C 35.26533508300781 2.716026782989502 41.28937149047852 1.5 47.5 1.5 C 53.71062850952148 1.5 59.73468017578125 2.716026782989502 65.40481567382812 5.114293098449707 C 70.88229370117188 7.431066513061523 75.80186462402344 10.74804019927979 80.02691650390625 14.97309303283691 C 84.25196075439453 19.19813346862793 87.56893157958984 24.11771965026855 89.88570404052734 29.59518623352051 C 92.28397369384766 35.26533508300781 93.5 41.28937149047852 93.5 47.5 C 93.5 53.71062850952148 92.28397369384766 59.73468017578125 89.88570404052734 65.40481567382812 C 87.56893157958984 70.88229370117188 84.25196075439453 75.80186462402344 80.02691650390625 80.02691650390625 C 75.80186462402344 84.25196075439453 70.88229370117188 87.56893157958984 65.40481567382812 89.88570404052734 C 59.73468017578125 92.28397369384766 53.71062850952148 93.5 47.5 93.5 Z" stroke="none"/>
                  <path d="M 47.5 3 C 41.49121475219727 3 35.66376876831055 4.176155090332031 30.17950439453125 6.495796203613281 C 24.88084411621094 8.736953735351562 20.12152099609375 11.94598388671875 16.03375244140625 16.03375244140625 C 11.94598388671875 20.12152099609375 8.736953735351562 24.88084411621094 6.495796203613281 30.17950439453125 C 4.176155090332031 35.66376876831055 3 41.49121475219727 3 47.5 C 3 53.50878524780273 4.176155090332031 59.33623123168945 6.495796203613281 64.82049560546875 C 8.736953735351562 70.11915588378906 11.94598388671875 74.87847900390625 16.03375244140625 78.96624755859375 C 20.12152099609375 83.05401611328125 24.88084411621094 86.26304626464844 30.17950439453125 88.50419616699219 C 35.66376876831055 90.82384490966797 41.49121475219727 92 47.5 92 C 53.50878524780273 92 59.33623123168945 90.82384490966797 64.82049560546875 88.50419616699219 C 70.11915588378906 86.26304626464844 74.87847900390625 83.05401611328125 78.96624755859375 78.96624755859375 C 83.05401611328125 74.87847900390625 86.26304626464844 70.11915588378906 88.50419616699219 64.82049560546875 C 90.82384490966797 59.33623123168945 92 53.50878524780273 92 47.5 C 92 41.49121475219727 90.82384490966797 35.66376876831055 88.50419616699219 30.17950439453125 C 86.26304626464844 24.88084411621094 83.05401611328125 20.12152099609375 78.96624755859375 16.03375244140625 C 74.87847900390625 11.94598388671875 70.11915588378906 8.736953735351562 64.82049560546875 6.495796203613281 C 59.33623123168945 4.176155090332031 53.50878524780273 3 47.5 3 M 47.5 0 C 73.7335205078125 0 95 21.2664794921875 95 47.5 C 95 73.7335205078125 73.7335205078125 95 47.5 95 C 21.2664794921875 95 0 73.7335205078125 0 47.5 C 0 21.2664794921875 21.2664794921875 0 47.5 0 Z" stroke="none" fill="#86b60c"/>
                </g>
              </g>
            </g>
          </g>
        </g>
      </g>
    </g>
    <g id="computadora_1_" data-name="computadora (1)" transform="translate(616.751 3108)">
      <path id="Trazado_1043156" data-name="Trazado 1043156" d="M56.413,144.513H9.084A1.584,1.584,0,0,1,7.5,142.929V113.584A1.584,1.584,0,0,1,9.084,112H56.413A1.584,1.584,0,0,1,58,113.584v29.345A1.584,1.584,0,0,1,56.413,144.513Zm0,0" transform="translate(-6.738 -100.621)" fill="#5793c9"/>
      <path id="Trazado_1043157" data-name="Trazado 1043157" d="M461.958,112H458.91a1.584,1.584,0,0,1,1.584,1.584v29.345a1.584,1.584,0,0,1-1.584,1.584h3.048a1.584,1.584,0,0,0,1.584-1.584V113.584A1.584,1.584,0,0,0,461.958,112Zm0,0" transform="translate(-412.284 -100.62)" fill="#4c87bd"/>
      <path id="Trazado_1043158" data-name="Trazado 1043158" d="M81.9,142v26.417H37.5V142Zm0,0" transform="translate(-33.69 -127.572)" fill="#b5fcff"/>
      <path id="Trazado_1043159" data-name="Trazado 1043159" d="M444.5,142h3.048v26.417H444.5Zm0,0" transform="translate(-399.338 -127.572)" fill="#8cf2ff"/>
      <path id="Trazado_1043160" data-name="Trazado 1043160" d="M139.738,477.548H113.524a1.524,1.524,0,0,1,0-3.048h26.214a1.524,1.524,0,0,1,0,3.048Zm0,0" transform="translate(-100.621 -426.289)" fill="#5793c9"/>
      <path id="Trazado_1043161" data-name="Trazado 1043161" d="M357.936,474.5h-3.061a1.524,1.524,0,0,1,0,3.048h3.061a1.524,1.524,0,0,0,0-3.048Zm0,0" transform="translate(-318.819 -426.289)" fill="#4c87bd"/>
      <path id="Trazado_1043162" data-name="Trazado 1043162" d="M211,432h9.144v4.318H211Zm0,0" transform="translate(-189.562 -388.107)" fill="#b5fcff"/>
      <path id="Trazado_1043163" data-name="Trazado 1043163" d="M211,432h9.144v4.318H211Zm0,0" transform="translate(-189.562 -388.107)" fill="#dcdfe8"/>
      <path id="Trazado_1043164" data-name="Trazado 1043164" d="M271,432h3.048v4.318H271Zm0,0" transform="translate(-243.466 -388.107)" fill="#cbcdd9"/>
      <path id="Trazado_1043165" data-name="Trazado 1043165" d="M177.623,192.762a.019.019,0,0,0,.012-.017c0-.1.111-.642.224-1.17a1.359,1.359,0,0,1,2.658,0c.113.528.224,1.072.224,1.17a.018.018,0,0,0,.011.016l1.873.776a.018.018,0,0,0,.02,0c.069-.069.532-.376.985-.669a1.359,1.359,0,0,1,1.88,1.88c-.294.454-.6.916-.67.986a.018.018,0,0,0,0,.019l.776,1.873a.018.018,0,0,0,.017.011c.1,0,.642.111,1.17.224a1.359,1.359,0,0,1,0,2.658c-.528.113-1.072.224-1.17.224a.018.018,0,0,0-.017.012l-.776,1.872a.018.018,0,0,0,0,.02c.069.069.375.532.669.985a1.359,1.359,0,0,1-1.88,1.88c-.454-.294-.917-.6-.986-.67a.019.019,0,0,0-.02,0l-1.873.776a.019.019,0,0,0-.012.017c0,.1-.111.642-.224,1.17a1.359,1.359,0,0,1-2.658,0c-.113-.528-.224-1.072-.224-1.17a.019.019,0,0,0-.012-.017l-1.873-.776a.018.018,0,0,0-.02,0c-.069.069-.532.376-.986.67a1.359,1.359,0,0,1-1.88-1.88c.293-.453.6-.916.669-.985a.019.019,0,0,0,0-.02l-.776-1.873a.019.019,0,0,0-.017-.012c-.1,0-.642-.111-1.17-.224a1.359,1.359,0,0,1,0-2.658c.528-.113,1.072-.224,1.17-.224a.019.019,0,0,0,.017-.012l.776-1.873a.018.018,0,0,0,0-.02c-.069-.069-.376-.532-.67-.986a1.359,1.359,0,0,1,1.88-1.88c.453.293.916.6.985.669a.019.019,0,0,0,.02,0Zm0,0" transform="translate(-153.177 -171.145)" fill="#ff4b26"/>
      <path id="Trazado_1043166" data-name="Trazado 1043166" d="M233.786,250.954a2.833,2.833,0,1,1-2.833-2.833A2.832,2.832,0,0,1,233.786,250.954Zm0,0" transform="translate(-204.944 -222.911)" fill="#5793c9"/>
      <path id="Trazado_1043167" data-name="Trazado 1043167" d="M77.663,37.029H62.829A1.829,1.829,0,0,1,61,35.2V24.329A1.829,1.829,0,0,1,62.829,22.5H77.663a1.829,1.829,0,0,1,1.829,1.829V35.2A1.829,1.829,0,0,1,77.663,37.029Zm0,0" transform="translate(-54.802 -20.214)" fill="#47d5e6"/>
      <path id="Trazado_1043168" data-name="Trazado 1043168" d="M198.048,22.5H195a1.829,1.829,0,0,1,1.829,1.829V35.2A1.829,1.829,0,0,1,195,37.029h3.048a1.829,1.829,0,0,0,1.829-1.829V24.329A1.829,1.829,0,0,0,198.048,22.5Zm0,0" transform="translate(-175.188 -20.214)" fill="#22c0d4"/>
      <path id="Trazado_1043169" data-name="Trazado 1043169" d="M317.8,22.131H306.829A1.829,1.829,0,0,1,305,20.3V9.329A1.829,1.829,0,0,1,306.829,7.5H317.8a1.829,1.829,0,0,1,1.829,1.829V20.3A1.829,1.829,0,0,1,317.8,22.131Zm0,0" transform="translate(-274.011 -6.738)" fill="#47d5e6"/>
      <path id="Trazado_1043170" data-name="Trazado 1043170" d="M404.048,7.5H401a1.829,1.829,0,0,1,1.829,1.829V20.3A1.829,1.829,0,0,1,401,22.131h3.048a1.829,1.829,0,0,0,1.829-1.829V9.329A1.829,1.829,0,0,0,404.048,7.5Zm0,0" transform="translate(-360.257 -6.738)" fill="#22c0d4"/>
      <path id="Trazado_1043171" data-name="Trazado 1043171" d="M338.16,35.157a5.081,5.081,0,1,0-10.16,0,5.173,5.173,0,0,0,2.156,4.217,2.216,2.216,0,0,1,.911,1.805h4.027a2.215,2.215,0,0,1,.91-1.805A5.173,5.173,0,0,0,338.16,35.157Zm0,0" transform="translate(-294.674 -26.952)" fill="#ffd659"/>
      <path id="Trazado_1043172" data-name="Trazado 1043172" d="M364.524,30a5,5,0,0,0-1.524.237,5.19,5.19,0,0,1,1.4,9.137,2.216,2.216,0,0,0-.911,1.805h3.048a2.215,2.215,0,0,1,.911-1.805,5.173,5.173,0,0,0,2.156-4.217A5.119,5.119,0,0,0,364.524,30Zm0,0" transform="translate(-326.118 -26.952)" fill="#ffbd54"/>
      <path id="Trazado_1043173" data-name="Trazado 1043173" d="M358.592,140.023H354.44a.354.354,0,0,0-.354.354v.6a2.094,2.094,0,0,0,2.094,2.094h.672a2.094,2.094,0,0,0,2.094-2.094v-.6A.354.354,0,0,0,358.592,140.023Zm0,0" transform="translate(-318.11 -125.796)" fill="#5793c9"/>
      <path id="Trazado_1043174" data-name="Trazado 1043174" d="M49.675,10.618H46.382V2.591A2.594,2.594,0,0,0,43.791,0H32.818a2.594,2.594,0,0,0-2.591,2.591v8.027H25.451v-6.5a2.594,2.594,0,0,0-2.591-2.591H8.026A2.594,2.594,0,0,0,5.436,4.115v6.5H2.346A2.349,2.349,0,0,0,0,12.964v3.268a.762.762,0,1,0,1.524,0V12.964a.823.823,0,0,1,.822-.822h3.09v1.524H3.81a.762.762,0,0,0-.762.762V40.844a.762.762,0,0,0,.762.762H42.267a.762.762,0,0,0,0-1.524H4.572V15.19h.872a2.594,2.594,0,0,0,2.582,2.388h6.15V33.5a.762.762,0,0,0,.762.762h2.385a.762.762,0,0,0,0-1.524H15.7V17.577h7.16a2.594,2.594,0,0,0,2.582-2.388H30.8a2.586,2.586,0,0,0,2.015.965h2.569A2.864,2.864,0,0,0,37.644,18v5.45H35.155a.762.762,0,1,0,0,1.524h3.251a.762.762,0,0,0,.762-.762V18a2.864,2.864,0,0,0,2.257-1.848h2.365a2.587,2.587,0,0,0,2.015-.965h1.642V40.082H45.543a.762.762,0,1,0,0,1.524h2.667a.762.762,0,0,0,.762-.762V14.428a.762.762,0,0,0-.762-.762H46.379c0-.034,0-.067,0-.1V12.142h3.293a.823.823,0,0,1,.822.822V42.309a.823.823,0,0,1-.822.822H2.346a.823.823,0,0,1-.822-.822V19.482a.762.762,0,0,0-1.524,0V42.309a2.349,2.349,0,0,0,2.346,2.346h18.33v2.794H12.9a2.286,2.286,0,1,0,0,4.572H39.117a2.286,2.286,0,0,0,0-4.572H31.344V44.655h18.33a2.349,2.349,0,0,0,2.346-2.346V12.964a2.349,2.349,0,0,0-2.346-2.346ZM23.927,14.986a1.068,1.068,0,0,1-1.067,1.067H8.026A1.068,1.068,0,0,1,6.96,14.986V4.115A1.068,1.068,0,0,1,8.026,3.048H22.861a1.068,1.068,0,0,1,1.067,1.067Zm1.524-1.321V12.142h4.775v1.422c0,.034,0,.068,0,.1Zm13.29,2.845H38.07a1.334,1.334,0,0,1-1.324-1.189v-.013a1.279,1.279,0,0,1-.007-.13v-.19h3.335v.19a1.28,1.28,0,0,1-.007.13v.013a1.334,1.334,0,0,1-1.324,1.189Zm5.049-1.88H41.6v-.05a1.113,1.113,0,0,0-.345-.805,1.414,1.414,0,0,1,.522-.734,5.973,5.973,0,0,0,1.611-7.935.762.762,0,1,0-1.3.791,4.449,4.449,0,0,1-1.2,5.9,2.951,2.951,0,0,0-1.132,1.663h-2.7A2.95,2.95,0,0,0,35.925,11.8a4.427,4.427,0,0,1-1.837-3.6A4.362,4.362,0,0,1,38.406,3.81a4.232,4.232,0,0,1,1.6.313.762.762,0,0,0,.575-1.411,5.753,5.753,0,0,0-2.179-.425A5.887,5.887,0,0,0,32.564,8.2a5.955,5.955,0,0,0,2.474,4.836,1.414,1.414,0,0,1,.522.735,1.111,1.111,0,0,0-.345.805v.05h-2.4a1.068,1.068,0,0,1-1.067-1.067V2.591a1.068,1.068,0,0,1,1.067-1.067H43.791a1.068,1.068,0,0,1,1.067,1.067V13.564a1.068,1.068,0,0,1-1.067,1.067Zm-3.912,35.1a.763.763,0,0,1-.762.762H12.9a.762.762,0,0,1,0-1.524H39.117A.763.763,0,0,1,39.879,49.735ZM29.82,47.449H22.2V44.655h7.62Zm0,0"/>
      <path id="Trazado_1043175" data-name="Trazado 1043175" d="M180.221,194.523a2.121,2.121,0,0,0,0-4.148c-.36-.077-.616-.13-.8-.165l-.458-1.106c.106-.156.25-.374.45-.683a2.121,2.121,0,0,0-2.933-2.933c-.309.2-.527.344-.683.45l-1.106-.458c-.036-.185-.088-.441-.165-.8a2.122,2.122,0,0,0-4.149,0c-.077.36-.129.616-.165.8l-1.106.458c-.156-.106-.374-.25-.683-.45a2.121,2.121,0,0,0-2.933,2.933c.2.309.344.527.45.683l-.458,1.106c-.185.036-.441.088-.8.165a2.121,2.121,0,0,0,0,4.148c.36.077.616.13.8.165l.458,1.106c-.106.156-.25.374-.45.683a2.121,2.121,0,0,0,2.933,2.933c.309-.2.527-.344.683-.45l1.106.458c.036.185.088.441.165.8a2.122,2.122,0,0,0,4.149,0c.077-.36.129-.616.165-.8l1.106-.458c.156.106.374.25.683.45a2.121,2.121,0,0,0,2.933-2.933c-.2-.309-.344-.527-.45-.683l.458-1.106C179.6,194.653,179.86,194.6,180.221,194.523Zm-14.209-1.283h0Zm12.852,0h0Zm-.01,0a.779.779,0,0,0-.684.481l-.776,1.874a.78.78,0,0,0,.142.82c.026.033.146.2.6.89a.6.6,0,0,1-.826.826c-.677-.439-.849-.564-.887-.594a.778.778,0,0,0-.824-.144l-1.869.774a.775.775,0,0,0-.485.687c-.007.052-.041.266-.208,1.045a.6.6,0,0,1-1.168,0c-.169-.789-.2-1-.208-1.047a.774.774,0,0,0-.481-.684l-1.875-.777a.777.777,0,0,0-.823.146c-.042.033-.22.161-.885.592a.6.6,0,0,1-.826-.826c.439-.679.564-.849.594-.887a.779.779,0,0,0,.144-.824l-.777-1.876a.778.778,0,0,0-.682-.478c-.046-.006-.254-.038-1.048-.208a.6.6,0,0,1,0-1.168c.79-.169,1-.2,1.047-.208a.779.779,0,0,0,.684-.481l.776-1.874a.78.78,0,0,0-.142-.82c-.026-.033-.146-.2-.6-.89a.6.6,0,0,1,.826-.826c.677.439.849.564.887.594a.778.778,0,0,0,.824.144l1.873-.776a.775.775,0,0,0,.481-.686c.007-.052.041-.266.208-1.045a.6.6,0,0,1,1.168,0c.169.789.2,1,.208,1.047a.78.78,0,0,0,.481.684l1.876.777a.776.776,0,0,0,.823-.147c.042-.033.22-.161.885-.592a.6.6,0,0,1,.826.826c-.439.679-.564.849-.594.888a.778.778,0,0,0-.144.824l.775,1.872a.777.777,0,0,0,.684.482c.046.006.254.038,1.048.208a.6.6,0,0,1,0,1.168c-.79.169-1,.2-1.047.208Zm0,0" transform="translate(-146.439 -164.407)"/>
      <path id="Trazado_1043176" data-name="Trazado 1043176" d="M224.216,240.617a3.6,3.6,0,1,0,3.595,3.6A3.6,3.6,0,0,0,224.216,240.617Zm0,5.666a2.071,2.071,0,1,1,2.071-2.071A2.073,2.073,0,0,1,224.216,246.283Zm0,0" transform="translate(-198.205 -216.17)"/>
      <path id="Trazado_1043177" data-name="Trazado 1043177" d="M85.262,55.72h5.954a.762.762,0,1,0,0-1.524H85.262a.762.762,0,1,0,0,1.524Zm0,0" transform="translate(-75.915 -48.689)"/>
      <path id="Trazado_1043178" data-name="Trazado 1043178" d="M85.262,85.716H97.454a.762.762,0,0,0,0-1.524H85.262a.762.762,0,0,0,0,1.524Zm0,0" transform="translate(-75.915 -75.637)"/>
      <path id="Trazado_1043179" data-name="Trazado 1043179" d="M97.458,114.191H85.266a.762.762,0,0,0,0,1.524H97.458a.762.762,0,0,0,0-1.524Zm0,0" transform="translate(-75.918 -102.589)"/>
    </g>
  </g>
</svg>
