<svg xmlns="http://www.w3.org/2000/svg" xmlns:xlink="http://www.w3.org/1999/xlink" width="108" height="108" viewBox="0 0 108 108">
  <defs>
    <filter id="Trazado_904820" x="0" y="0" width="108" height="108" filterUnits="userSpaceOnUse">
      <feOffset dy="3" input="SourceAlpha"/>
      <feGaussianBlur stdDeviation="3" result="blur"/>
      <feFlood flood-opacity="0.161"/>
      <feComposite operator="in" in2="blur"/>
      <feComposite in="SourceGraphic"/>
    </filter>
  </defs>
  <g id="Grupo_1182547" data-name="Grupo 1182547" transform="translate(-199.999 -587.005)">
    <g id="Grupo_1182302" data-name="Grupo 1182302" transform="translate(209 593.005)">
      <g id="Grupo_1171910" data-name="Grupo 1171910" transform="translate(0)">
        <g id="Grupo_1167341" data-name="Grupo 1167341">
          <g id="Grupo_1166792" data-name="Grupo 1166792">
            <g transform="matrix(1, 0, 0, 1, -9, -6)" filter="url(#Trazado_904820)">
              <g id="Trazado_904820-2" data-name="Trazado 904820" transform="translate(9 6)" fill="#f2f7e5">
                <path d="M 44.99999618530273 88.50003051757812 C 39.12687301635742 88.50003051757812 33.43022155761719 87.35010528564453 28.06829643249512 85.08219909667969 C 22.88852119445801 82.89134216308594 18.23629570007324 79.75461578369141 14.24084663391113 75.75916290283203 C 10.24540901184082 71.76371765136719 7.108683586120605 67.11150360107422 4.917821407318115 61.93172836303711 C 2.649921178817749 56.56978988647461 1.499996185302734 50.87313842773438 1.499996185302734 45.00001525878906 C 1.499996185302734 39.12689208984375 2.649921178817749 33.43024063110352 4.917821407318115 28.06831550598145 C 7.108683586120605 22.88854026794434 10.24540901184082 18.23631477355957 14.24084663391113 14.24086570739746 C 18.23629570007324 10.24541568756104 22.88852119445801 7.10869026184082 28.06829643249512 4.917840480804443 C 33.43022155761719 2.649927854537964 39.12687301635742 1.50000274181366 44.99999618530273 1.50000274181366 C 50.87311935424805 1.50000274181366 56.56977081298828 2.649927854537964 61.93169784545898 4.917840480804443 C 67.11147308349609 7.10869026184082 71.76369476318359 10.24541568756104 75.75914764404297 14.24086570739746 C 79.75458526611328 18.23631477355957 82.89131164550781 22.88854026794434 85.08216857910156 28.06831550598145 C 87.35007476806641 33.43024063110352 88.5 39.12689208984375 88.5 45.00001525878906 C 88.5 50.87313842773438 87.35007476806641 56.56978988647461 85.08216857910156 61.93172836303711 C 82.89131164550781 67.11150360107422 79.75458526611328 71.76371765136719 75.75914764404297 75.75916290283203 C 71.76369476318359 79.75461578369141 67.11147308349609 82.89134216308594 61.93169784545898 85.08219909667969 C 56.56977081298828 87.35010528564453 50.87311935424805 88.50003051757812 44.99999618530273 88.50003051757812 Z" stroke="none"/>
                <path d="M 44.99999618530273 3 C 39.32870864868164 3 33.82865142822266 4.110061645507812 28.65262603759766 6.299346923828125 C 23.65165710449219 8.414573669433594 19.15968322753906 11.44334411621094 15.301513671875 15.301513671875 C 11.44333648681641 19.15968322753906 8.414566040039062 23.65165710449219 6.299339294433594 28.65262985229492 C 4.110054016113281 33.82867050170898 2.999992370605469 39.32872772216797 2.999992370605469 45.00001525878906 C 2.999992370605469 50.67130279541016 4.110054016113281 56.17136001586914 6.299339294433594 61.34738922119141 C 8.414566040039062 66.34837341308594 11.44333648681641 70.84033203125 15.301513671875 74.69850158691406 C 19.15968322753906 78.55668640136719 23.65165710449219 81.58545684814453 28.65262603759766 83.70068359375 C 33.82865142822266 85.88996887207031 39.32870864868164 87.00003051757812 44.99999618530273 87.00003051757812 C 50.67128372192383 87.00003051757812 56.17134094238281 85.88996887207031 61.34736633300781 83.70068359375 C 66.34834289550781 81.58545684814453 70.84030914306641 78.55668640136719 74.69847869873047 74.69850158691406 C 78.55665588378906 70.84033203125 81.58542633056641 66.34837341308594 83.70065307617188 61.34738922119141 C 85.88993835449219 56.17136001586914 87 50.67130279541016 87 45.00001525878906 C 87 39.32872772216797 85.88993835449219 33.82867050170898 83.70065307617188 28.65262985229492 C 81.58542633056641 23.65165710449219 78.55665588378906 19.15968322753906 74.69847869873047 15.301513671875 C 70.84030914306641 11.44334411621094 66.34834289550781 8.414573669433594 61.34736633300781 6.299346923828125 C 56.17134094238281 4.110061645507812 50.67128372192383 3 44.99999618530273 3 M 44.99999618530273 0 C 69.85281372070312 0 90 20.14718627929688 90 45.00001525878906 C 90 69.85282897949219 69.85281372070312 90.00003051757812 44.99999618530273 90.00003051757812 C 20.14717864990234 90.00003051757812 -7.62939453125e-06 69.85282897949219 -7.62939453125e-06 45.00001525878906 C -7.62939453125e-06 20.14718627929688 20.14717864990234 0 44.99999618530273 0 Z" stroke="none" fill="#86b60c"/>
              </g>
            </g>
          </g>
        </g>
      </g>
    </g>
    <g id="mensual" transform="translate(205.79 608.086)">
      <g id="Grupo_1182544" data-name="Grupo 1182544" transform="translate(21.579 2.411)">
        <g id="Grupo_1182525" data-name="Grupo 1182525" transform="translate(10.548)">
          <g id="Grupo_1182524" data-name="Grupo 1182524">
            <g id="Grupo_1182522" data-name="Grupo 1182522">
              <path id="Trazado_1042980" data-name="Trazado 1042980" d="M149.366,48.778H119.851a1.5,1.5,0,0,1-1.5-1.5V22.243a1.623,1.623,0,0,1,1.625-1.622h29.262a1.623,1.623,0,0,1,1.625,1.622v25.04A1.5,1.5,0,0,1,149.366,48.778Z" transform="translate(-118.353 -20.621)" fill="#ffe2ce"/>
            </g>
            <path id="Trazado_1042981" data-name="Trazado 1042981" d="M347.218,20.622h-4.676a1.623,1.623,0,0,1,1.625,1.622v25.04a1.5,1.5,0,0,1-1.5,1.5h4.676a1.5,1.5,0,0,0,1.5-1.5V22.244a1.623,1.623,0,0,0-1.625-1.622Z" transform="translate(-316.332 -20.622)" fill="#ffd9bf"/>
            <path id="Trazado_1042982" data-name="Trazado 1042982" d="M150.864,26.4H118.353V22.245a1.623,1.623,0,0,1,1.623-1.623h29.265a1.623,1.623,0,0,1,1.623,1.623Z" transform="translate(-118.353 -20.622)" fill="#ff5781"/>
            <path id="Trazado_1042983" data-name="Trazado 1042983" d="M347.231,20.622h-4.676a1.623,1.623,0,0,1,1.623,1.623V26.4h4.676V22.245A1.623,1.623,0,0,0,347.231,20.622Z" transform="translate(-316.343 -20.622)" fill="#ff4170"/>
            <g id="Grupo_1182523" data-name="Grupo 1182523" transform="translate(4.327 10.124)">
              <path id="Trazado_1042984" data-name="Trazado 1042984" d="M155.365,107.214h5.161v5.151h-5.161Z" transform="translate(-155.365 -107.214)" fill="#ffcba0"/>
              <path id="Trazado_1042985" data-name="Trazado 1042985" d="M235.323,107.214h5.161v5.151h-5.161Z" transform="translate(-225.975 -107.214)" fill="#ffcba0"/>
              <path id="Trazado_1042986" data-name="Trazado 1042986" d="M315.281,107.214h5.161v5.151h-5.161Z" transform="translate(-296.585 -107.214)" fill="#ffcba0"/>
              <path id="Trazado_1042987" data-name="Trazado 1042987" d="M155.365,179.829h5.161v5.151h-5.161Z" transform="translate(-155.365 -171.34)" fill="#ffcba0"/>
              <path id="Trazado_1042988" data-name="Trazado 1042988" d="M235.323,179.829h5.161v5.151h-5.161Z" transform="translate(-225.975 -171.34)" fill="#ffcba0"/>
              <path id="Trazado_1042989" data-name="Trazado 1042989" d="M315.281,179.829h5.161v5.151h-5.161Z" transform="translate(-296.585 -171.34)" fill="#ffcba0"/>
            </g>
          </g>
        </g>
        <g id="Grupo_1182526" data-name="Grupo 1182526" transform="translate(32.867 18.039)">
          <path id="Trazado_1042990" data-name="Trazado 1042990" d="M327.178,201.552H311.73a2.468,2.468,0,0,1-2.468-2.468v-21.7a2.468,2.468,0,0,1,2.468-2.468h15.447a2.468,2.468,0,0,1,2.468,2.468v21.7A2.469,2.469,0,0,1,327.178,201.552Z" transform="translate(-309.262 -174.919)" fill="#65b9d7"/>
          <path id="Trazado_1042991" data-name="Trazado 1042991" d="M427.181,174.919h-4.676a2.468,2.468,0,0,1,2.468,2.468v21.7a2.468,2.468,0,0,1-2.468,2.468h4.676a2.468,2.468,0,0,0,2.468-2.468v-21.7A2.469,2.469,0,0,0,427.181,174.919Z" transform="translate(-409.266 -174.919)" fill="#56aac7"/>
          <path id="Trazado_1042992" data-name="Trazado 1042992" d="M337.793,206.032h13.713v5.549H337.793Z" transform="translate(-334.457 -202.395)" fill="#cce7f0"/>
        </g>
        <g id="Grupo_1182543" data-name="Grupo 1182543" transform="translate(0 28.158)">
          <g id="Grupo_1182534" data-name="Grupo 1182534" transform="translate(0 2.333)">
            <path id="Trazado_1042993" data-name="Trazado 1042993" d="M35.565,281.591l22.844,10.622a1.8,1.8,0,0,1,.874,2.4l-4.869,10.431a1.805,1.805,0,0,1-2.4.872L29.173,295.289a1.8,1.8,0,0,1-.874-2.4l4.869-10.431A1.805,1.805,0,0,1,35.565,281.591Z" transform="translate(-28.129 -281.422)" fill="#b5e6a8"/>
            <g id="Grupo_1182529" data-name="Grupo 1182529" transform="translate(0 8.656)">
              <g id="Grupo_1182527" data-name="Grupo 1182527" transform="translate(21.066 11.682)">
                <path id="Trazado_1042994" data-name="Trazado 1042994" d="M214.85,455.851h0l-1.315,2.817a1.805,1.805,0,0,1-2.4.872l-2.822-1.312v0A4.918,4.918,0,0,1,214.85,455.851Z" transform="translate(-208.319 -455.391)" fill="#3aa673"/>
              </g>
              <g id="Grupo_1182528" data-name="Grupo 1182528">
                <path id="Trazado_1042995" data-name="Trazado 1042995" d="M31.993,361.987l-2.82-1.311a1.8,1.8,0,0,1-.874-2.4l1.314-2.815A4.9,4.9,0,0,1,31.993,361.987Z" transform="translate(-28.129 -355.465)" fill="#3aa673"/>
              </g>
            </g>
            <g id="Grupo_1182532" data-name="Grupo 1182532" transform="translate(3.723)">
              <g id="Grupo_1182530" data-name="Grupo 1182530">
                <path id="Trazado_1042996" data-name="Trazado 1042996" d="M59.98,285.281h0l1.315-2.817a1.805,1.805,0,0,1,2.4-.872l2.822,1.312v0A4.918,4.918,0,0,1,59.98,285.281Z" transform="translate(-59.977 -281.422)" fill="#3aa673"/>
              </g>
              <g id="Grupo_1182531" data-name="Grupo 1182531" transform="translate(23.275 9.48)">
                <path id="Trazado_1042997" data-name="Trazado 1042997" d="M259.522,362.507l2.82,1.311a1.8,1.8,0,0,1,.875,2.4l-1.314,2.815A4.9,4.9,0,0,1,259.522,362.507Z" transform="translate(-259.061 -362.507)" fill="#3aa673"/>
              </g>
            </g>
            <g id="Grupo_1182533" data-name="Grupo 1182533" transform="translate(8.907 5.552)">
              <ellipse id="Elipse_11864" data-name="Elipse 11864" cx="4.783" cy="4.772" rx="4.783" ry="4.772" transform="translate(0 6.763) rotate(-45)" fill="#3aa673"/>
            </g>
          </g>
          <g id="Grupo_1182542" data-name="Grupo 1182542" transform="translate(11.562)">
            <path id="Trazado_1042998" data-name="Trazado 1042998" d="M155.161,261.877,174.7,277.763a1.8,1.8,0,0,1,.26,2.536l-7.282,8.922a1.807,1.807,0,0,1-2.538.258l-17.126-13.926-.706-6.905,5.317-6.514A1.806,1.806,0,0,1,155.161,261.877Z" transform="translate(-144.935 -261.472)" fill="#b5e6a8"/>
            <path id="Trazado_1042999" data-name="Trazado 1042999" d="M199.045,277.764l-19.538-15.887a1.806,1.806,0,0,0-2.538.258l-2.094,2.565a1.829,1.829,0,0,1,2.561-.218l19.538,15.887a1.8,1.8,0,0,1,.472,2.207l1.858-2.277A1.8,1.8,0,0,0,199.045,277.764Z" transform="translate(-169.281 -261.472)" fill="#a5d998"/>
            <g id="Grupo_1182537" data-name="Grupo 1182537" transform="translate(0 7.177)">
              <g id="Grupo_1182535" data-name="Grupo 1182535" transform="translate(17.79 17.059)">
                <path id="Trazado_1043000" data-name="Trazado 1043000" d="M286.112,469.877h0l-1.967,2.409a1.807,1.807,0,0,1-2.538.258l-2.413-1.962,0,0A4.921,4.921,0,0,1,286.112,469.877Z" transform="translate(-279.195 -468.774)" fill="#3aa673"/>
              </g>
              <g id="Grupo_1182536" data-name="Grupo 1182536">
                <path id="Trazado_1043001" data-name="Trazado 1043001" d="M130.1,329.765h0l-2.412-1.961a1.8,1.8,0,0,1-.26-2.536l1.965-2.408A4.9,4.9,0,0,1,130.1,329.765Z" transform="translate(-127.025 -322.861)" fill="#3aa673"/>
              </g>
            </g>
            <g id="Grupo_1182540" data-name="Grupo 1182540" transform="translate(5.721)">
              <g id="Grupo_1182538" data-name="Grupo 1182538">
                <path id="Trazado_1043002" data-name="Trazado 1043002" d="M175.963,264.544h0l1.967-2.409a1.807,1.807,0,0,1,2.538-.258l2.413,1.962,0,0A4.921,4.921,0,0,1,175.963,264.544Z" transform="translate(-175.962 -261.471)" fill="#3aa673"/>
              </g>
              <g id="Grupo_1182539" data-name="Grupo 1182539" transform="translate(20.526 14.331)">
                <path id="Trazado_1043003" data-name="Trazado 1043003" d="M352.635,384.049h0l2.412,1.961a1.8,1.8,0,0,1,.26,2.536l-1.965,2.408A4.9,4.9,0,0,1,352.635,384.049Z" transform="translate(-351.53 -384.048)" fill="#3aa673"/>
              </g>
            </g>
            <g id="Grupo_1182541" data-name="Grupo 1182541" transform="translate(8.603 7.639)">
              <ellipse id="Elipse_11865" data-name="Elipse 11865" cx="4.785" cy="4.77" rx="4.785" ry="4.77" transform="translate(0 5.197) rotate(-32.88)" fill="#3aa673"/>
            </g>
          </g>
        </g>
      </g>
      <g id="Grupo_1182546" data-name="Grupo 1182546" transform="translate(20.712 0)">
        <g id="Grupo_1182545" data-name="Grupo 1182545" transform="translate(0 0)">
          <path id="Trazado_1043004" data-name="Trazado 1043004" d="M29.384,32.275a2.686,2.686,0,0,0-3.561,1.3L20.954,44a2.718,2.718,0,0,0,1.3,3.561L45.1,58.185c1.75.814,3.255-.452,3.9-2.016l3.8,3.087a2.735,2.735,0,0,0,3.771-.384l7.282-8.922a2.659,2.659,0,0,0,.589-1.965c0-.009,0-.018,0-.026h7.932a3.349,3.349,0,0,0,3.345-3.345v-5.45a.877.877,0,0,0-1.754,0v5.45a1.593,1.593,0,0,1-1.592,1.592H63.488l-.029-.026-8.135-6.615V22.918a1.593,1.593,0,0,1,1.592-1.592H72.362a1.593,1.593,0,0,1,1.592,1.592V34.745a.877.877,0,0,0,1.754,0V22.918a3.349,3.349,0,0,0-3.345-3.345H65.515V4.033a2.5,2.5,0,0,0-2.5-2.5H59.307V.877a.877.877,0,0,0-1.754,0v.657H55.278V.877a.877.877,0,0,0-1.754,0v.657H43.191V.877a.877.877,0,0,0-1.754,0v.657H39.162V.877a.877.877,0,1,0-1.754,0v.657H33.752a2.5,2.5,0,0,0-2.5,2.5v8.886a.877.877,0,0,0,1.754,0V9.068H63.762V19.573H56.915a3.349,3.349,0,0,0-3.345,3.345v6.773H33.625A.621.621,0,0,1,33,29.073V17.361a.877.877,0,1,0-1.754,0V29.073a2.376,2.376,0,0,0,2.375,2.372h5.9l-3.281,4.019ZM33,7.314V4.033a.747.747,0,0,1,.748-.745h3.656v.657a.877.877,0,0,0,1.754,0V3.288h2.275v.657a.877.877,0,0,0,1.754,0V3.288H53.524v.657a.877.877,0,0,0,1.754,0V3.288h2.275v.657a.877.877,0,0,0,1.754,0V3.288h3.706a.747.747,0,0,1,.748.745V7.314H33Zm8.96,28.305a5.8,5.8,0,0,0,3.89-1.494L59.31,45.067a5.781,5.781,0,0,0,.7,6.812l-2.325,2.848a5.813,5.813,0,0,0-6.826.7L37.4,44.483a5.781,5.781,0,0,0-.7-6.812l2.326-2.849a5.777,5.777,0,0,0,2.933.8ZM40.158,33.44l1.35-1.654a.932.932,0,0,1,1.306-.132L44.471,33A4.057,4.057,0,0,1,40.158,33.44Zm-4.58,5.611a4.033,4.033,0,0,1,.441,4.307l-1.66-1.35a.928.928,0,0,1-.134-1.3ZM33.658,43.7l5.812,4.725a3.912,3.912,0,0,1-5.895-1.85A3.873,3.873,0,0,1,33.658,43.7Zm-.791-4.1a2.69,2.69,0,0,0-.424,2.65,5.647,5.647,0,0,0,8.424,7.312l4,3.251a5.792,5.792,0,0,0-2.584,2.13L26.549,47.626A5.785,5.785,0,0,0,24.2,41.193l1.554-3.328a5.808,5.808,0,0,0,6.436-2.351L35.1,36.866Zm-4.223-5.734,1.928.9a4.028,4.028,0,0,1-4.064,1.487l.9-1.936A.929.929,0,0,1,28.645,33.865ZM22.512,45.45a.917.917,0,0,1,.031-.706l.9-1.935a4.029,4.029,0,0,1,1.486,4.066l-1.939-.9a.92.92,0,0,1-.48-.523Zm24.558,10.7a.93.93,0,0,1-1.233.448l-1.937-.9a4.04,4.04,0,0,1,2.624-1.534l1.068.869ZM55.2,57.764A.93.93,0,0,1,53.9,57.9l-1.657-1.347a4.057,4.057,0,0,1,4.312-.439Zm7.282-8.922L61.135,50.5a4.025,4.025,0,0,1-.441-4.306l1.659,1.349a.923.923,0,0,1,.134,1.3Zm-8.916-17.4v6.694l-8.233-6.694Z" transform="translate(-20.712 0)"/>
          <path id="Trazado_1043005" data-name="Trazado 1043005" d="M210.85,344.706a5.668,5.668,0,0,0,9.206-4.974,5.6,5.6,0,0,0-2.05-3.8,5.668,5.668,0,0,0-9.206,4.974A5.6,5.6,0,0,0,210.85,344.706Zm.555-6.842a3.916,3.916,0,0,1,5.494-.57,3.89,3.89,0,0,1,.551,5.481,3.916,3.916,0,0,1-5.494.57,3.89,3.89,0,0,1-.551-5.481Z" transform="translate(-186.784 -295.544)"/>
          <path id="Trazado_1043006" data-name="Trazado 1043006" d="M228.7,106.619h5.161a.877.877,0,0,0,.877-.877v-5.151a.877.877,0,0,0-.877-.877H228.7a.877.877,0,0,0-.877.877v5.151A.877.877,0,0,0,228.7,106.619Zm.877-5.151h3.408v3.4h-3.408Z" transform="translate(-203.609 -88.056)"/>
          <path id="Trazado_1043007" data-name="Trazado 1043007" d="M313.82,106.619a.877.877,0,0,0,.877-.877v-5.151a.877.877,0,0,0-.877-.877h-5.161a.877.877,0,0,0-.877.877v5.151a.877.877,0,0,0,.877.877Zm-4.285-5.151h3.408v3.4h-3.408Z" transform="translate(-274.22 -88.056)"/>
          <path id="Trazado_1043008" data-name="Trazado 1043008" d="M227.823,178.358a.877.877,0,0,0,.877.877h5.161a.877.877,0,0,0,.877-.877v-5.151a.877.877,0,0,0-.877-.877H228.7a.877.877,0,0,0-.877.877Zm1.754-4.275h3.408v3.4h-3.408Z" transform="translate(-203.609 -152.183)"/>
          <path id="Trazado_1043009" data-name="Trazado 1043009" d="M345.76,204.957v-5.549a.877.877,0,0,0-.877-.877H331.17a.877.877,0,0,0-.877.877v5.549a.877.877,0,0,0,.877.877h13.713A.877.877,0,0,0,345.76,204.957Zm-1.754-.877H332.047v-3.795h11.959Z" transform="translate(-294.1 -175.321)"/>
          <path id="Trazado_1043010" data-name="Trazado 1043010" d="M335.919,280.2a.877.877,0,0,0,0,1.754A.877.877,0,0,0,335.919,280.2Z" transform="translate(-298.32 -247.444)"/>
          <path id="Trazado_1043011" data-name="Trazado 1043011" d="M362.977,280.2a.877.877,0,0,0,0,1.754A.877.877,0,0,0,362.977,280.2Z" transform="translate(-322.215 -247.444)"/>
          <path id="Trazado_1043012" data-name="Trazado 1043012" d="M390.034,280.2a.877.877,0,0,0,0,1.754A.877.877,0,0,0,390.034,280.2Z" transform="translate(-346.108 -247.444)"/>
          <path id="Trazado_1043013" data-name="Trazado 1043013" d="M417.092,280.2a.877.877,0,0,0,0,1.754A.877.877,0,0,0,417.092,280.2Z" transform="translate(-370.003 -247.444)"/>
          <path id="Trazado_1043014" data-name="Trazado 1043014" d="M444.15,280.2a.877.877,0,0,0,0,1.754A.877.877,0,0,0,444.15,280.2Z" transform="translate(-393.898 -247.444)"/>
          <path id="Trazado_1043015" data-name="Trazado 1043015" d="M335.919,307.419a.877.877,0,0,0,0,1.754A.877.877,0,0,0,335.919,307.419Z" transform="translate(-298.32 -271.478)"/>
          <path id="Trazado_1043016" data-name="Trazado 1043016" d="M362.977,307.419a.877.877,0,0,0,0,1.754A.877.877,0,0,0,362.977,307.419Z" transform="translate(-322.215 -271.478)"/>
          <path id="Trazado_1043017" data-name="Trazado 1043017" d="M390.034,307.419a.877.877,0,0,0,0,1.754A.877.877,0,0,0,390.034,307.419Z" transform="translate(-346.108 -271.478)"/>
          <path id="Trazado_1043018" data-name="Trazado 1043018" d="M417.092,307.419a.877.877,0,0,0,0,1.754A.877.877,0,0,0,417.092,307.419Z" transform="translate(-370.003 -271.478)"/>
          <path id="Trazado_1043019" data-name="Trazado 1043019" d="M444.15,309.173a.877.877,0,0,0,0-1.754A.877.877,0,0,0,444.15,309.173Z" transform="translate(-393.898 -271.478)"/>
          <path id="Trazado_1043020" data-name="Trazado 1043020" d="M335.919,336.389a.877.877,0,0,0,0-1.754A.877.877,0,0,0,335.919,336.389Z" transform="translate(-298.32 -295.513)"/>
          <path id="Trazado_1043021" data-name="Trazado 1043021" d="M362.977,334.635a.877.877,0,0,0,0,1.754A.877.877,0,0,0,362.977,334.635Z" transform="translate(-322.215 -295.513)"/>
          <path id="Trazado_1043022" data-name="Trazado 1043022" d="M390.034,334.635a.877.877,0,0,0,0,1.754A.877.877,0,0,0,390.034,334.635Z" transform="translate(-346.108 -295.513)"/>
          <path id="Trazado_1043023" data-name="Trazado 1043023" d="M417.092,334.635a.877.877,0,0,0,0,1.754A.877.877,0,0,0,417.092,334.635Z" transform="translate(-370.003 -295.513)"/>
          <path id="Trazado_1043024" data-name="Trazado 1043024" d="M362.977,363.606a.877.877,0,0,0,0-1.754A.877.877,0,0,0,362.977,363.606Z" transform="translate(-322.215 -319.548)"/>
          <path id="Trazado_1043025" data-name="Trazado 1043025" d="M390.035,363.606a.877.877,0,0,0,0-1.754A.877.877,0,0,0,390.035,363.606Z" transform="translate(-346.109 -319.548)"/>
          <path id="Trazado_1043026" data-name="Trazado 1043026" d="M417.092,363.606a.877.877,0,0,0,0-1.754A.877.877,0,0,0,417.092,363.606Z" transform="translate(-370.003 -319.548)"/>
          <path id="Trazado_1043027" data-name="Trazado 1043027" d="M443.048,338.743a.877.877,0,0,0,1.754,0v-3.182a.877.877,0,0,0-1.754,0Z" transform="translate(-393.672 -295.562)"/>
        </g>
        <path id="Trazado_1043028" data-name="Trazado 1043028" d="M148.742,106.619H153.9a.877.877,0,0,0,.877-.877v-5.151a.877.877,0,0,0-.877-.877h-5.161a.877.877,0,0,0-.877.877v5.151A.877.877,0,0,0,148.742,106.619Zm.877-5.151h3.408v3.4h-3.408Z" transform="translate(-132.999 -88.056)"/>
        <path id="Trazado_1043029" data-name="Trazado 1043029" d="M147.865,178.358a.877.877,0,0,0,.877.877H153.9a.877.877,0,0,0,.877-.877v-5.151a.877.877,0,0,0-.877-.877h-5.161a.877.877,0,0,0-.877.877Zm1.754-4.275h3.408v3.4h-3.408Z" transform="translate(-132.999 -152.183)"/>
      </g>
    </g>
  </g>
</svg>
