<svg xmlns="http://www.w3.org/2000/svg" width="32.134" height="34.001" viewBox="0 0 32.134 34.001">
  <path id="leader_17634909" d="M50.826,18.72a3.562,3.562,0,1,0-5.6,0,5.838,5.838,0,0,0-2.353,2.5A6.568,6.568,0,0,0,40.9,19.584a4.039,4.039,0,1,0-6.23,0,6.573,6.573,0,0,0-2.092,1.795,5.774,5.774,0,0,0-2.427-2.659,3.562,3.562,0,1,0-5.6,0,5.78,5.78,0,0,0-2.928,4.992v4.741a2.212,2.212,0,0,0,1.732,2.156l-.051.309c-.726,4.377-.825,6.051-.391,6.634a.726.726,0,0,0,.491.295l2.486.319a.959.959,0,0,0,1.068-.821l.4-2.943.389,2.941a.954.954,0,0,0,1.068.823c.09-.011.249-.023.433-.035,1.222-.085,2.268-.2,2.69-.712a.834.834,0,0,0,.188-.64L31.5,31.941a2.478,2.478,0,0,0,1.753,1.317c-.022.133-.046.281-.073.441-.836,5.042-.954,6.964-.468,7.618a.754.754,0,0,0,.509.307l2.879.37a1.025,1.025,0,0,0,1.14-.877l.551-4.049.535,4.047a1.019,1.019,0,0,0,1.14.879c.106-.014.292-.027.507-.042,1.394-.1,2.587-.223,3.054-.793a.88.88,0,0,0,.2-.675L42.3,33.261a2.47,2.47,0,0,0,1.43-.816c-.5,3.253-.525,4.6-.146,5.106a.726.726,0,0,0,.49.295l2.486.319a.958.958,0,0,0,1.068-.821l.4-2.943.389,2.941a.955.955,0,0,0,1.068.823c.089-.011.249-.023.433-.035,1.222-.085,2.268-.2,2.69-.712a.834.834,0,0,0,.188-.64l-.792-6.166a2.212,2.212,0,0,0,1.748-2.159V23.711a5.78,5.78,0,0,0-2.928-4.991Zm-2.8-4.661a2.466,2.466,0,1,1-2.466,2.466,2.466,2.466,0,0,1,2.466-2.466Zm-10.238.014a2.942,2.942,0,1,1-2.942,2.942,2.942,2.942,0,0,1,2.942-2.942ZM27.35,14.059a2.466,2.466,0,1,1-2.466,2.466,2.466,2.466,0,0,1,2.466-2.466ZM22.717,28.452V23.711a4.675,4.675,0,0,1,2.692-4.2,3.551,3.551,0,0,0,3.883,0,4.663,4.663,0,0,1,2.547,3.059l.007.025a6.484,6.484,0,0,0-.608,2.747v4.224h-.664V25.289a.548.548,0,1,0-1.1,0v4.275H25.223V25.289a.548.548,0,1,0-1.1,0v4.275h-.3a1.112,1.112,0,0,1-1.111-1.111Zm3.17,8.607-2.113-.271a9.686,9.686,0,0,1,.1-2.271c.139-1.2.361-2.537.507-3.421l.072-.436h2.3Zm3.284-.024c-.138.01-.257.018-.356.027l-.846-6.4h2.265l.783,6.1a7.978,7.978,0,0,1-1.846.275Zm7,3.859-2.6-.334a10.078,10.078,0,0,1,.1-2.682c.161-1.4.421-2.967.592-4,.037-.221.069-.413.1-.578H37.2Zm5.165-.181c-.476.077-1.005.114-1.43.143-.2.014-.365.025-.494.039l-1-7.6h2.8l.924,7.2a2.7,2.7,0,0,1-.794.216Zm1.907-9.884A1.375,1.375,0,0,1,41.865,32.2h-.432V27.166a.548.548,0,0,0-1.1,0V32.2h-5.1V27.166a.548.548,0,0,0-1.1,0V32.2h-.432a1.375,1.375,0,0,1-1.374-1.374V25.339a5.5,5.5,0,0,1,3.211-4.966,4.029,4.029,0,0,0,4.482,0,5.5,5.5,0,0,1,3.211,4.966Zm3.323,6.23-2.113-.271a9.686,9.686,0,0,1,.1-2.271c.139-1.2.361-2.537.507-3.421l.072-.436h2.3Zm3.284-.024c-.138.01-.257.018-.356.027l-.846-6.4h2.265l.783,6.1a7.992,7.992,0,0,1-1.846.275Zm2.812-8.584a1.112,1.112,0,0,1-1.111,1.111h-.3V25.289a.548.548,0,0,0-1.1,0v4.275H45.9V25.289a.548.548,0,0,0-1.1,0v4.275h-.465V25.339a6.483,6.483,0,0,0-.734-3l0-.014a4.7,4.7,0,0,1,2.478-2.814,3.55,3.55,0,0,0,3.882,0,4.675,4.675,0,0,1,2.692,4.2ZM37,10.4V8.548a.548.548,0,1,1,1.1,0V10.4a.548.548,0,1,1-1.1,0Zm4.841,2.412a.548.548,0,0,1,.2-.749l1.414-.816a.548.548,0,0,1,.548.95l-1.414.816a.548.548,0,0,1-.749-.2ZM31.658,11.445a.548.548,0,0,1,.749-.2l1.414.816a.548.548,0,0,1-.548.95l-1.414-.816a.548.548,0,0,1-.2-.75Z" transform="translate(-21.62 -8)"/>
</svg>
