<svg xmlns="http://www.w3.org/2000/svg" xmlns:xlink="http://www.w3.org/1999/xlink" width="108" height="108" viewBox="0 0 108 108">
  <defs>
    <filter id="Trazado_904820" x="0" y="0" width="108" height="108" filterUnits="userSpaceOnUse">
      <feOffset dy="3" input="SourceAlpha"/>
      <feGaussianBlur stdDeviation="3" result="blur"/>
      <feFlood flood-opacity="0.161"/>
      <feComposite operator="in" in2="blur"/>
      <feComposite in="SourceGraphic"/>
    </filter>
  </defs>
  <g id="Grupo_1182682" data-name="Grupo 1182682" transform="translate(-620 -425)">
    <g id="Grupo_1182340" data-name="Grupo 1182340" transform="translate(0 -3795.212)">
      <g id="Grupo_1173352" data-name="Grupo 1173352" transform="translate(629 4226.212)">
        <g id="Grupo_1171910" data-name="Grupo 1171910" transform="translate(0)">
          <g id="Grupo_1167341" data-name="Grupo 1167341">
            <g id="Grupo_1166792" data-name="Grupo 1166792">
              <g transform="matrix(1, 0, 0, 1, -9, -6)" filter="url(#Trazado_904820)">
                <g id="Trazado_904820-2" data-name="Trazado 904820" transform="translate(9 6)" fill="#fff4e6">
                  <path d="M 44.99999618530273 88.50003051757812 C 39.12687301635742 88.50003051757812 33.43022155761719 87.35010528564453 28.06829643249512 85.08219909667969 C 22.88852119445801 82.89134216308594 18.23629570007324 79.75461578369141 14.24084663391113 75.75916290283203 C 10.24540901184082 71.76371765136719 7.108683586120605 67.11150360107422 4.917821407318115 61.93172836303711 C 2.649921178817749 56.56978988647461 1.499996185302734 50.87313842773438 1.499996185302734 45.00001525878906 C 1.499996185302734 39.12689208984375 2.649921178817749 33.43024063110352 4.917821407318115 28.06831550598145 C 7.108683586120605 22.88854026794434 10.24540901184082 18.23631477355957 14.24084663391113 14.24086570739746 C 18.23629570007324 10.24541568756104 22.88852119445801 7.10869026184082 28.06829643249512 4.917840480804443 C 33.43022155761719 2.649927854537964 39.12687301635742 1.50000274181366 44.99999618530273 1.50000274181366 C 50.87311935424805 1.50000274181366 56.56977081298828 2.649927854537964 61.93169784545898 4.917840480804443 C 67.11147308349609 7.10869026184082 71.76369476318359 10.24541568756104 75.75914764404297 14.24086570739746 C 79.75458526611328 18.23631477355957 82.89131164550781 22.88854026794434 85.08216857910156 28.06831550598145 C 87.35007476806641 33.43024063110352 88.5 39.12689208984375 88.5 45.00001525878906 C 88.5 50.87313842773438 87.35007476806641 56.56978988647461 85.08216857910156 61.93172836303711 C 82.89131164550781 67.11150360107422 79.75458526611328 71.76371765136719 75.75914764404297 75.75916290283203 C 71.76369476318359 79.75461578369141 67.11147308349609 82.89134216308594 61.93169784545898 85.08219909667969 C 56.56977081298828 87.35010528564453 50.87311935424805 88.50003051757812 44.99999618530273 88.50003051757812 Z" stroke="none"/>
                  <path d="M 44.99999618530273 3 C 39.32870864868164 3 33.82865142822266 4.110061645507812 28.65262603759766 6.299346923828125 C 23.65165710449219 8.414573669433594 19.15968322753906 11.44334411621094 15.301513671875 15.301513671875 C 11.44333648681641 19.15968322753906 8.414566040039062 23.65165710449219 6.299339294433594 28.65262985229492 C 4.110054016113281 33.82867050170898 2.999992370605469 39.32872772216797 2.999992370605469 45.00001525878906 C 2.999992370605469 50.67130279541016 4.110054016113281 56.17136001586914 6.299339294433594 61.34738922119141 C 8.414566040039062 66.34837341308594 11.44333648681641 70.84033203125 15.301513671875 74.69850158691406 C 19.15968322753906 78.55668640136719 23.65165710449219 81.58545684814453 28.65262603759766 83.70068359375 C 33.82865142822266 85.88996887207031 39.32870864868164 87.00003051757812 44.99999618530273 87.00003051757812 C 50.67128372192383 87.00003051757812 56.17134094238281 85.88996887207031 61.34736633300781 83.70068359375 C 66.34834289550781 81.58545684814453 70.84030914306641 78.55668640136719 74.69847869873047 74.69850158691406 C 78.55665588378906 70.84033203125 81.58542633056641 66.34837341308594 83.70065307617188 61.34738922119141 C 85.88993835449219 56.17136001586914 87 50.67130279541016 87 45.00001525878906 C 87 39.32872772216797 85.88993835449219 33.82867050170898 83.70065307617188 28.65262985229492 C 81.58542633056641 23.65165710449219 78.55665588378906 19.15968322753906 74.69847869873047 15.301513671875 C 70.84030914306641 11.44334411621094 66.34834289550781 8.414573669433594 61.34736633300781 6.299346923828125 C 56.17134094238281 4.110061645507812 50.67128372192383 3 44.99999618530273 3 M 44.99999618530273 0 C 69.85281372070312 0 90 20.14718627929688 90 45.00001525878906 C 90 69.85282897949219 69.85281372070312 90.00003051757812 44.99999618530273 90.00003051757812 C 20.14717864990234 90.00003051757812 -7.62939453125e-06 69.85282897949219 -7.62939453125e-06 45.00001525878906 C -7.62939453125e-06 20.14718627929688 20.14717864990234 0 44.99999618530273 0 Z" stroke="none" fill="#ff9d1c"/>
                </g>
              </g>
            </g>
          </g>
        </g>
      </g>
    </g>
    <g id="Page-1" transform="translate(647.001 448.999)">
      <g id="_015---Financial-Profit" data-name="015---Financial-Profit" transform="translate(-0.001 0.001)">
        <path id="Path" d="M55.108,2.165l-.458,5.9a1.273,1.273,0,0,1-2.17.807L51.152,7.542l-8.829,8.841a3.668,3.668,0,0,1-5.182,0l-4.087-4.088a.916.916,0,0,0-1.295,0L18.327,25.733a3.663,3.663,0,0,1-5.183,0l-2.255-2.256a.916.916,0,0,0-1.294,0L5.124,27.941a1.841,1.841,0,0,1-2.582,0,1.81,1.81,0,0,1,0-2.583l5.109-5.12a3.663,3.663,0,0,1,5.182,0l2.9,2.9L29.817,9.057a3.663,3.663,0,0,1,5.182,0l4.085,4.084a.916.916,0,0,0,1.3,0L48.567,4.95,47.239,3.622a1.268,1.268,0,0,1,.806-2.162L53.951,1a1.089,1.089,0,0,1,1.156,1.166Z" transform="translate(-1.084 -0.085)" fill="#ef314c" fill-rule="evenodd"/>
        <path id="Path-2" data-name="Path" d="M58.543,1l-2.106.163a1.091,1.091,0,0,1,.516,1l-.458,5.9a1.109,1.109,0,0,1-.042.183l.619.62a1.273,1.273,0,0,0,2.17-.807L59.7,2.165A1.089,1.089,0,0,0,58.543,1Z" transform="translate(-5.676 -0.085)" fill="#bb193b" fill-rule="evenodd"/>
        <rect id="Rectangle" width="14.278" height="3.059" rx="1.53" transform="translate(2.041 50.859)" fill="#ffdc00"/>
        <path id="Path-3" data-name="Path" d="M16.747,55H14a1.831,1.831,0,1,1,0,3.663h2.747a1.831,1.831,0,1,0,0-3.663Z" transform="translate(-2.096 -4.64)" fill="#fec108" fill-rule="evenodd"/>
        <path id="Path-4" data-name="Path" d="M37.65,52.494a1.831,1.831,0,0,0-1.831-1.831,1.831,1.831,0,0,0,0-3.663H24.831a1.831,1.831,0,1,0,0,3.663,1.831,1.831,0,1,0,0,3.663,1.831,1.831,0,1,0,0,3.663H35.819a1.831,1.831,0,1,0,0-3.663A1.831,1.831,0,0,0,37.65,52.494Z" transform="translate(-2.855 -3.966)" fill="#ffdc00" fill-rule="evenodd"/>
        <path id="Path-5" data-name="Path" d="M38.578,52.494a1.831,1.831,0,0,0-1.831-1.831,1.831,1.831,0,0,0,0-3.663H34a1.831,1.831,0,1,1,0,3.663,1.831,1.831,0,1,1,0,3.663,1.831,1.831,0,1,1,0,3.663h2.747a1.831,1.831,0,1,0,0-3.663A1.831,1.831,0,0,0,38.578,52.494Z" transform="translate(-3.783 -3.966)" fill="#fec108" fill-rule="evenodd"/>
        <circle id="Oval" cx="8.159" cy="8.159" r="8.159" transform="translate(19.378 26.383)" fill="#ffdc00"/>
        <path id="Path-6" data-name="Path" d="M30.873,29a8.282,8.282,0,0,0-1.373.124,8.231,8.231,0,0,1,0,16.234A8.241,8.241,0,1,0,30.873,29Z" transform="translate(-3.403 -2.447)" fill="#fec108" fill-rule="evenodd"/>
        <path id="Path-7" data-name="Path" d="M57.65,44.494a1.831,1.831,0,0,0-1.831-1.831,1.831,1.831,0,0,0,0-3.663H44.831a1.831,1.831,0,0,0,0,3.663,1.831,1.831,0,0,0,0,3.663,1.831,1.831,0,1,0,0,3.663,1.831,1.831,0,0,0,0,3.663,1.831,1.831,0,0,0,0,3.663H55.819a1.831,1.831,0,0,0,0-3.663,1.831,1.831,0,0,0,0-3.663,1.831,1.831,0,0,0,0-3.663A1.831,1.831,0,0,0,57.65,44.494Z" transform="translate(-4.542 -3.291)" fill="#ffdc00" fill-rule="evenodd"/>
        <path id="Path-8" data-name="Path" d="M58.578,44.494a1.831,1.831,0,0,0-1.831-1.831,1.831,1.831,0,0,0,0-3.663H54a1.831,1.831,0,0,1,0,3.663,1.831,1.831,0,0,1,0,3.663,1.831,1.831,0,0,1,0,3.663,1.831,1.831,0,0,1,0,3.663,1.831,1.831,0,0,1,0,3.663h2.747a1.831,1.831,0,0,0,0-3.663,1.831,1.831,0,0,0,0-3.663,1.831,1.831,0,0,0,0-3.663A1.831,1.831,0,0,0,58.578,44.494Z" transform="translate(-5.47 -3.291)" fill="#fec108" fill-rule="evenodd"/>
        <circle id="Oval-2" data-name="Oval" cx="8.159" cy="8.159" r="8.159" transform="translate(37.735 19.244)" fill="#ffdc00"/>
        <path id="Path-9" data-name="Path" d="M50.873,21a8.282,8.282,0,0,0-1.373.124,8.231,8.231,0,0,1,0,16.234A8.241,8.241,0,1,0,50.873,21Z" transform="translate(-5.091 -1.772)" fill="#fec108" fill-rule="evenodd"/>
        <ellipse id="Oval-3" data-name="Oval" cx="8.159" cy="8.669" rx="8.159" ry="8.669" transform="translate(1.021 33.522)" fill="#ffdc00"/>
        <path id="Path-10" data-name="Path" d="M10.873,37a8.282,8.282,0,0,0-1.373.124,8.231,8.231,0,0,1,0,16.234A8.241,8.241,0,1,0,10.873,37Z" transform="translate(-1.716 -3.122)" fill="#fec108" fill-rule="evenodd"/>
        <g id="Grupo_1182681" data-name="Grupo 1182681">
          <path id="Shape" d="M3.748,29.3a2.741,2.741,0,0,0,1.943-.8l4.467-4.458L12.413,26.3a4.578,4.578,0,0,0,6.477,0L32.324,12.858l4.086,4.087a4.585,4.585,0,0,0,6.478,0l8.179-8.19.679.679a2.189,2.189,0,0,0,3.73-1.384l.458-5.9V2.145A2.006,2.006,0,0,0,53.8.006l-5.9.458a2.182,2.182,0,0,0-1.385,3.721l.679.681-7.54,7.544L35.563,8.322a4.578,4.578,0,0,0-6.477,0L15.651,21.762,13.4,19.5a4.584,4.584,0,0,0-6.478,0l-5.1,5.118A2.74,2.74,0,0,0,3.748,29.3Zm-.641-3.388,5.108-5.119a2.747,2.747,0,0,1,3.887,0L15,23.7a.916.916,0,0,0,1.3,0L30.38,9.614a2.814,2.814,0,0,1,3.888,0L38.354,13.7a1.875,1.875,0,0,0,2.59,0L49.131,5.51a.916.916,0,0,0,0-1.294L47.8,2.886a.328.328,0,0,1-.08-.366.346.346,0,0,1,.312-.233l5.9-.455a.159.159,0,0,1,.123.049.173.173,0,0,1,.053.134l-.458,5.9a.358.358,0,0,1-.61.228L51.714,6.811a.943.943,0,0,0-1.3,0l-8.826,8.839a2.818,2.818,0,0,1-3.887,0L33.62,11.562a1.829,1.829,0,0,0-2.589,0L17.6,25a2.815,2.815,0,0,1-3.888,0l-2.255-2.257a1.831,1.831,0,0,0-2.589,0L4.393,27.209a.923.923,0,0,1-1.291,0,.894.894,0,0,1,0-1.282Z" transform="translate(-1 -0.001)"/>
          <path id="Shape-2" data-name="Shape" d="M39.313,37.155A9.156,9.156,0,1,0,24.685,44.48h-.023a2.735,2.735,0,0,0-2.033,4.578,2.7,2.7,0,0,0,0,3.663A2.735,2.735,0,0,0,24.662,57.3H35.65a2.735,2.735,0,0,0,2.033-4.578,2.7,2.7,0,0,0,0-3.663A2.735,2.735,0,0,0,35.65,44.48h-.023a9.14,9.14,0,0,0,3.685-7.325ZM36.566,50.889a.916.916,0,0,1-.916.916H24.663a.916.916,0,1,1,0-1.831H35.65A.916.916,0,0,1,36.566,50.889Zm-.916,4.578H24.663a.916.916,0,1,1,0-1.831H35.65a.916.916,0,1,1,0,1.831Zm0-9.156a.916.916,0,1,1,0,1.831H24.663a.916.916,0,1,1,0-1.831ZM22.831,37.155a7.325,7.325,0,1,1,7.325,7.325A7.325,7.325,0,0,1,22.831,37.155Z" transform="translate(-2.686 -2.361)"/>
          <path id="Path-11" data-name="Path" d="M30.747,36.578a.916.916,0,1,1,.794-1.373.916.916,0,1,0,1.585-.916,2.747,2.747,0,0,0-1.463-1.19v-.183a.916.916,0,1,0-1.831,0v.168a2.741,2.741,0,0,0,.916,5.325.916.916,0,1,1-.794,1.373.916.916,0,0,0-1.585.916,2.747,2.747,0,0,0,1.465,1.19v.183a.916.916,0,0,0,1.831,0V41.9a2.741,2.741,0,0,0-.917-5.325Z" transform="translate(-3.277 -2.7)" fill-rule="evenodd"/>
          <path id="Shape-3" data-name="Shape" d="M50.156,20a9.145,9.145,0,0,0-5.471,16.482h-.023A2.735,2.735,0,0,0,42.63,41.06a2.7,2.7,0,0,0,0,3.663,2.7,2.7,0,0,0,0,3.663,2.7,2.7,0,0,0,0,3.663,2.735,2.735,0,0,0,2.033,4.578H55.65a2.735,2.735,0,0,0,2.033-4.578,2.7,2.7,0,0,0,0-3.663,2.7,2.7,0,0,0,0-3.663,2.7,2.7,0,0,0,0-3.663,2.735,2.735,0,0,0-2.033-4.578h-.024A9.145,9.145,0,0,0,50.156,20Zm6.41,22.891a.916.916,0,0,1-.916.916H44.663a.916.916,0,1,1,0-1.831H55.65A.916.916,0,0,1,56.566,42.891Zm0,3.663a.916.916,0,0,1-.916.916H44.663a.916.916,0,0,1,0-1.831H55.65A.916.916,0,0,1,56.566,46.554Zm0,3.663a.916.916,0,0,1-.916.916H44.663a.916.916,0,1,1,0-1.831H55.65A.916.916,0,0,1,56.566,50.216Zm-.916,4.578H44.663a.916.916,0,1,1,0-1.831H55.65a.916.916,0,0,1,0,1.831Zm0-16.482a.916.916,0,0,1,0,1.831H44.663a.916.916,0,1,1,0-1.831Zm-5.494-1.831a7.325,7.325,0,1,1,7.325-7.325A7.325,7.325,0,0,1,50.156,36.482Z" transform="translate(-4.374 -1.688)"/>
          <path id="Path-12" data-name="Path" d="M50.747,28.578a.916.916,0,1,1,.794-1.373.916.916,0,0,0,1.585-.916,2.741,2.741,0,0,0-1.463-1.19v-.183a.916.916,0,1,0-1.831,0v.168a2.741,2.741,0,0,0,.916,5.325.916.916,0,1,1-.794,1.373.916.916,0,0,0-1.585.916,2.741,2.741,0,0,0,1.465,1.19v.183a.916.916,0,1,0,1.831,0V33.9a2.741,2.741,0,0,0-.917-5.325Z" transform="translate(-4.964 -2.025)" fill-rule="evenodd"/>
          <path id="Shape-4" data-name="Shape" d="M4.685,52.48H4.663a2.747,2.747,0,0,0,0,5.494H15.65a2.747,2.747,0,0,0,0-5.494h-.023a9.156,9.156,0,1,0-10.942,0ZM15.65,54.311a.916.916,0,1,1,0,1.831H4.663a.916.916,0,1,1,0-1.831ZM10.156,37.83a7.325,7.325,0,1,1-7.325,7.325A7.325,7.325,0,0,1,10.156,37.83Z" transform="translate(-0.999 -3.036)"/>
          <path id="Path-13" data-name="Path" d="M10.747,46.41a.916.916,0,1,1-.794,1.373.916.916,0,1,0-1.585.916,2.747,2.747,0,0,0,1.465,1.19v.183a.916.916,0,1,0,1.831,0V49.9a2.741,2.741,0,0,0-.917-5.325.916.916,0,1,1,.794-1.373.916.916,0,1,0,1.585-.916,2.747,2.747,0,0,0-1.463-1.19v-.183a.916.916,0,0,0-1.831,0v.168a2.741,2.741,0,0,0,.916,5.325Z" transform="translate(-1.59 -3.375)" fill-rule="evenodd"/>
        </g>
      </g>
    </g>
  </g>
</svg>
