<svg xmlns="http://www.w3.org/2000/svg" xmlns:xlink="http://www.w3.org/1999/xlink" width="108" height="108" viewBox="0 0 108 108">
  <defs>
    <filter id="Trazado_904820" x="0" y="0" width="108" height="108" filterUnits="userSpaceOnUse">
      <feOffset dy="3" input="SourceAlpha"/>
      <feGaussianBlur stdDeviation="3" result="blur"/>
      <feFlood flood-opacity="0.161"/>
      <feComposite operator="in" in2="blur"/>
      <feComposite in="SourceGraphic"/>
    </filter>
  </defs>
  <g id="Grupo_1182447" data-name="Grupo 1182447" transform="translate(-720 -299)">
    <g id="Grupo_1174123" data-name="Grupo 1174123" transform="translate(729 308)">
      <g id="Grupo_1171910" data-name="Grupo 1171910" transform="translate(0 -3)">
        <g id="Grupo_1167341" data-name="Grupo 1167341">
          <g id="Grupo_1166792" data-name="Grupo 1166792">
            <g transform="matrix(1, 0, 0, 1, -9, -6)" filter="url(#Trazado_904820)">
              <g id="Trazado_904820-2" data-name="Trazado 904820" transform="translate(9 6)" fill="#fff4e6">
                <path d="M 44.99999618530273 88.50003051757812 C 39.12687301635742 88.50003051757812 33.43022155761719 87.35010528564453 28.06829643249512 85.08219909667969 C 22.88852119445801 82.89134216308594 18.23629570007324 79.75461578369141 14.24084663391113 75.75916290283203 C 10.24540901184082 71.76371765136719 7.108683586120605 67.11150360107422 4.917821407318115 61.93172836303711 C 2.649921178817749 56.56978988647461 1.499996185302734 50.87313842773438 1.499996185302734 45.00001525878906 C 1.499996185302734 39.12689208984375 2.649921178817749 33.43024063110352 4.917821407318115 28.06830215454102 C 7.108683586120605 22.88852691650391 10.24540901184082 18.23631477355957 14.24084663391113 14.24086570739746 C 18.23629570007324 10.24541568756104 22.88852119445801 7.10869026184082 28.06829643249512 4.917827606201172 C 33.43022155761719 2.649927854537964 39.12687301635742 1.50000274181366 44.99999618530273 1.50000274181366 C 50.87311935424805 1.50000274181366 56.56977081298828 2.649927854537964 61.93169784545898 4.917827606201172 C 67.11147308349609 7.10869026184082 71.76369476318359 10.24541568756104 75.75914764404297 14.24086570739746 C 79.75458526611328 18.23631477355957 82.89131164550781 22.88852691650391 85.08216857910156 28.06830215454102 C 87.35007476806641 33.43024063110352 88.5 39.12689208984375 88.5 45.00001525878906 C 88.5 50.87313842773438 87.35007476806641 56.56978988647461 85.08216857910156 61.93172836303711 C 82.89131164550781 67.11150360107422 79.75458526611328 71.76371765136719 75.75914764404297 75.75916290283203 C 71.76369476318359 79.75461578369141 67.11147308349609 82.89134216308594 61.93169784545898 85.08219909667969 C 56.56977081298828 87.35010528564453 50.87311935424805 88.50003051757812 44.99999618530273 88.50003051757812 Z" stroke="none"/>
                <path d="M 44.99999618530273 3 C 39.32870864868164 3 33.82865142822266 4.110061645507812 28.65262603759766 6.299346923828125 C 23.65165710449219 8.414573669433594 19.15968322753906 11.44334411621094 15.301513671875 15.301513671875 C 11.44333648681641 19.15968322753906 8.414566040039062 23.65165710449219 6.299339294433594 28.65262985229492 C 4.110054016113281 33.82867050170898 2.999992370605469 39.32872772216797 2.999992370605469 45.00001525878906 C 2.999992370605469 50.67130279541016 4.110054016113281 56.17136001586914 6.299339294433594 61.34738922119141 C 8.414566040039062 66.34837341308594 11.44333648681641 70.84033203125 15.301513671875 74.69850158691406 C 19.15968322753906 78.55668640136719 23.65165710449219 81.58545684814453 28.65262603759766 83.70068359375 C 33.82865142822266 85.88996887207031 39.32870864868164 87.00003051757812 44.99999618530273 87.00003051757812 C 50.67128372192383 87.00003051757812 56.17134094238281 85.88996887207031 61.34736633300781 83.70068359375 C 66.34834289550781 81.58545684814453 70.84030914306641 78.55668640136719 74.69847869873047 74.69850158691406 C 78.55665588378906 70.84033203125 81.58542633056641 66.34837341308594 83.70065307617188 61.34738922119141 C 85.88993835449219 56.17136001586914 87 50.67130279541016 87 45.00001525878906 C 87 39.32872772216797 85.88993835449219 33.82867050170898 83.70065307617188 28.65262985229492 C 81.58542633056641 23.65165710449219 78.55665588378906 19.15968322753906 74.69847869873047 15.301513671875 C 70.84030914306641 11.44334411621094 66.34834289550781 8.414573669433594 61.34736633300781 6.299346923828125 C 56.17134094238281 4.110061645507812 50.67128372192383 3 44.99999618530273 3 M 44.99999618530273 0 C 69.85281372070312 0 90 20.14718627929688 90 45.00001525878906 C 90 69.85282897949219 69.85281372070312 90.00003051757812 44.99999618530273 90.00003051757812 C 20.14717864990234 90.00003051757812 -7.62939453125e-06 69.85282897949219 -7.62939453125e-06 45.00001525878906 C -7.62939453125e-06 20.14718627929688 20.14717864990234 0 44.99999618530273 0 Z" stroke="none" fill="#ff9d1c"/>
              </g>
            </g>
          </g>
        </g>
      </g>
    </g>
    <g id="salario_2_" data-name="salario (2)" transform="translate(745.184 313.5)">
      <g id="Grupo_1182436" data-name="Grupo 1182436" transform="translate(37.355 40.788)">
        <path id="Trazado_1042645" data-name="Trazado 1042645" d="M321.855,305.96A11.526,11.526,0,0,0,311.727,323a11.586,11.586,0,0,0,4.649,4.626,11.527,11.527,0,1,0,5.478-21.664Z" transform="translate(-310.324 -305.96)" fill="#ffcb7c" fill-rule="evenodd"/>
      </g>
      <g id="Grupo_1182437" data-name="Grupo 1182437" transform="translate(1.213 36.421)">
        <path id="Trazado_1042646" data-name="Trazado 1042646" d="M29.726,269.684c-10.765,1.387-19.239,7.5-19.655,18.923a71.066,71.066,0,0,0,20.654,3.62l-1.5-4.166,2.494-12.968-1.985-5.41Z" transform="translate(-10.071 -269.684)" fill="#52cbf0" fill-rule="evenodd"/>
      </g>
      <g id="Grupo_1182438" data-name="Grupo 1182438" transform="translate(26.779 36.414)">
        <path id="Trazado_1042647" data-name="Trazado 1042647" d="M238.406,275.787a25.036,25.036,0,0,0-13.955-6.16l-1.989,5.417,2.494,12.968-1.5,4.166a76.436,76.436,0,0,0,10.991-1.139,11.519,11.519,0,0,1,3.96-15.251Z" transform="translate(-222.462 -269.627)" fill="#52cbf0" fill-rule="evenodd"/>
      </g>
      <g id="Grupo_1182439" data-name="Grupo 1182439" transform="translate(20.363 41.831)">
        <path id="Trazado_1042648" data-name="Trazado 1042648" d="M178.07,327.595l-2.494-12.968h-3.923l-2.494,12.968,1.5,4.166q1.474.046,2.951.041c.986,0,1.968-.01,2.954-.041Z" transform="translate(-169.16 -314.627)" fill="#f9f9f9" fill-rule="evenodd"/>
      </g>
      <g id="Grupo_1182440" data-name="Grupo 1182440" transform="translate(20.871 36.414)">
        <path id="Trazado_1042649" data-name="Trazado 1042649" d="M181.278,269.627a12.833,12.833,0,0,1-4,.638,13.139,13.139,0,0,1-3.892-.631l1.985,5.41h3.923Z" transform="translate(-173.381 -269.627)" fill="#c6c4c8" fill-rule="evenodd"/>
      </g>
      <g id="Grupo_1182441" data-name="Grupo 1182441" transform="translate(11.732 16.141)">
        <path id="Trazado_1042650" data-name="Trazado 1042650" d="M123.526,105.413H113.19c-5.127,0-8.514-1.732-10.974-4.2.051,4.813-4.752,4.2-4.752,4.2v4.9c0,.331.017.655.048.978.481,4.738,4.4,8.71,9.087,10.2h0a13.141,13.141,0,0,0,3.892.631,12.832,12.832,0,0,0,4-.637,14.11,14.11,0,0,0,3.473-1.688,11.943,11.943,0,0,0,5.5-8.512,9.248,9.248,0,0,0,.051-.975v-4.9Z" transform="translate(-97.465 -101.21)" fill="#ffd4be" fill-rule="evenodd"/>
      </g>
      <g id="Grupo_1182442" data-name="Grupo 1182442" transform="translate(11.733 5.712)">
        <path id="Trazado_1042651" data-name="Trazado 1042651" d="M123.527,29.2c1.757-19.881-26.061-18.136-26.061-2.976V29.2s4.8.61,4.752-4.2c2.459,2.472,5.847,4.2,10.974,4.2Z" transform="translate(-97.466 -14.571)" fill="#adaaaf" fill-rule="evenodd"/>
      </g>
      <g id="Grupo_1182443" data-name="Grupo 1182443" transform="translate(37.742 20.341)">
        <path id="Trazado_1042652" data-name="Trazado 1042652" d="M313.54,141.974c2.828-.1,4.472-3.562,3.145-5.874l-3.094,0V141a9.247,9.247,0,0,1-.051.975Z" transform="translate(-313.54 -136.1)" fill="#ffbf9e" fill-rule="evenodd"/>
      </g>
      <g id="Grupo_1182444" data-name="Grupo 1182444" transform="translate(8.285 20.345)">
        <path id="Trazado_1042653" data-name="Trazado 1042653" d="M72.271,136.128H69.311c-1.327,2.308.184,5.768,3.009,5.874-.031-.324-.048-.648-.048-.978v-4.9Z" transform="translate(-68.824 -136.128)" fill="#ffbf9e" fill-rule="evenodd"/>
      </g>
      <g id="Grupo_1182445" data-name="Grupo 1182445" transform="translate(0 4.5)">
        <path id="Trazado_1042654" data-name="Trazado 1042654" d="M54.33,40.793a12.752,12.752,0,0,0-11.454.291A25.429,25.429,0,0,0,32.625,35.92c.1-.061.193-.121.288-.185a13.363,13.363,0,0,0,5.9-8.465,5,5,0,0,0,3.054-2.449,5.2,5.2,0,0,0,.073-5.083,1.212,1.212,0,0,0-1.051-.609h0l-1.809,0A14.27,14.27,0,0,0,35.636,8.836,14.249,14.249,0,0,0,25.066,4.5a16.188,16.188,0,0,0-9.9,3.3,11.988,11.988,0,0,0-4.643,9.571v1.764H8.772a1.212,1.212,0,0,0-1.051.608A5.284,5.284,0,0,0,7.766,24.9,4.845,4.845,0,0,0,10.71,27.27a12.745,12.745,0,0,0,4.283,7.2,15.379,15.379,0,0,0,1.946,1.45,27.476,27.476,0,0,0-6.2,2.3,1.212,1.212,0,1,0,1.122,2.149,26.651,26.651,0,0,1,8.207-2.6L21.6,41.932,19.172,54.57a1.213,1.213,0,0,0,.05.64l.887,2.462A74.232,74.232,0,0,1,9.5,56.328V51.553a1.212,1.212,0,0,0-2.425,0V55.79c-1.58-.382-3.119-.816-4.6-1.3a17.258,17.258,0,0,1,2.689-8.231A1.212,1.212,0,0,0,3.135,44.93,19.952,19.952,0,0,0,0,55.3a1.212,1.212,0,0,0,.816,1.19,72.466,72.466,0,0,0,21.007,3.686h0c.895.028,1.8.042,2.693.042h.591c.892,0,1.8-.014,2.693-.042h0A78.061,78.061,0,0,0,38.142,59.16,12.742,12.742,0,1,0,54.33,40.793Zm-28.4-.174H23.7l-.921-2.511a13.833,13.833,0,0,0,1.974.156h.082a13.376,13.376,0,0,0,2.017-.156ZM39.745,23.644a2.962,2.962,0,0,1-.74.875V21.555h1.067A2.99,2.99,0,0,1,39.745,23.644Zm-26.8-6.275c0-6.784,6.245-10.444,12.121-10.444a11.828,11.828,0,0,1,8.782,3.549,11.948,11.948,0,0,1,2.8,8.659H27.458a13.519,13.519,0,0,1-10.114-3.846,1.212,1.212,0,0,0-2.072.868,3,3,0,0,1-.7,2.215,2.9,2.9,0,0,1-1.625.735V17.369ZM9.887,23.727a3.025,3.025,0,0,1-.308-2.17h.941V24.5A2.782,2.782,0,0,1,9.887,23.727Zm3.057,1.512V21.546a5.4,5.4,0,0,0,3.349-1.472,4.558,4.558,0,0,0,1.024-1.6,16.306,16.306,0,0,0,10.14,3.084h9.123V25.24a8.385,8.385,0,0,1-.047.878c0,.008,0,.015,0,.023a10.741,10.741,0,0,1-4.965,7.578,12.3,12.3,0,0,1-6.73,2.121H24.77a11.953,11.953,0,0,1-3.414-.528L21.3,35.29h0c-.033-.013-.067-.024-.1-.034l-.014,0c-.025-.007-.051-.013-.077-.018C16.525,33.731,12.945,29.63,12.945,25.24ZM24.813,57.793h-.291c-.6,0-1.2-.007-1.8-.019L21.616,54.7l2.242-11.658h1.92L28.019,54.7l-1.107,3.073c-.6.013-1.2.019-1.8.019Zm4.712-.121.887-2.462a1.213,1.213,0,0,0,.05-.64l-2.43-12.637,1.534-4.177a24.225,24.225,0,0,1,11.211,4.739A12.726,12.726,0,0,0,37,56.891C34.558,57.271,32.058,57.533,29.526,57.672Zm19.361,4.951a10.322,10.322,0,0,1-9.043-5.345l-.015-.028a10.321,10.321,0,1,1,9.058,5.373Z" transform="translate(0 -4.5)"/>
        <path id="Trazado_1042655" data-name="Trazado 1042655" d="M50.89,309a1.206,1.206,0,0,0,.67-.2l.02-.014a1.212,1.212,0,1,0-1.342-2.019l-.02.014A1.212,1.212,0,0,0,50.89,309Z" transform="translate(-43.696 -270.205)"/>
      </g>
      <g id="Grupo_1182446" data-name="Grupo 1182446" transform="translate(44.805 43.753)">
        <path id="Trazado_1042656" data-name="Trazado 1042656" d="M380.378,341.113a3.349,3.349,0,0,1-.873,2.424,4.187,4.187,0,0,1-2.115,1.2v1.241a1.162,1.162,0,0,1-1.163,1.142,1.145,1.145,0,0,1-1.143-1.142V344.75a4.5,4.5,0,0,1-1.4-.573,3.914,3.914,0,0,1-.894-.719l-.249-.327c-1.057-1.381.682-2.853,1.7-1.79.123.126.252.283.4.447a1.994,1.994,0,0,0,1.549.545c.955,0,1.436-.392,1.436-1.183,0-.283-.184-.5-.546-.658a8.418,8.418,0,0,0-1.317-.416,11.171,11.171,0,0,1-1.552-.494,2.975,2.975,0,0,1-1.32-1.067,3.215,3.215,0,0,1-.542-1.919A3.348,3.348,0,0,1,375.1,333.3v-1.565a1.143,1.143,0,0,1,2.285,0v1.582a4.441,4.441,0,0,1,.989.331A3.367,3.367,0,0,1,379,334l.177.153c1.5,1.125.051,3.119-1.245,2.028-.877-.736-2.869-.9-2.869.453a.794.794,0,0,0,.4.689,2.434,2.434,0,0,0,.982.351,9.8,9.8,0,0,1,1.279.29,9.017,9.017,0,0,1,1.279.474,2.252,2.252,0,0,1,.982.961,3.4,3.4,0,0,1,.4,1.715Z" transform="translate(-372.213 -330.596)"/>
      </g>
    </g>
  </g>
</svg>
