<svg xmlns="http://www.w3.org/2000/svg" xmlns:xlink="http://www.w3.org/1999/xlink" width="400" height="297" viewBox="0 0 400 297">
  <defs>
    <clipPath id="clip-path">
      <rect id="Rectángulo_415647" data-name="Rectángulo 415647" width="400" height="297" transform="translate(1020 1136)" fill="#fff" stroke="#707070" stroke-width="1"/>
    </clipPath>
  </defs>
  <g id="Enmascarar_grupo_1098826" data-name="Enmascarar grupo 1098826" transform="translate(-1020 -1136)" clip-path="url(#clip-path)">
    <g id="Grupo_1182572" data-name="Grupo 1182572">
      <ellipse id="Elipse_11869" data-name="Elipse 11869" cx="200" cy="175.5" rx="200" ry="175.5" transform="translate(1020 1146)" fill="#fff4e6"/>
      <g id="OBJECTS" transform="translate(986.863 1075.031)">
        <g id="Grupo_1182557" data-name="Grupo 1182557" transform="translate(114.995 119.582)">
          <path id="Trazado_1043030" data-name="Trazado 1043030" d="M369.34,309.562H133.251a9.227,9.227,0,0,1-9.227-9.227V131.058a9.227,9.227,0,0,1,9.227-9.227H369.34a9.227,9.227,0,0,1,9.227,9.227V300.334A9.228,9.228,0,0,1,369.34,309.562Z" transform="translate(-124.024 -121.831)" fill="#cacaff"/>
          <g id="Grupo_1182556" data-name="Grupo 1182556" transform="translate(24.206 25.424)">
            <rect id="Rectángulo_415638" data-name="Rectángulo 415638" width="9.583" height="23.357" transform="translate(25.178 56.704)" fill="#fff"/>
            <rect id="Rectángulo_415639" data-name="Rectángulo 415639" width="9.583" height="26.612" transform="translate(38.78 53.448)" fill="#41bcbc"/>
            <rect id="Rectángulo_415640" data-name="Rectángulo 415640" width="9.584" height="31.713" transform="translate(52.382 48.348)" fill="#6a6ae2"/>
            <rect id="Rectángulo_415641" data-name="Rectángulo 415641" width="9.583" height="43.386" transform="translate(65.985 36.675)" fill="#171659"/>
            <rect id="Rectángulo_415642" data-name="Rectángulo 415642" width="9.584" height="55.363" transform="translate(79.586 24.698)" fill="#fff"/>
            <rect id="Rectángulo_415643" data-name="Rectángulo 415643" width="9.583" height="49.188" transform="translate(93.189 30.873)" fill="#41bcbc"/>
            <rect id="Rectángulo_415644" data-name="Rectángulo 415644" width="9.584" height="53.044" transform="translate(106.791 27.017)" fill="#6a6ae2"/>
            <path id="Trazado_1043031" data-name="Trazado 1043031" d="M150.9,159.642v71.43H279.036" transform="translate(-150.9 -151.011)" fill="none" stroke="#130f40" stroke-linecap="round" stroke-linejoin="round" stroke-miterlimit="10" stroke-width="0.75"/>
            <path id="Trazado_1043032" data-name="Trazado 1043032" d="M160.866,219.638l25.07-29.434,10.523,11.189,42.9-36.217L253.1,177.711,274.455,161.1" transform="translate(-151.89 -151.156)" fill="none" stroke="#6a6ae2" stroke-linecap="round" stroke-linejoin="round" stroke-miterlimit="10" stroke-width="2"/>
            <circle id="Elipse_11866" data-name="Elipse 11866" cx="1.316" cy="1.316" r="1.316" transform="translate(121.249 8.631)" fill="#130f40"/>
            <path id="Trazado_1043033" data-name="Trazado 1043033" d="M162.037,225.95a1.315,1.315,0,1,1-1.315-1.315A1.316,1.316,0,0,1,162.037,225.95Z" transform="translate(-151.745 -157.468)" fill="#130f40"/>
            <rect id="Rectángulo_415645" data-name="Rectángulo 415645" width="59.115" height="30.873" transform="translate(0 99.959)" fill="#fff"/>
            <g id="Grupo_1182548" data-name="Grupo 1182548" transform="translate(77.377 99.959)">
              <line id="Línea_774" data-name="Línea 774" x2="34.195" fill="none" stroke="#6a6ae2" stroke-linecap="round" stroke-linejoin="round" stroke-miterlimit="10" stroke-width="0.75"/>
              <line id="Línea_775" data-name="Línea 775" x2="50.759" transform="translate(0 6.175)" fill="none" stroke="#6a6ae2" stroke-linecap="round" stroke-linejoin="round" stroke-miterlimit="10" stroke-width="0.75"/>
              <line id="Línea_776" data-name="Línea 776" x2="50.759" transform="translate(0 12.349)" fill="none" stroke="#6a6ae2" stroke-linecap="round" stroke-linejoin="round" stroke-miterlimit="10" stroke-width="0.75"/>
              <line id="Línea_777" data-name="Línea 777" x2="50.759" transform="translate(0 18.524)" fill="none" stroke="#6a6ae2" stroke-linecap="round" stroke-linejoin="round" stroke-miterlimit="10" stroke-width="0.75"/>
              <line id="Línea_778" data-name="Línea 778" x2="50.759" transform="translate(0 24.698)" fill="none" stroke="#6a6ae2" stroke-linecap="round" stroke-linejoin="round" stroke-miterlimit="10" stroke-width="0.75"/>
              <line id="Línea_779" data-name="Línea 779" x2="50.759" transform="translate(0 30.873)" fill="none" stroke="#6a6ae2" stroke-linecap="round" stroke-linejoin="round" stroke-miterlimit="10" stroke-width="0.75"/>
            </g>
            <g id="Grupo_1182551" data-name="Grupo 1182551" transform="translate(155.372)">
              <g id="Grupo_1182549" data-name="Grupo 1182549">
                <line id="Línea_780" data-name="Línea 780" x2="34.196" fill="none" stroke="#6a6ae2" stroke-linecap="round" stroke-linejoin="round" stroke-miterlimit="10" stroke-width="0.75"/>
                <line id="Línea_781" data-name="Línea 781" x2="50.759" transform="translate(0 6.174)" fill="none" stroke="#6a6ae2" stroke-linecap="round" stroke-linejoin="round" stroke-miterlimit="10" stroke-width="0.75"/>
                <line id="Línea_782" data-name="Línea 782" x2="50.759" transform="translate(0 12.349)" fill="none" stroke="#6a6ae2" stroke-linecap="round" stroke-linejoin="round" stroke-miterlimit="10" stroke-width="0.75"/>
                <line id="Línea_783" data-name="Línea 783" x2="50.759" transform="translate(0 18.523)" fill="none" stroke="#6a6ae2" stroke-linecap="round" stroke-linejoin="round" stroke-miterlimit="10" stroke-width="0.75"/>
                <line id="Línea_784" data-name="Línea 784" x2="50.759" transform="translate(0 24.698)" fill="none" stroke="#6a6ae2" stroke-linecap="round" stroke-linejoin="round" stroke-miterlimit="10" stroke-width="0.75"/>
                <line id="Línea_785" data-name="Línea 785" x2="50.759" transform="translate(0 30.873)" fill="none" stroke="#6a6ae2" stroke-linecap="round" stroke-linejoin="round" stroke-miterlimit="10" stroke-width="0.75"/>
              </g>
              <g id="Grupo_1182550" data-name="Grupo 1182550" transform="translate(0 49.188)">
                <line id="Línea_786" data-name="Línea 786" x2="34.196" fill="none" stroke="#6a6ae2" stroke-linecap="round" stroke-linejoin="round" stroke-miterlimit="10" stroke-width="0.75"/>
                <line id="Línea_787" data-name="Línea 787" x2="50.759" transform="translate(0 6.174)" fill="none" stroke="#6a6ae2" stroke-linecap="round" stroke-linejoin="round" stroke-miterlimit="10" stroke-width="0.75"/>
                <line id="Línea_788" data-name="Línea 788" x2="50.759" transform="translate(0 12.349)" fill="none" stroke="#6a6ae2" stroke-linecap="round" stroke-linejoin="round" stroke-miterlimit="10" stroke-width="0.75"/>
                <line id="Línea_789" data-name="Línea 789" x2="50.759" transform="translate(0 18.524)" fill="none" stroke="#6a6ae2" stroke-linecap="round" stroke-linejoin="round" stroke-miterlimit="10" stroke-width="0.75"/>
                <line id="Línea_790" data-name="Línea 790" x2="50.759" transform="translate(0 24.698)" fill="none" stroke="#6a6ae2" stroke-linecap="round" stroke-linejoin="round" stroke-miterlimit="10" stroke-width="0.75"/>
                <line id="Línea_791" data-name="Línea 791" x2="50.759" transform="translate(0 30.873)" fill="none" stroke="#6a6ae2" stroke-linecap="round" stroke-linejoin="round" stroke-miterlimit="10" stroke-width="0.75"/>
              </g>
            </g>
            <g id="Grupo_1182555" data-name="Grupo 1182555" transform="translate(155.372 93.907)">
              <path id="Trazado_1043034" data-name="Trazado 1043034" d="M368.036,297.3H329.543a6.134,6.134,0,0,1-6.133-6.133V260.457a6.134,6.134,0,0,1,6.133-6.133h38.492a6.134,6.134,0,0,1,6.133,6.133v30.711A6.134,6.134,0,0,1,368.036,297.3Z" transform="translate(-323.41 -254.324)" fill="#6a6ae2"/>
              <g id="Grupo_1182554" data-name="Grupo 1182554" transform="translate(13.754 4.495)">
                <path id="Trazado_1043035" data-name="Trazado 1043035" d="M361.933,270.941a11.626,11.626,0,1,0-18.272,9.524,3.821,3.821,0,0,1,1.6,3.144v.64a1.625,1.625,0,0,0,1.625,1.625h6.848a1.625,1.625,0,0,0,1.625-1.625v-.641a3.863,3.863,0,0,1,1.63-3.166A11.592,11.592,0,0,0,361.933,270.941Z" transform="translate(-338.681 -259.315)" fill="#fff"/>
                <g id="Grupo_1182552" data-name="Grupo 1182552" transform="translate(9.508 16.382)">
                  <path id="Trazado_1043036" data-name="Trazado 1043036" d="M349.238,277.94h.87l.435.784.938-1.22.512,1.074.522-.667.957-.03" transform="translate(-349.238 -277.504)" fill="none" stroke="#f4cc4d" stroke-linecap="round" stroke-linejoin="round" stroke-miterlimit="10" stroke-width="0.75"/>
                  <line id="Línea_792" data-name="Línea 792" x1="0.522" y1="9.566" transform="translate(0 0.612)" fill="none" stroke="#6a6ae2" stroke-linecap="round" stroke-linejoin="round" stroke-miterlimit="10" stroke-width="0.75"/>
                  <line id="Línea_793" data-name="Línea 793" y1="9.566" x2="0.522" transform="translate(3.713 0.612)" fill="none" stroke="#6a6ae2" stroke-linecap="round" stroke-linejoin="round" stroke-miterlimit="10" stroke-width="0.75"/>
                </g>
                <path id="Trazado_1043037" data-name="Trazado 1043037" d="M352.631,296.232h-2.895a2.237,2.237,0,0,1-2.237-2.237V288.8h7.37v5.19A2.238,2.238,0,0,1,352.631,296.232Z" transform="translate(-339.557 -262.244)" fill="#cacaff"/>
                <g id="Grupo_1182553" data-name="Grupo 1182553" transform="translate(7.941 28.097)">
                  <line id="Línea_794" data-name="Línea 794" x2="7.37" fill="none" stroke="#6a6ae2" stroke-linecap="round" stroke-linejoin="round" stroke-miterlimit="10" stroke-width="0.75"/>
                  <line id="Línea_795" data-name="Línea 795" x2="7.37" transform="translate(0 1.451)" fill="none" stroke="#6a6ae2" stroke-linecap="round" stroke-linejoin="round" stroke-miterlimit="10" stroke-width="0.75"/>
                  <line id="Línea_796" data-name="Línea 796" x2="7.37" transform="translate(0 2.902)" fill="none" stroke="#6a6ae2" stroke-linecap="round" stroke-linejoin="round" stroke-miterlimit="10" stroke-width="0.75"/>
                  <line id="Línea_797" data-name="Línea 797" x2="7.37" transform="translate(0 4.353)" fill="none" stroke="#6a6ae2" stroke-linecap="round" stroke-linejoin="round" stroke-miterlimit="10" stroke-width="0.75"/>
                </g>
              </g>
            </g>
          </g>
        </g>
        <g id="Grupo_1182559" data-name="Grupo 1182559" transform="translate(33.137 252.704)">
          <g id="Grupo_1182558" data-name="Grupo 1182558">
            <path id="Trazado_1043038" data-name="Trazado 1043038" d="M36.433,338.354a49.746,49.746,0,1,0,35.552-60.707A49.746,49.746,0,0,0,36.433,338.354Z" transform="translate(-33.303 -270.271)" fill="#c9a645"/>
            <path id="Trazado_1043039" data-name="Trazado 1043039" d="M34.765,331.97a49.745,49.745,0,1,0,35.552-60.705A49.746,49.746,0,0,0,34.765,331.97Z" transform="translate(-33.137 -269.636)" fill="#f4cc4d"/>
            <path id="Trazado_1043040" data-name="Trazado 1043040" d="M42.794,330.909a42.3,42.3,0,1,0,30.228-51.617A42.3,42.3,0,0,0,42.794,330.909Z" transform="translate(-33.959 -270.458)" fill="#c9a645"/>
            <path id="Trazado_1043041" data-name="Trazado 1043041" d="M71.751,328.308a14.033,14.033,0,0,1,4.329-5.069,55.213,55.213,0,0,1,6.113-3.749c.387-.212.79-.428,1.2-.646,1.939-1.052,3.509-1.945,4.7-2.7.162-.105.317-.209.466-.3a9.882,9.882,0,0,0,2.889-2.74,3.984,3.984,0,0,0,.539-3.383,5.142,5.142,0,0,0-3.44-3.664,8.554,8.554,0,0,0-3.207-.442,19.477,19.477,0,0,0-4.3.687,21.792,21.792,0,0,0-2.125.675,24.727,24.727,0,0,0-3.658,1.763,25.777,25.777,0,0,0-5.281,4.093l-4.173-5.591a22.528,22.528,0,0,1,5.879-4.581,33.078,33.078,0,0,1,5.472-2.418l-1.672-6.395,6.343-1.658,1.727,6.61a20.619,20.619,0,0,1,5.754.054,13.636,13.636,0,0,1,7.1,3.132,12,12,0,0,1,3.655,6.026,10.268,10.268,0,0,1-.427,7.355,13.7,13.7,0,0,1-4.3,5.054A55.778,55.778,0,0,1,90.07,323.7c-.668.38-1.38.772-2.123,1.165q-2.225,1.2-3.786,2.152c-.514.3-.977.587-1.383.851a9.836,9.836,0,0,0-2.882,2.77,4.1,4.1,0,0,0-.532,3.413,4.851,4.851,0,0,0,3.451,3.463,10.1,10.1,0,0,0,4.171.318,23.036,23.036,0,0,0,3.452-.649,23.919,23.919,0,0,0,2.9-.965,25.17,25.17,0,0,0,4.52-2.4,22.678,22.678,0,0,0,5.629-5.148l4.418,5.526a20.92,20.92,0,0,1-6.405,5.715,33.4,33.4,0,0,1-6.4,3.048l1.689,6.461-6.343,1.657-1.7-6.506a21.52,21.52,0,0,1-6.675.084,13.686,13.686,0,0,1-7.129-3.1,11.76,11.76,0,0,1-3.645-5.99A10.012,10.012,0,0,1,71.751,328.308Z" transform="translate(-36.383 -271.877)" fill="#f4cc4d"/>
          </g>
        </g>
        <g id="Grupo_1182562" data-name="Grupo 1182562" transform="translate(80.068 231.174)">
          <path id="Trazado_1043042" data-name="Trazado 1043042" d="M144.057,352.782l37.089-25.829a13.419,13.419,0,0,1,19.844,5.371l17.616,38.019H197.5l-10.332-25.3-30.065,22.989Z" transform="translate(-91.088 -253.561)" fill="#41bcbc"/>
          <path id="Trazado_1043043" data-name="Trazado 1043043" d="M241.231,369.167s9.7-12.717,19.255-14.6l-7.7,28.771H238.458Z" transform="translate(-100.466 -256.544)" fill="#171659"/>
          <path id="Trazado_1043044" data-name="Trazado 1043044" d="M147.209,304.146a21.275,21.275,0,0,0-14.775-15.755v20.3l2.87.035,7.837,39.271.943,4.741,12.6-6.239Z" transform="translate(-89.933 -249.97)" fill="#fff"/>
          <path id="Trazado_1043045" data-name="Trazado 1043045" d="M105.354,359.942l1.672,9.922a15.811,15.811,0,0,0,15.591,13.184H227.585l2.08-16.867H146.02l-5.315-14.532Z" transform="translate(-87.243 -256.254)" fill="#41bcbc"/>
          <path id="Trazado_1043046" data-name="Trazado 1043046" d="M140.675,342.041l1.709,5.083-2.57.8-34.439,10.76a.952.952,0,0,1-1.229-.792l-.58-4.655a4.684,4.684,0,0,1-2.347-3.845c-.8-16.72.453-38.476,1.423-51.5a9.227,9.227,0,0,0-3.7-5.656,21.141,21.141,0,0,1,9.131-4.186l1.646-.314,13.133,14.446,5.5-14.076.508.139c.083.019.167.056.24.074a21.048,21.048,0,0,1,9.178,5.49,117.231,117.231,0,0,1,.065,26.036,17.513,17.513,0,0,0,1.525,9.178l2.661,5.73A5.937,5.937,0,0,1,140.675,342.041Z" transform="translate(-86.606 -249.905)" fill="#fff"/>
          <path id="Trazado_1043047" data-name="Trazado 1043047" d="M129.544,287.9l-3.235,8.291-2.264,5.786-4.621-5.083-8.512-9.362,1.165-.222a3.314,3.314,0,0,0,2.273-1.673c.675.148,1.655.351,2.828.536a31.89,31.89,0,0,0,9.861.195,1.535,1.535,0,0,0,.555.878,1.589,1.589,0,0,0,.518.258Z" transform="translate(-87.795 -249.696)" fill="#fff"/>
          <path id="Trazado_1043048" data-name="Trazado 1043048" d="M138.21,254.352v-.009A13.406,13.406,0,1,0,116.832,269.2l-.019.12-1.321,7.579-.655,3.774a3.279,3.279,0,0,1-.353,1.005c2.233.505,7.821,1.555,12.695.726a1.511,1.511,0,0,1-.032-.5l.389-3.4c7.375,2.394,9.464-5.444,11.4-17.3h-.019A13.34,13.34,0,0,0,138.21,254.352Z" transform="translate(-87.931 -245.732)" fill="#ffcfc0"/>
          <path id="Trazado_1043049" data-name="Trazado 1043049" d="M138.21,254.343v.009c-1.488,4.205-13.93-1.886-13.93-1.886a38.529,38.529,0,0,1-7.467,16.849l.019-.12a13.4,13.4,0,1,1,21.378-14.853Z" transform="translate(-87.931 -245.732)" fill="#171659"/>
          <path id="Trazado_1043050" data-name="Trazado 1043050" d="M134.569,263.247s-2.551,4.591,3.253,7.262l-4.638,2.032" transform="translate(-90.008 -247.472)" fill="none" stroke="#ff8e77" stroke-linecap="round" stroke-linejoin="round" stroke-miterlimit="10" stroke-width="0.75"/>
          <path id="Trazado_1043051" data-name="Trazado 1043051" d="M138.353,267.484c-.12.608.005,1.145.28,1.2s.593-.4.712-1-.005-1.144-.279-1.2S138.473,266.877,138.353,267.484Z" transform="translate(-90.517 -247.792)" fill="#130f40"/>
          <path id="Trazado_1043052" data-name="Trazado 1043052" d="M127.895,265.429c-.12.608.005,1.144.28,1.2s.593-.4.712-1-.005-1.144-.279-1.2S128.015,264.821,127.895,265.429Z" transform="translate(-89.478 -247.588)" fill="#130f40"/>
          <path id="Trazado_1043053" data-name="Trazado 1043053" d="M119.809,266.136s-1.472-6.49-5.727-5.208-2.7,14.147,4.554,11.178Z" transform="translate(-87.877 -247.225)" fill="#ffcfc0"/>
          <path id="Trazado_1043054" data-name="Trazado 1043054" d="M117.861,268.5s-.17-3.625-2.156-4.6-2.1,1.678-2.1,1.678" transform="translate(-88.063 -247.514)" fill="none" stroke="#ff8e77" stroke-linecap="round" stroke-linejoin="round" stroke-miterlimit="10" stroke-width="0.75"/>
          <path id="Trazado_1043055" data-name="Trazado 1043055" d="M116.659,264.843s-2.533,1.354-.476,5.114" transform="translate(-88.239 -247.63)" fill="none" stroke="#ff8e77" stroke-linecap="round" stroke-linejoin="round" stroke-miterlimit="10" stroke-width="0.75"/>
          <path id="Trazado_1043056" data-name="Trazado 1043056" d="M128.451,259.186a4.534,4.534,0,0,1,3.748.751" transform="translate(-89.537 -247.056)" fill="none" stroke="#130f40" stroke-linecap="round" stroke-linejoin="round" stroke-miterlimit="10" stroke-width="0.75"/>
          <path id="Trazado_1043057" data-name="Trazado 1043057" d="M138.909,261.489a2.179,2.179,0,0,1,2.821.982" transform="translate(-90.576 -247.279)" fill="none" stroke="#130f40" stroke-linecap="round" stroke-linejoin="round" stroke-miterlimit="10" stroke-width="0.75"/>
          <path id="Trazado_1043058" data-name="Trazado 1043058" d="M128.058,273.566a4.333,4.333,0,0,0,3.64,3.582" transform="translate(-89.498 -248.497)" fill="none" stroke="#ff8e77" stroke-linecap="round" stroke-linejoin="round" stroke-miterlimit="10" stroke-width="0.75"/>
          <path id="Trazado_1043059" data-name="Trazado 1043059" d="M128.285,281.331,127.869,285c-8.863-2.643-8.022-10.8-8.022-10.8S122.443,279.871,128.285,281.331Z" transform="translate(-88.681 -248.56)" fill="#ff8e77"/>
          <g id="Grupo_1182560" data-name="Grupo 1182560" transform="translate(30.935 76.274)">
            <path id="Trazado_1043060" data-name="Trazado 1043060" d="M119.592,335.959l10.942-5.073a5.039,5.039,0,0,1,5.369.722c2.816,2.372,5.575,3.8,6.64,6.542,1.618,4.159-8.085,3.816-8.085,3.816s-6.134,4.159-12.425,2.388Z" transform="translate(-119.592 -330.418)" fill="#ffcfc0"/>
            <path id="Trazado_1043061" data-name="Trazado 1043061" d="M135.669,339.986s5.781-.471,7.628,1.652" transform="translate(-121.189 -331.365)" fill="none" stroke="#ff8e77" stroke-linecap="round" stroke-linejoin="round" stroke-miterlimit="10" stroke-width="0.75"/>
            <path id="Trazado_1043062" data-name="Trazado 1043062" d="M135.242,336.646s5.388-.777,8.855,2.115" transform="translate(-121.147 -331.028)" fill="none" stroke="#ff8e77" stroke-linecap="round" stroke-linejoin="round" stroke-miterlimit="10" stroke-width="0.75"/>
            <path id="Trazado_1043063" data-name="Trazado 1043063" d="M134.814,332.808a14.877,14.877,0,0,1,7.365,2.885" transform="translate(-121.104 -330.656)" fill="none" stroke="#ff8e77" stroke-linecap="round" stroke-linejoin="round" stroke-miterlimit="10" stroke-width="0.75"/>
          </g>
          <path id="Trazado_1043064" data-name="Trazado 1043064" d="M97.582,292.743A21.2,21.2,0,0,0,90.3,303.709c-2.671,9.649-5.527,23.614-4.991,37.921a10.3,10.3,0,0,0,13.743,9.224l21.563-7.625-4.224-14.205-15.462,5.767,1.156-25.989C102.085,300.317,101.6,295.537,97.582,292.743Z" transform="translate(-85.245 -250.402)" fill="#fff"/>
          <path id="Trazado_1043065" data-name="Trazado 1043065" d="M124.966,293.8,127,296.251l-2.264,5.786-4.621-5.083,1.618-3.151-3.863-7.57a31.889,31.889,0,0,0,9.861.195,1.535,1.535,0,0,0,.555.878Z" transform="translate(-88.486 -249.755)" fill="#171659"/>
          <path id="Trazado_1043066" data-name="Trazado 1043066" d="M130.709,287.982l-2.171,5.554-5.9-6.821a26.782,26.782,0,0,0,5.564-.268,1.52,1.52,0,0,0,1.072,1.137Z" transform="translate(-88.96 -249.776)" fill="#fff"/>
          <path id="Trazado_1043067" data-name="Trazado 1043067" d="M121.475,286.636l-4.917,7.107-5.647-6.211,1.165-.222a3.314,3.314,0,0,0,2.273-1.673A44.257,44.257,0,0,0,121.475,286.636Z" transform="translate(-87.795 -249.696)" fill="#fff"/>
          <path id="Trazado_1043068" data-name="Trazado 1043068" d="M117.181,293.853l4.917-7.107,5.9,6.821" transform="translate(-88.418 -249.806)" fill="none" stroke="#130f40" stroke-linecap="round" stroke-linejoin="round" stroke-miterlimit="10" stroke-width="0.75"/>
          <path id="Trazado_1043069" data-name="Trazado 1043069" d="M101.691,339.43a30.356,30.356,0,0,0-8.78,4.857" transform="translate(-86.007 -255.04)" fill="none" stroke="#130f40" stroke-linecap="round" stroke-linejoin="round" stroke-miterlimit="10" stroke-width="0.75"/>
          <path id="Trazado_1043070" data-name="Trazado 1043070" d="M143.909,349.316l2.57-.8-1.709-5.083a5.939,5.939,0,0,0,1.858-7.283l-2.661-5.73a18.345,18.345,0,0,1-1.525-9.178c.568-7.384-.05-14.779-2.282-19.515" transform="translate(-90.701 -251.294)" fill="none" stroke="#130f40" stroke-linecap="round" stroke-linejoin="round" stroke-miterlimit="10" stroke-width="0.75"/>
          <path id="Trazado_1043071" data-name="Trazado 1043071" d="M103.816,310.574l-1.156,25.989,15.462-5.767.874,2.688" transform="translate(-86.975 -252.173)" fill="none" stroke="#130f40" stroke-linecap="round" stroke-linejoin="round" stroke-miterlimit="10" stroke-width="0.75"/>
          <path id="Trazado_1043072" data-name="Trazado 1043072" d="M121.589,346.379l.648,2.18-20.679,7.312" transform="translate(-86.866 -255.73)" fill="none" stroke="#130f40" stroke-linecap="round" stroke-linejoin="round" stroke-miterlimit="10" stroke-width="0.75"/>
          <line id="Línea_798" data-name="Línea 798" y1="9.936" x2="32.002" transform="translate(18.111 92.828)" fill="none" stroke="#130f40" stroke-linecap="round" stroke-linejoin="round" stroke-miterlimit="10" stroke-width="0.75"/>
          <g id="Grupo_1182561" data-name="Grupo 1182561" transform="translate(37.88 76.274)">
            <path id="Trazado_1043073" data-name="Trazado 1043073" d="M128.667,364.14H172a1.362,1.362,0,0,0,1.315-1.007l8.365-31a1.362,1.362,0,0,0-1.315-1.717H137.032a1.362,1.362,0,0,0-1.315,1.007l-8.365,31A1.361,1.361,0,0,0,128.667,364.14Z" transform="translate(-127.304 -330.419)" fill="#6a6ae2"/>
            <line id="Línea_799" data-name="Línea 799" x1="8.364" y2="30.997" transform="translate(1.751 1.606)" fill="none" stroke="#130f40" stroke-linecap="round" stroke-linejoin="round" stroke-miterlimit="10" stroke-width="0.75"/>
            <path id="Trazado_1043074" data-name="Trazado 1043074" d="M135.617,347.3l3.86,14.881a4.85,4.85,0,0,0,4.694,3.632h36.664a1.654,1.654,0,0,0,1.6-2.069L178.179,347.3Z" transform="translate(-128.13 -332.096)" fill="#cacaff"/>
          </g>
          <line id="Línea_800" data-name="Línea 800" x2="20.758" y2="0.068" transform="translate(103.615 109.927)" fill="none" stroke="#130f40" stroke-linecap="round" stroke-linejoin="round" stroke-miterlimit="10" stroke-width="0.75"/>
          <path id="Trazado_1043075" data-name="Trazado 1043075" d="M110.911,287.741l13.133,14.446,6.007-13.938" transform="translate(-87.795 -249.905)" fill="none" stroke="#130f40" stroke-linecap="round" stroke-linejoin="round" stroke-miterlimit="10" stroke-width="0.75"/>
        </g>
        <g id="Grupo_1182564" data-name="Grupo 1182564" transform="translate(40.588 175.191)">
          <path id="Trazado_1043076" data-name="Trazado 1043076" d="M103.761,192.972v28.511a9.4,9.4,0,0,1-9.4,9.4H85.85v15.395L70.466,230.883H50.809a9.4,9.4,0,0,1-9.4-9.4V192.972a9.4,9.4,0,0,1,9.4-9.4H94.362A9.4,9.4,0,0,1,103.761,192.972Z" transform="translate(-41.41 -183.573)" fill="#41bcbc"/>
          <g id="Grupo_1182563" data-name="Grupo 1182563" transform="translate(13.096 28.236)">
            <path id="Trazado_1043077" data-name="Trazado 1043077" d="M62.184,218.04a3.116,3.116,0,1,1-3.116-3.116A3.116,3.116,0,0,1,62.184,218.04Z" transform="translate(-55.951 -214.924)" fill="#fff"/>
            <path id="Trazado_1043078" data-name="Trazado 1043078" d="M78.8,218.04a3.116,3.116,0,1,1-3.116-3.116A3.116,3.116,0,0,1,78.8,218.04Z" transform="translate(-57.601 -214.924)" fill="#fff"/>
            <path id="Trazado_1043079" data-name="Trazado 1043079" d="M95.41,218.04a3.116,3.116,0,1,1-3.116-3.116A3.116,3.116,0,0,1,95.41,218.04Z" transform="translate(-59.252 -214.924)" fill="#fff"/>
          </g>
        </g>
        <g id="Grupo_1182568" data-name="Grupo 1182568" transform="translate(263.14 291.488)">
          <rect id="Rectángulo_415646" data-name="Rectángulo 415646" width="63.298" height="43.97" transform="translate(0.135 22.442)" fill="#f4cc4d"/>
          <path id="Trazado_1043080" data-name="Trazado 1043080" d="M354.412,337.616v43.97H332.229c-19.139-9.817-19.6-32.748-18.544-43.97Z" transform="translate(-290.979 -315.174)" fill="#c9a645"/>
          <g id="Grupo_1182565" data-name="Grupo 1182565" transform="translate(0 32.742)">
            <line id="Línea_801" data-name="Línea 801" x2="63.562" transform="translate(0 23.367)" fill="none" stroke="#130f40" stroke-linecap="round" stroke-linejoin="round" stroke-miterlimit="10" stroke-width="0.75"/>
            <line id="Línea_802" data-name="Línea 802" x2="63.562" transform="translate(0 11.683)" fill="none" stroke="#130f40" stroke-linecap="round" stroke-linejoin="round" stroke-miterlimit="10" stroke-width="0.75"/>
            <line id="Línea_803" data-name="Línea 803" x2="63.562" fill="none" stroke="#130f40" stroke-linecap="round" stroke-linejoin="round" stroke-miterlimit="10" stroke-width="0.75"/>
          </g>
          <g id="Grupo_1182567" data-name="Grupo 1182567" transform="translate(31.794)">
            <g id="Grupo_1182566" data-name="Grupo 1182566">
              <path id="Trazado_1043081" data-name="Trazado 1043081" d="M384.516,331.178a31.632,31.632,0,1,1-43.571-10.136A31.631,31.631,0,0,1,384.516,331.178Z" transform="translate(-324.031 -313.052)" fill="#c9a645"/>
              <path id="Trazado_1043082" data-name="Trazado 1043082" d="M382.3,327.617a31.632,31.632,0,1,1-43.57-10.135A31.632,31.632,0,0,1,382.3,327.617Z" transform="translate(-323.811 -312.699)" fill="#f4cc4d"/>
              <path id="Trazado_1043083" data-name="Trazado 1043083" d="M378.8,330.643a26.9,26.9,0,1,1-37.046-8.618A26.9,26.9,0,0,1,378.8,330.643Z" transform="translate(-324.334 -313.221)" fill="#c9a645"/>
              <path id="Trazado_1043084" data-name="Trazado 1043084" d="M366.813,342.217A8.918,8.918,0,0,0,362.58,342a35.093,35.093,0,0,0-4.4,1.183c-.267.086-.543.177-.822.271-1.334.435-2.432.769-3.3.991-.12.029-.235.055-.344.082a6.3,6.3,0,0,1-2.528.136,2.535,2.535,0,0,1-1.8-1.23,3.271,3.271,0,0,1-.187-3.19,5.45,5.45,0,0,1,1.2-1.674,12.357,12.357,0,0,1,2.2-1.682,13.928,13.928,0,0,1,1.24-.686,15.738,15.738,0,0,1,2.414-.919,16.367,16.367,0,0,1,4.2-.648l-.756-4.371a14.349,14.349,0,0,0-4.686.711,21.049,21.049,0,0,0-3.51,1.469l-2.221-3.568-3.54,2.2,2.3,3.688a13.129,13.129,0,0,0-2.492,2.68,8.679,8.679,0,0,0-1.661,4.649,7.63,7.63,0,0,0,1.183,4.322,6.528,6.528,0,0,0,3.582,3.019,8.7,8.7,0,0,0,4.214.224,35.309,35.309,0,0,0,3.824-1c.467-.142.96-.3,1.466-.471,1.018-.336,1.9-.6,2.649-.807.364-.106.7-.195,1-.266a6.263,6.263,0,0,1,2.539-.12,2.6,2.6,0,0,1,1.808,1.246,3.083,3.083,0,0,1,.089,3.108,6.414,6.414,0,0,1-1.677,2.064,14.624,14.624,0,0,1-1.809,1.31,15.319,15.319,0,0,1-1.714.918,16.083,16.083,0,0,1-3.084,1.038,14.436,14.436,0,0,1-4.838.348l.62,4.456a13.308,13.308,0,0,0,5.439-.458,21.264,21.264,0,0,0,4.205-1.621l2.244,3.605,3.539-2.2-2.26-3.63a13.7,13.7,0,0,0,2.958-3.044,8.7,8.7,0,0,0,1.685-4.648,7.483,7.483,0,0,0-1.171-4.3A6.376,6.376,0,0,0,366.813,342.217Z" transform="translate(-325.804 -314.305)" fill="#f4cc4d"/>
            </g>
          </g>
          <path id="Trazado_1043085" data-name="Trazado 1043085" d="M355.45,381.585h-.081a31.6,31.6,0,0,1-24.777-14.852c-.333-.54-.648-1.081-.946-1.639q-.554-.757-1.054-1.567a31.536,31.536,0,0,1-3.4-25.912" transform="translate(-292.017 -315.174)" fill="none" stroke="#130f40" stroke-linecap="round" stroke-linejoin="round" stroke-miterlimit="10" stroke-width="0.75"/>
        </g>
        <g id="Grupo_1182569" data-name="Grupo 1182569" transform="translate(338.501 140.28)">
          <path id="Trazado_1043086" data-name="Trazado 1043086" d="M437.89,377.261c-2.936-.27-3.323-1.648-7.241-1.648-4.332,0-4.665,2.315-7.088,2.315a2.4,2.4,0,0,1-1.819-.685l.693-7.484h11.087A37.924,37.924,0,0,1,437.89,377.261Z" transform="translate(-377.107 -167.159)" fill="#ffcfc0"/>
          <path id="Trazado_1043087" data-name="Trazado 1043087" d="M440.872,385.491H420.95l.712-7.6a2.4,2.4,0,0,0,1.819.685c2.423,0,2.756-2.315,7.088-2.315,3.918,0,4.305,1.378,7.241,1.648A79.574,79.574,0,0,1,440.872,385.491Z" transform="translate(-377.028 -167.804)" fill="#171659"/>
          <path id="Trazado_1043088" data-name="Trazado 1043088" d="M387.228,380.232c4.721-1.526,13.022-4.129,17.3-3.353l-.132-7.117H393.589a82.855,82.855,0,0,0-11.732,9.517C382.261,380.216,383.486,381.441,387.228,380.232Z" transform="translate(-373.145 -167.159)" fill="#ffcfc0"/>
          <path id="Trazado_1043089" data-name="Trazado 1043089" d="M386.609,381c-3.741,1.21-4.967-.016-5.371-.953-3.272,3.087-5.606,5.569-5.606,5.569H404.06l-.149-7.969C399.631,376.872,391.331,379.475,386.609,381Z" transform="translate(-372.526 -167.928)" fill="#171659"/>
          <path id="Trazado_1043090" data-name="Trazado 1043090" d="M438.841,184.609c-.144,3.8-7.5,9.34-7.5,9.34s-19.292-1.954-24.093-3.377-6.53-6.386-3.531-9.088,4.584-7.962-.369-7.971-4.053-4.4-4.053-4.4a4.886,4.886,0,0,1-4.053-4.972c-.081-3.314,3.972-4.773,3.972-4.773-.973-.721-2.7-8.358,10.439-13.087a28.7,28.7,0,0,1,3.936-1.126c9.511-1.9,10.709,4.575,10.709,4.575,13.294,1.5,6.142,19.382,6.142,19.382s2.855-.09,2.855,2.666-3.377,4.17-3.377,4.17a5.214,5.214,0,0,1,3.314.612,2.2,2.2,0,0,1,.883,1.4c.5,2.4-2.207,4.4-2.522,4.629C434.743,181.034,438.994,180.817,438.841,184.609Z" transform="translate(-374.474 -144.811)" fill="#130f40"/>
          <path id="Trazado_1043091" data-name="Trazado 1043091" d="M442.055,219.465l-.946,3.377-8.646,3.693-2.288.982-2.711-10.538-1.4-5.44H399.056l-7.322,7.791-3.783,4.026-1.333-1.369L377.81,213a82.405,82.405,0,0,1,7.656-9.493,47.734,47.734,0,0,1,8.484-7.223,32.346,32.346,0,0,1,18.22-5.5,48.2,48.2,0,0,1,10.718,1.216,22.14,22.14,0,0,1,11.88,7.214,22.45,22.45,0,0,1,4.62,8.709c.081.288.153.585.225.883Z" transform="translate(-372.743 -149.378)" fill="#6a6ae2"/>
          <path id="Trazado_1043092" data-name="Trazado 1043092" d="M447.136,226.379l-4.6,16.473a6.669,6.669,0,0,1-.775-1.72l-3.269-11.06Z" transform="translate(-378.771 -152.915)" fill="#ffcfc0"/>
          <path id="Trazado_1043093" data-name="Trazado 1043093" d="M400.452,241.676l-5.3,8.9-19.3-16.464a10.388,10.388,0,0,1-2.071-13.456q1.729-2.729,3.468-5.206l8.808,8.989-2.378,2.378Z" transform="translate(-372.184 -151.829)" fill="#ffcfc0"/>
          <path id="Trazado_1043094" data-name="Trazado 1043094" d="M427.012,221.906a18.784,18.784,0,0,0-.766,12.177,93.9,93.9,0,0,1,2.414,11.357H395.633c1.684-9.538,1.927-14.843-1.306-21.751a12.206,12.206,0,0,1-1.063-4.251c-.522-6.593,3.08-13.879,3.08-13.879l-.865-9.169a33.1,33.1,0,0,1,9.718-4.413c-.207,1.756-.126,6.16,6.106,6.16,5.989,0,10.331-4.287,12.024-6.269.369.072.73.153,1.09.234a22.14,22.14,0,0,1,11.88,7.214l-7.3,17.77Z" transform="translate(-374.273 -149.486)" fill="#6a6ae2"/>
          <path id="Trazado_1043095" data-name="Trazado 1043095" d="M428.189,251.35H395.163c-.072.407-.142.81-.22,1.233-1.882,10.34-6.494,106.259-6.494,106.259h19.58l3.152-85.787,3.837,85.787h18.229s-2.468-77.339-3.368-90.966C429.478,261.776,428.96,256.356,428.189,251.35Z" transform="translate(-373.8 -155.395)" fill="#171659"/>
          <path id="Trazado_1043096" data-name="Trazado 1043096" d="M421.694,173.285l-.205,12.618a1.421,1.421,0,0,0,1.192,1.417q.771.132,1.518.286c-1.693,1.981-6.034,6.269-12.024,6.269-6.233,0-6.314-4.4-6.106-6.16.673-.18,1.353-.336,2.044-.471a1.422,1.422,0,0,0,1.133-1.291l.074-.931.4-4.846c-7.5.9-8.034-6.98-7.656-18.689l.018.009a13.057,13.057,0,1,1,19.616,11.79Z" transform="translate(-375.143 -145.222)" fill="#ffcfc0"/>
          <path id="Trazado_1043097" data-name="Trazado 1043097" d="M435.189,176.566h-8.98c-4.341-5.062-3.945-14.293-3.945-14.293-10.412-4.332-6.647-14.636-6.647-14.636l-.072-2.477c9.511-1.9,10.709,4.575,10.709,4.575,13.294,1.5,6.142,19.382,6.142,19.382s2.855-.09,2.855,2.666-3.377,4.17-3.377,4.17A5.214,5.214,0,0,1,435.189,176.566Z" transform="translate(-376.433 -144.811)" fill="#130f40"/>
          <path id="Trazado_1043098" data-name="Trazado 1043098" d="M416.322,174.759a17.86,17.86,0,0,1-1.36,1.45c-1.792,1.693-4.8,3.783-5.422-.576l.306-.036Z" transform="translate(-375.895 -147.786)" fill="#ff8e77"/>
          <path id="Trazado_1043099" data-name="Trazado 1043099" d="M416.356,174.759a17.86,17.86,0,0,1-1.36,1.45c-3.891,1.441-4.873.207-5.116-.612Z" transform="translate(-375.929 -147.786)" fill="#fff"/>
          <path id="Trazado_1043100" data-name="Trazado 1043100" d="M408.433,166.521a3.85,3.85,0,1,1-3.813-3.322A3.594,3.594,0,0,1,408.433,166.521Z" transform="translate(-375.027 -146.638)" fill="none" stroke="#fff" stroke-linecap="round" stroke-linejoin="round" stroke-miterlimit="10" stroke-width="0.75"/>
          <ellipse id="Elipse_11867" data-name="Elipse 11867" cx="3.813" cy="3.322" rx="3.813" ry="3.322" transform="translate(35.917 16.561)" fill="none" stroke="#fff" stroke-linecap="round" stroke-linejoin="round" stroke-miterlimit="10" stroke-width="0.75"/>
          <path id="Trazado_1043101" data-name="Trazado 1043101" d="M409.514,163.824s1.576,4.869-4.475,6.333l4.053,2.815" transform="translate(-375.448 -146.7)" fill="none" stroke="#ff8e77" stroke-linecap="round" stroke-linejoin="round" stroke-miterlimit="10" stroke-width="0.75"/>
          <path id="Trazado_1043102" data-name="Trazado 1043102" d="M409.274,166.826s.842-1.238,2.511,0" transform="translate(-375.868 -146.944)" fill="none" stroke="#fff" stroke-linecap="round" stroke-linejoin="round" stroke-miterlimit="10" stroke-width="0.75"/>
          <path id="Trazado_1043103" data-name="Trazado 1043103" d="M406.555,166.729c0,.6-.221,1.093-.493,1.093s-.493-.489-.493-1.093.221-1.093.493-1.093S406.555,166.126,406.555,166.729Z" transform="translate(-375.5 -146.88)" fill="#130f40"/>
          <ellipse id="Elipse_11868" data-name="Elipse 11868" cx="0.493" cy="1.093" rx="0.493" ry="1.093" transform="translate(39.424 18.756)" fill="#130f40"/>
          <path id="Trazado_1043104" data-name="Trazado 1043104" d="M402.495,159.869a4.727,4.727,0,0,1,4.621-.616" transform="translate(-375.195 -146.211)" fill="none" stroke="#130f40" stroke-linecap="round" stroke-linejoin="round" stroke-miterlimit="10" stroke-width="0.75"/>
          <path id="Trazado_1043105" data-name="Trazado 1043105" d="M411.758,159.123a6.6,6.6,0,0,1,5.882,0" transform="translate(-376.115 -146.165)" fill="none" stroke="#130f40" stroke-linecap="round" stroke-linejoin="round" stroke-miterlimit="10" stroke-width="0.75"/>
          <line id="Línea_804" data-name="Línea 804" x2="6.944" y2="1.407" transform="translate(43.543 19.883)" fill="none" stroke="#fff" stroke-linecap="round" stroke-linejoin="round" stroke-miterlimit="10" stroke-width="0.75"/>
          <path id="Trazado_1043106" data-name="Trazado 1043106" d="M420.65,179.389c-.252.414-3.99,6.494-10.52,8.655l.4-4.846C417.362,182.829,420.461,179.587,420.65,179.389Z" transform="translate(-375.953 -148.246)" fill="#ff8e77"/>
          <path id="Trazado_1043107" data-name="Trazado 1043107" d="M423.237,172.389s2.627-5.929,6.455-3.9-.075,14.035-6.455,9.832Z" transform="translate(-377.256 -147.121)" fill="#ffcfc0"/>
          <path id="Trazado_1043108" data-name="Trazado 1043108" d="M425.07,175.062s.845-3.434,2.927-4,1.689,2,1.689,2" transform="translate(-377.438 -147.411)" fill="none" stroke="#ff8e77" stroke-linecap="round" stroke-linejoin="round" stroke-miterlimit="10" stroke-width="0.75"/>
          <path id="Trazado_1043109" data-name="Trazado 1043109" d="M427.264,171.8s2.167,1.771-.506,4.98" transform="translate(-377.605 -147.492)" fill="none" stroke="#ff8e77" stroke-linecap="round" stroke-linejoin="round" stroke-miterlimit="10" stroke-width="0.75"/>
          <path id="Trazado_1043110" data-name="Trazado 1043110" d="M393.264,220.948c-.522-6.593,3.08-13.879,3.08-13.879" transform="translate(-374.273 -150.996)" fill="none" stroke="#130f40" stroke-linecap="round" stroke-linejoin="round" stroke-miterlimit="10" stroke-width="0.75"/>
          <line id="Línea_805" data-name="Línea 805" x2="1.395" y2="5.44" transform="translate(53.325 62.161)" fill="none" stroke="#130f40" stroke-linecap="round" stroke-linejoin="round" stroke-miterlimit="10" stroke-width="0.75"/>
          <path id="Trazado_1043111" data-name="Trazado 1043111" d="M460.453,203.058c-.171,2.135-.171,5.8-1.18,8.556-.468,4.026-1.054,8.007-1.7,11.844a.465.465,0,0,1-.018.1c-.793,4.692-1.693,9.187-2.6,13.321a6.692,6.692,0,0,1-.612,1.7,6.614,6.614,0,0,1-11.357.477l5.548-19.85,2.531-9.043-1.729-8.178a6.846,6.846,0,0,1,.549-4.413c1.729-3.549,5.224-10.15,6.917-9.322,2.306,1.126-2.306,4.125-3.1,9.52,0,0,6.025-10.556,8.106-8.853s-2.351,3.468-4.827,9.322c.288-.378,5.26-7.025,6.629-5.656,1.414,1.414-3.143,4-4.773,7.764.216-.261,3.981-4.8,5.395-3.927C465.686,197.321,460.624,200.923,460.453,203.058Z" transform="translate(-379.217 -149.12)" fill="#ffcfc0"/>
          <line id="Línea_806" data-name="Línea 806" x1="2.155" y2="7.719" transform="translate(66.21 73.464)" fill="none" stroke="#ff8e77" stroke-linecap="round" stroke-linejoin="round" stroke-miterlimit="10" stroke-width="0.75"/>
          <path id="Trazado_1043112" data-name="Trazado 1043112" d="M452.2,200.989s5.614-5.7,7.2-3.779-2.581,3.216-2.806,4.455a10.383,10.383,0,0,1,.338,4.386" transform="translate(-380.132 -149.977)" fill="#ffcfc0" stroke="#ff8e77" stroke-linecap="round" stroke-linejoin="round" stroke-miterlimit="10" stroke-width="0.75"/>
        </g>
        <g id="Grupo_1182570" data-name="Grupo 1182570" transform="translate(376.234 112.068)">
          <path id="Trazado_1043113" data-name="Trazado 1043113" d="M427.115,139.592s.177-13.051,13.068-13.036c0,0-13.051-.177-13.036-13.068,0,0-.177,13.051-13.068,13.036C414.079,126.524,427.131,126.7,427.115,139.592Z" transform="translate(-414.079 -113.488)" fill="#f4cc4d"/>
          <path id="Trazado_1043114" data-name="Trazado 1043114" d="M443.824,151.561s.088-6.529,6.537-6.522c0,0-6.529-.088-6.522-6.537,0,0-.088,6.529-6.537,6.522C437.3,145.024,443.832,145.112,443.824,151.561Z" transform="translate(-416.386 -115.973)" fill="#f4cc4d"/>
        </g>
        <path id="Trazado_1043117" data-name="Trazado 1043117" d="M430.53,0" transform="translate(-9.634 357.969)" fill="none" stroke="#130f40" stroke-linecap="round" stroke-width="0.75"/>
        <g id="Grupo_1182571" data-name="Grupo 1182571" transform="translate(67.929 99.195)">
          <path id="Trazado_1043115" data-name="Trazado 1043115" d="M312.205,339.436H225.022A12.834,12.834,0,0,1,237.856,326.6h.153c-.063-.63-.09-1.27-.09-1.918a19.7,19.7,0,0,1,38.215-6.737,15.764,15.764,0,0,1,4.152-.549A16.03,16.03,0,0,1,296.2,331.546a9.846,9.846,0,0,1,6.052-2.062A9.955,9.955,0,0,1,312.205,339.436Z" transform="translate(-86.992 -119.639)" fill="#6a6ae2"/>
          <path id="Trazado_1043116" data-name="Trazado 1043116" d="M174.954,139.969H71.767a15.19,15.19,0,0,1,15.19-15.19h.181c-.075-.746-.106-1.5-.106-2.271a23.319,23.319,0,0,1,45.23-7.974,18.639,18.639,0,0,1,4.914-.65,18.972,18.972,0,0,1,18.836,16.747,11.656,11.656,0,0,1,7.164-2.441A11.782,11.782,0,0,1,174.954,139.969Z" transform="translate(-71.767 -99.195)" fill="#6a6ae2"/>
        </g>
      </g>
    </g>
  </g>
</svg>
