<svg xmlns="http://www.w3.org/2000/svg" xmlns:xlink="http://www.w3.org/1999/xlink" width="93.934" height="93.934" viewBox="0 0 93.934 93.934">
  <defs>
    <filter id="Trazado_982547" x="0" y="0" width="93.934" height="93.934" filterUnits="userSpaceOnUse">
      <feOffset dy="3" input="SourceAlpha"/>
      <feGaussianBlur stdDeviation="3" result="blur"/>
      <feFlood flood-opacity="0.161"/>
      <feComposite operator="in" in2="blur"/>
      <feComposite in="SourceGraphic"/>
    </filter>
  </defs>
  <g id="Grupo_1182592" data-name="Grupo 1182592" transform="translate(-194.533 -2569.267)">
    <g id="Grupo_1182283" data-name="Grupo 1182283" transform="translate(9.517 -218.733)">
      <g id="Grupo_1173172" data-name="Grupo 1173172" transform="translate(-5.017 -11128)">
        <g id="Grupo_1171989" data-name="Grupo 1171989" transform="translate(199.033 13922)">
          <g id="Grupo_1167337" data-name="Grupo 1167337" transform="translate(0)">
            <g id="Grupo_1166720" data-name="Grupo 1166720">
              <g id="Grupo_1164305" data-name="Grupo 1164305">
                <g id="Grupo_1163948" data-name="Grupo 1163948">
                  <g id="Grupo_1158168" data-name="Grupo 1158168">
                    <g id="Grupo_1152576" data-name="Grupo 1152576">
                      <g id="Grupo_1148633" data-name="Grupo 1148633">
                        <g id="Grupo_1148525" data-name="Grupo 1148525">
                          <g transform="matrix(1, 0, 0, 1, -9, -6)" filter="url(#Trazado_982547)">
                            <g id="Trazado_982547-2" data-name="Trazado 982547" transform="translate(9 6)" fill="#e9f9fd">
                              <path d="M 37.966796875 74.43359375 C 33.04315185546875 74.43359375 28.26757431030273 73.46962738037109 23.77274131774902 71.56847381591797 C 19.43047523498535 69.73184967041016 15.53040790557861 67.10224914550781 12.18087482452393 63.75271987915039 C 8.831341743469238 60.4031867980957 6.201741218566895 56.50312042236328 4.365118980407715 52.16086196899414 C 2.463963508605957 47.66601943969727 1.499996900558472 42.89044189453125 1.499996900558472 37.966796875 C 1.499996900558472 33.04315185546875 2.463963508605957 28.26757431030273 4.365118980407715 23.77274131774902 C 6.201741218566895 19.43047523498535 8.831341743469238 15.53040790557861 12.18087482452393 12.18087482452393 C 15.53040790557861 8.831341743469238 19.43047523498535 6.201741218566895 23.77274131774902 4.365118980407715 C 28.26757431030273 2.463963508605957 33.04315185546875 1.499996900558472 37.966796875 1.499996900558472 C 42.89044189453125 1.499996900558472 47.66601943969727 2.463963508605957 52.16086196899414 4.365118980407715 C 56.50312042236328 6.201741218566895 60.4031867980957 8.831341743469238 63.75271987915039 12.18087482452393 C 67.10224914550781 15.53040790557861 69.73184967041016 19.43047523498535 71.56847381591797 23.77274131774902 C 73.46962738037109 28.26757431030273 74.43359375 33.04315185546875 74.43359375 37.966796875 C 74.43359375 42.89044189453125 73.46962738037109 47.66601943969727 71.56847381591797 52.16086196899414 C 69.73184967041016 56.50313186645508 67.10224914550781 60.4031867980957 63.75271987915039 63.75271987915039 C 60.4031867980957 67.10224914550781 56.50313186645508 69.73184967041016 52.16086196899414 71.56847381591797 C 47.66601943969727 73.46962738037109 42.89044189453125 74.43359375 37.966796875 74.43359375 Z" stroke="none"/>
                              <path d="M 37.966796875 3 C 33.2449836730957 3 28.66600799560547 3.924095153808594 24.35705947875977 5.746635437011719 C 20.19359588623047 7.507637023925781 16.45379638671875 10.02928161621094 13.24153518676758 13.24153518676758 C 10.02927398681641 16.45379638671875 7.507621765136719 20.19359588623047 5.746635437011719 24.35705947875977 C 3.924095153808594 28.66600799560547 3 33.2449836730957 3 37.966796875 C 3 42.6886100769043 3.924095153808594 47.26758575439453 5.746635437011719 51.57653427124023 C 7.507621765136719 55.73999786376953 10.02927398681641 59.47979736328125 13.24153518676758 62.69205856323242 C 16.45379638671875 65.90431976318359 20.19359588623047 68.42597198486328 24.35705947875977 70.18695831298828 C 28.66600799560547 72.00949859619141 33.2449836730957 72.93359375 37.966796875 72.93359375 C 42.6886100769043 72.93359375 47.26758575439453 72.00949859619141 51.57653427124023 70.18695831298828 C 55.73999786376953 68.42597198486328 59.47979736328125 65.90431976318359 62.69205856323242 62.69205856323242 C 65.90431976318359 59.47979736328125 68.42597198486328 55.73999786376953 70.18695831298828 51.57653427124023 C 72.00949859619141 47.26758575439453 72.93359375 42.6886100769043 72.93359375 37.966796875 C 72.93359375 33.2449836730957 72.00949859619141 28.66600799560547 70.18695831298828 24.35705947875977 C 68.42597198486328 20.19359588623047 65.90431976318359 16.45379638671875 62.69205856323242 13.24153518676758 C 59.47979736328125 10.02928161621094 55.73999786376953 7.507637023925781 51.57653427124023 5.746635437011719 C 47.26758575439453 3.924095153808594 42.6886100769043 3 37.966796875 3 M 37.966796875 0 C 58.93528366088867 0 75.93359375 16.99832153320312 75.93359375 37.966796875 C 75.93359375 58.93528366088867 58.93528366088867 75.93359375 37.966796875 75.93359375 C 16.99831008911133 75.93359375 0 58.93528366088867 0 37.966796875 C 0 16.99832153320312 16.99831008911133 0 37.966796875 0 Z" stroke="none" fill="#1d7083"/>
                            </g>
                          </g>
                        </g>
                      </g>
                    </g>
                  </g>
                </g>
              </g>
            </g>
          </g>
        </g>
      </g>
    </g>
    <g id="lider_1_" data-name="lider (1)" transform="translate(218.625 2590.189)">
      <g id="Grupo_1182588" data-name="Grupo 1182588" transform="translate(0.894 1.079)">
        <path id="Trazado_1043118" data-name="Trazado 1043118" d="M299.666,271.613v-4.2H288.184v16.275h11.482v-12.07Z" transform="translate(-263.327 -244.425)" fill="#fff"/>
        <path id="Trazado_1043119" data-name="Trazado 1043119" d="M416.689,259.486V263.7l7.623-.072V245.459l-7.623,1.961v12.066Z" transform="translate(-380.35 -224.436)" fill="#5c90ae"/>
        <path id="Trazado_1043120" data-name="Trazado 1043120" d="M34.857,229.81H33.506c-2.475,0-3.264-1.936-4.247-3.173l-.686-.864a5.181,5.181,0,0,0-4.057-1.958H18.686l.593,3.852H12.647a2.143,2.143,0,0,0,0,4.287h-.5a2.143,2.143,0,1,0,0,4.287h1.4a2.144,2.144,0,0,0,0,4.287h.807a2.143,2.143,0,0,0,0,4.287H25.136a5.181,5.181,0,0,0,3.372-1.248l.7-.6a5.181,5.181,0,0,1,3.372-1.248h2.275Z" transform="translate(-10 -204.726)" fill="#ffc6ae"/>
        <path id="Trazado_1043121" data-name="Trazado 1043121" d="M41.114,33.126l-3.285-21.3a1.937,1.937,0,1,0-3.827.6l3.268,20.7Z" transform="translate(-31.835 -10.185)" fill="#f9f5f3"/>
        <path id="Trazado_1043122" data-name="Trazado 1043122" d="M106.907,458.832l.234,1.756a1.842,1.842,0,1,1-3.655.469l-.28-2.225Z" transform="translate(-94.879 -418.744)" fill="#f9f5f3"/>
        <g id="Grupo_1182587" data-name="Grupo 1182587" transform="translate(6.029 1.889)">
          <path id="Trazado_1043123" data-name="Trazado 1043123" d="M77.472,31.329H88.263L86.8,42.045H79.1Z" transform="translate(-77.472 -31.329)" fill="#ff7e96"/>
          <path id="Trazado_1043124" data-name="Trazado 1043124" d="M178.678,65.365h7.808L184.2,70.9l3.918,5.179h-10.9Z" transform="translate(-168.303 -62.324)" fill="#ff7e96"/>
        </g>
      </g>
      <g id="Grupo_1182590" data-name="Grupo 1182590" transform="translate(0 0.186)">
        <g id="Grupo_1182589" data-name="Grupo 1182589" transform="translate(0 0)">
          <path id="Trazado_1043125" data-name="Trazado 1043125" d="M408.431,349.046a.893.893,0,1,0-.483,1.167A.9.9,0,0,0,408.431,349.046Z" transform="translate(-370.374 -317.374)"/>
          <path id="Trazado_1043126" data-name="Trazado 1043126" d="M45.4,21.4a.894.894,0,0,0-.77-.159L37.12,23.17H25.75a.894.894,0,0,0-.894.894V25.27H24.4c-1.555,0-2.216-.953-2.982-2.056-.181-.261-1.252-1.643-1.252-1.643a6.043,6.043,0,0,0-4.757-2.3H10.345l-.724-4.7h5.606L14.949,16.6a.9.9,0,0,0,.885,1.014h10.9a.9.9,0,0,0,.713-1.433l-3.61-4.771,2.091-5.064a.893.893,0,0,0-.826-1.235H18.322L18.6,3.09a.9.9,0,0,0-.885-1.014H7.644A2.813,2.813,0,0,0,4.973.186a2.857,2.857,0,0,0-2.8,3.271L5.283,23.126H3.54a3.035,3.035,0,0,0-2.372,4.931A3.036,3.036,0,0,0,1.8,33.224a3.034,3.034,0,0,0,.961,4.047,3.036,3.036,0,0,0,2.479,4.79H8.434L8.615,43.5a2.736,2.736,0,1,0,5.427-.7l-.1-.744H16.03A6.078,6.078,0,0,0,19.983,40.6l.7-.6a4.29,4.29,0,0,1,2.791-1.033h1.382v1.373a.894.894,0,0,0,.894.894H37.241l7.623-.072a.894.894,0,0,0,.885-.894V22.1A.894.894,0,0,0,45.4,21.4ZM23.77,6.9l-1.777,4.3a.894.894,0,0,0,.113.88l2.834,3.746H16.859L18.078,6.9H23.77ZM16.414,5.877l0,.012-.942,6.9H9.345L7.968,3.862h8.722ZM3.943,3.179A1.053,1.053,0,0,1,4.973,1.973c.689,0,.976.539,1.066,1.13L9.131,23.126H7.092ZM12.27,43.041a.949.949,0,1,1-1.882.24l-.153-1.22h1.9Zm11.2-5.863a6.078,6.078,0,0,0-3.954,1.463l-.7.6a4.29,4.29,0,0,1-2.791,1.033H5.241a1.25,1.25,0,0,1,0-2.5.894.894,0,0,0,0-1.787H4.434a1.25,1.25,0,0,1,0-2.5.894.894,0,1,0,0-1.787h-1.4a1.25,1.25,0,1,1,0-2.5h.5a.894.894,0,0,0,0-1.787,1.25,1.25,0,0,1,0-2.5H14.272a.894.894,0,1,0,0-1.787H10.939l-.318-2.065h4.788a4.265,4.265,0,0,1,3.357,1.621s1.011,1.3,1.183,1.551c.827,1.192,1.96,2.824,4.45,2.824h.458V37.178H23.475Zm20.487,2.2-5.836.055V36.129a.894.894,0,0,0-1.787,0v3.315h-9.7V24.957h9.7v3.311a.894.894,0,0,0,1.787,0V24.756l5.836-1.5Z" transform="translate(0 -0.186)"/>
        </g>
      </g>
    </g>
  </g>
</svg>
